<svg xmlns="http://www.w3.org/2000/svg" xmlns:xlink="http://www.w3.org/1999/xlink" width="408" height="197" viewBox="0 0 408 197">
    <defs>
        <path id="a" d="M103.108 126.193h70.552a24 24 0 0 0 17.302-7.367l56.792-59.076a24 24 0 0 1 17.301-7.367H289.4a24 24 0 0 1 17.195 7.257l7.185 7.379a24 24 0 0 0 17.195 7.256h130.814a24 24 0 0 0 13.173-3.938l40.16-26.369a24 24 0 0 1 13.172-3.938h26.712a24 24 0 0 0 17.869-7.977l21.563-24.048A24 24 0 0 1 612.306.028h48.3c13.255 0 24 10.745 24 24a24 24 0 0 1-.018.929l-6.547 169.021c-.499 12.884-11.088 23.071-23.982 23.071H.067L86.362 133a24 24 0 0 1 16.746-6.807z"/>
        <path id="c" d="M.783 108.483l74.448-70.98a22.4 22.4 0 0 1 15.457-6.187h65.892a22.4 22.4 0 0 0 11.804-3.363L206.9 4.071A22.4 22.4 0 0 1 218.704.708h147.799a22.4 22.4 0 0 1 17.975 9.034l23 30.931a22.4 22.4 0 0 0 17.974 9.034h7.567a22.4 22.4 0 0 0 17.018-7.834l11.916-13.923a22.4 22.4 0 0 1 17.018-7.834h24.667c6.248 0 12.048 3.24 15.324 8.56a17.996 17.996 0 0 0 15.324 8.56h22.977a22.4 22.4 0 0 1 15.277 6.02l69.941 65.227H.783z"/>
    </defs>
    <g fill="none" fill-rule="evenodd">
        <g transform="translate(-19 -1)">
            <mask id="b" fill="#fff">
                <use xlink:href="#a"/>
            </mask>
            <use fill="#FFF" xlink:href="#a"/>
            <path stroke="#FFDBF4" d="M657.6-9.828c-29.176 33.434-38.956 28.249-19.478 63.017 19.479 34.768 86.28 68.253 51.008 79.738-35.271 11.486-32.51-14.756-55.524-35.207-23.015-20.45-18.546-.213 4.516 35.207 23.062 35.42 98.923 145.132 24.878 68.488-74.045-76.643-111.564-113.363-85.644-130.795 25.92-17.431 59.293-33.493 25.413-33.493-33.88 0-74.407-14.274-70.703 9.61 3.704 23.883-2.586 42.529 10.394 62.364 12.98 19.835 54 30.522 60.31 50.358 6.308 19.836 59.65 84.024-5.527 37.427-65.177-46.598-93.43-43.798-87.975-93.748 5.456-49.95 39.655-70.814 0-70.814s-61.194-36.571-61.194 14.413c0 50.983 17.437 81.804-9.663 101.537-27.1 19.733-60.325 82.53-60.325 11.185s20.385-83.54 0-98.131c-20.386-14.591-11.97-29.183-27.926-14.591-15.956 14.59-18.742 11.737-9.371 34.07 9.37 22.331 9.37 19.525 9.37 28.294 0 8.77 9.523 18.993-9.37 32.29-18.894 13.297-14.79 21.081-14.79-17.415 0-38.497 5.939-62.648-10.748-62.648-16.687 0 1.954 16.465-8.965 41.81-10.919 25.346-22.657 25.346-41.751 45.136-19.094 19.79-27.55 75.095-22.787 43.14 4.763-31.955-1.137-38.502 22.787-58.487s37.495-29.789 0-29.789-56.99-6.65-33.875-14.49c23.115-7.842 52.617 20.268 43.246-18.028-9.371-38.296-58.497-36.612-64.27-9.292-5.773 27.32 10.481 51.493 10.481 71.6 0 20.106-15.111 30.72-23.274 38.409-8.164 7.69-37.398 21.652-15.553 30.078 21.845 8.426 19.606 103.474-4.86 44.681-24.466-58.792-19.92-62.266-7.53-92.193 8.26-19.952 8.26-34.885 0-44.802" mask="url(#b)"/>
        </g>
        <g transform="matrix(-1 0 0 1 715.134 92.88)">
            <mask id="d" fill="#fff">
                <use xlink:href="#c"/>
            </mask>
            <use fill="#E6DBFF" xlink:href="#c"/>
            <path stroke="#B93CF6" stroke-linecap="round" stroke-linejoin="round" stroke-width="1.12" d="M973.399 116.402c-29.667-16.236-52.045-27.002-67.135-32.299-22.635-7.944-22.085-19.006-44.448-19.006s-33.208 12.325-43.09 6.163c-9.884-6.163-7.3-9.829-31.565-27.988-24.266-18.159-38.437-21.43-43.763-16.963-5.326 4.468 39.764 45.77 39.764 57.794 0 12.024-21.49 21.927-44.097 13.646-22.607-8.28-9.193-10.643-32.901-26.49-23.708-15.846-50.26-33.948-54.266-27.987-4.007 5.961-28.524 1.498-3.927 27.988s71.044 31.431 54.448 38.286c-16.597 6.856-25.18 11.798-39.814 0-14.634-11.797-26.029-32.46-46.139-55.027-20.11-22.568-31.666-35.122-40.75-35.122s-65.043-30.602 0 23.875c65.044 54.477 83.727 66.12 79.954 73.13-3.772 7.01-32.15-5.006-39.204-18.653-7.054-13.646-6.573-12.993-27.199-26.49-20.625-13.496-24.644-27.987-37.296-27.987-12.652 0-21.527-3.431-26.77-3.431h-42.454c-6.939 0-16.503-5.83-24.532-12.532-8.03-6.701-19.867-.164 0 15.963 34.477 27.988 49.104 21.376 66.985 21.376s45.59-2.753 45.59 6.612-14.252 16.322-34.743 12.843c-20.491-3.478-34.094-18.782-34.094-4.572 0 14.209 88.079 30.015 93.51 30.015 5.43 0 20.8 14.603 3.276 14.603-17.522 0-54.154.172-73.539-11.079-19.385-11.251-18.115-9.18-27.229-19.073-9.114-9.894-3.775-15.53-31.727-22.215-27.953-6.685-27.039-9.369-33.03-13.316-5.991-3.947-1.21-11.398-13.755-11.398-12.545 0-27.784 11.348-5.117 24.192 22.667 12.843 42.782 21.81 23.95 26.49-18.833 4.68-38.679 13.646-57.32 0-18.64-13.647-24.639-6.179-24.639-18.22 0-12.04 2.684-8.7-8.429-14.882s15.76-26.87 22.817-10.13c7.057 16.742 28.404 57.476 19.328 25.013-9.077-32.463-1.128-40.722-19.328-53.222s6.785-20.828-22.817-13.87-17.896 52.626-13.685 67.092c4.21 14.466 22.814 30.207 4.803 33.54-18.01 3.33-13.157-4.94-13.157-4.94s-16.93-11.86-16.93-36.871c0-25.012-4.269-12.77-13.962-24.192-9.694-11.424-14.04-20.759-28.146-20.759h-37.032c-21.985 0-117.599 11.468-117.599 28.21 0 16.74 12.408 41.202 18.798 49.877 6.39 8.674-13.995 35.189-18.798 39.186-4.803 3.997 142.502 147.782 107.409 44.152-35.093-103.63-78.827-112.957-44.403-123.086 34.424-10.13 53.173-20.59 67.845 19.455 14.671 40.046 32.89 27.89 23.78-4.572-9.109-32.463-13.812 47.65 50.167 77.926 63.978 30.277 689.916 108.732 611.33 47.428-78.587-61.303 235.433 106.066 130.737-32.82C954.365 33.176 655.474-156.297 680.82-58.229 706.164 39.841 694.874 46.45 655.67 12.44c-39.204-34.01-74.106-41.763-60.207-20.882 13.898 20.882-26.941 9.982-51.94-6.067C518.525-30.558 228.955 12.44 124.348 12.44" mask="url(#d)"/>
        </g>
        <path fill="#000" d="M506.11 135.004c4.933-39.446 4.076-65.037-2.57-76.772-9.97-17.604-22.791-22.02-24.704-21.613-1.913.406-4.987 16.501-8.38 13.97-3.394-2.532.258-13.844-.34-16.656-.598-2.812-24.436-8.402-27.47-7.757-3.034.645-6.909 37.749-11.916 35.204-5.008-2.546 6.64-36.871 4.06-38.36-2.58-1.49-13.174-3.856-14.437-3.588-1.262.268-2.583 19.856-6.11 18.911-3.525-.944-4.076-19.177-4.39-20.661-.316-1.484-11.266-2.154-11.266-2.154s-1.168 23.846-3.939 22.642c-2.77-1.203-2.383-23.044-5.098-23.988-2.715-.944-12.824-1.282-14.499-.072-1.675 1.21 1.836 12.804-2.528 11.507-4.365-1.298-2.59-10.11-4.587-10.924-1.997-.814-23.973.18-26.045 2.553-2.073 2.371 5.17 31.04 6.536 30.749 1.365-.29 16.457-5.935 18.294-1.35 1.837 4.585-15.175 7.245-14.88 8.628.293 1.382 7.91 14.585 8.238 16.13.328 1.546 11.06-7.152 13.61-5.293 2.548 1.859-11.437 7.366-10.937 9.719.5 2.352 6.477 13.898 7.643 15.191 1.165 1.294 10.6-9.541 13.367-7.329 2.768 2.212-9.961 9.466-9.352 12.33.608 2.864 5.063 8.996 7.44 8.49 2.378-.505 17.405-14.203 21.989-10.657 4.583 3.546-19.71 15.935-17.465 19.913 2.246 3.978 13.604 17.649 15.49 18.192 1.888.544 14.971-15.23 18.628-13.375 3.657 1.856-13.603 17.643-13.232 19.39.213.999 5.416 5.449 13.157 9.178.872.42 4.846-7.77 7.453-9.823 3.227-2.542 5.872-1.248 6.425 1.353.553 2.602-4.907 11.966-3.516 12.334 3.255.861 14.343 1.425 17.87 1.535 11.838.37 30.992-5.478 57.46-17.547zm-37.393-68.845c4.62 2.075-3.088 18.86-7.643 16.564-4.556-2.295 3.023-18.64 7.643-16.564zm-14.76-16.556c.268 1.261-3.388 11.536-5.369 13.781-1.98 2.246-2.915-1.205-3.964-2.973-1.05-1.768 1.671-11.24 3.682-12.855 2.01-1.617 5.383.786 5.651 2.047zm-41.764-5.853c.924-.714 4.728-.025 5.642 1.886.915 1.912-1.203 7.962-2.586 9.264-1.383 1.302-4.38-.638-4.68-2.05-.3-1.412.7-8.385 1.624-9.1zm-22.932 37.522c-2.026-.755-2.95-1.345-3.24-2.706-.288-1.361 5.847-7.16 7.891-8.261 2.044-1.102 4.675.256 4.405 2.158-.27 1.902-7.03 9.565-9.056 8.81zm37.892 14.709c.966.845 2.366 2.255 2.683 3.749.317 1.493-7.937 7.716-10.787 8.322-2.85.606-4.499-2.516-3.722-4.53.777-2.015 10.86-8.386 11.826-7.541z"/>
        <path fill="#C297FB" d="M499.151 141.279c10.375-38.375 13.089-63.836 8.14-76.383-7.422-18.82-19.505-24.977-21.455-24.84-1.95.136-7.235 15.646-10.243 12.667-3.009-2.979 2.182-13.673 1.982-16.54-.201-2.869-23.03-11.722-26.124-11.506-3.094.217-12.095 36.42-16.7 33.203-4.604-3.217 11.707-35.588 9.36-37.421-2.347-1.834-12.509-5.652-13.797-5.562-1.288.09-5.322 19.303-8.682 17.877-3.36-1.426-1.367-19.559-1.473-21.072-.106-1.513-10.856-3.7-10.856-3.7s-4.476 23.45-7.051 21.873c-2.576-1.577.846-23.152-1.711-24.464-2.557-1.313-12.52-3.055-14.348-2.089-1.827.966.036 12.935-4.105 11.042-4.14-1.892-1.157-10.37-3.021-11.455-1.864-1.084-23.765-3.158-26.147-1.097-2.383 2.06.8 31.457 2.192 31.36 1.393-.098 17.123-3.588 18.304 1.209 1.182 4.796-16.035 5.062-15.936 6.472.098 1.41 5.803 15.544 5.913 17.12.11 1.577 11.95-5.543 14.214-3.347 2.265 2.195-12.35 5.703-12.182 8.102.168 2.399 4.479 14.664 5.453 16.107.975 1.444 11.825-7.973 14.258-5.397 2.433 2.576-11.182 7.988-10.977 10.909.204 2.92 3.762 9.612 6.187 9.443 2.424-.17 19.211-11.644 23.257-7.494 4.045 4.15-21.737 13.037-20.066 17.29 1.67 4.251 11.015 19.369 12.808 20.17 1.793.8 16.944-13 20.307-10.653 3.363 2.347-15.926 15.579-15.801 17.36.071 1.018 4.605 6.15 11.751 10.92.805.537 5.88-7.02 8.747-8.69 3.55-2.068 5.99-.42 6.175 2.234.185 2.653-6.525 11.166-5.199 11.724 3.104 1.306 14.005 3.407 17.483 4.008 11.671 2.014 31.453-1.113 59.343-9.38zm-27.447-73.38c4.286 2.699-5.682 18.247-9.874 15.34s5.588-18.038 9.874-15.34zm-12.312-18.448c.09 1.286-4.96 10.952-7.235 12.9-2.273 1.948-2.718-1.6-3.511-3.496-.793-1.897 3.219-10.897 5.435-12.218 2.216-1.32 5.221 1.528 5.311 2.814zM418.85 37.843c1.014-.58 4.685.632 5.325 2.653.64 2.02-2.3 7.717-3.85 8.813-1.55 1.097-4.249-1.24-4.35-2.681-.1-1.44 1.86-8.206 2.875-8.785zm-27.931 33.965c-1.901-1.03-2.734-1.743-2.83-3.131-.098-1.388 6.785-6.276 8.962-7.082 2.177-.807 4.594.904 4.062 2.75s-8.293 8.493-10.194 7.463zm35.476 19.839c.84.971 2.029 2.563 2.135 4.086.107 1.523-8.933 6.537-11.84 6.74-2.906.203-4.105-3.118-3.055-5.005 1.05-1.887 11.92-6.792 12.76-5.821z"/>
        <path stroke="#FFF" stroke-linecap="round" stroke-width="1.12" d="M353.003 2.122c27.838 23.521 79.376 69.826 115.175 105.661 23.865 23.89 51.702 56.881 83.51 98.973"/>
        <g>
            <path fill="#000" d="M402.77 233.129c-25.22 3.186-41.581 2.65-49.08-1.608-11.25-6.389-14.066-14.614-13.805-15.842.26-1.227 10.552-3.208 8.936-5.385-1.617-2.176-8.851.173-10.649-.209-1.797-.382-5.359-15.676-4.945-17.623.414-1.947 24.138-4.453 22.513-7.665-1.624-3.212-23.576 4.28-24.526 2.625-.951-1.654-2.459-8.451-2.286-9.262.172-.81 12.695-1.668 12.093-3.93-.602-2.262-12.258-2.606-13.207-2.807-.948-.202-1.37-7.228-1.37-7.228s15.245-.762 14.477-2.54c-.768-1.776-14.732-1.517-15.334-3.258-.602-1.742-.813-8.228-.038-9.304.775-1.076 8.185 1.171 7.358-1.629-.827-2.8-6.462-1.656-6.981-2.937-.52-1.28.128-15.383 1.645-16.715 1.518-1.33 19.842 3.302 19.656 4.178-.187.877-3.804 10.564-.873 11.74 2.93 1.177 4.64-9.741 5.524-9.553.884.188 9.32 5.068 10.308 5.278.988.21-4.579 7.102-3.391 8.736 1.187 1.634 4.715-7.342 6.219-7.023 1.504.32 8.882 4.149 9.708 4.896.827.748-6.105 6.807-4.692 8.582 1.413 1.775 6.057-6.397 7.888-6.008 1.83.39 5.748 3.245 5.424 4.77-.325 1.527-9.09 11.176-6.826 14.116 2.265 2.94 10.199-12.657 12.74-11.218 2.543 1.44 11.277 8.72 11.623 9.931.347 1.21-9.745 9.615-8.56 11.96 1.184 2.346 11.286-8.738 12.402-8.5.64.135 3.482 3.472 5.861 8.437.268.56-4.97 3.113-6.284 4.787-1.626 2.073-.8 3.77.862 4.123 1.663.353 7.653-3.155 7.887-2.263.55 2.088.904 9.203.973 11.466.23 7.597-3.52 19.89-11.25 36.882zm-43.994-23.959c1.324 2.964 12.06-1.99 10.594-4.913-1.465-2.922-11.919 1.95-10.594 4.913zm-10.577-9.462c.806.171 7.377-2.18 8.814-3.452 1.436-1.272-.77-1.87-1.899-2.543-1.13-.672-7.187 1.079-8.22 2.37-1.035 1.29.5 3.454 1.305 3.625zm-3.72-26.797c-.457.593-.018 3.034 1.203 3.62 1.222.586 5.091-.776 5.924-1.664.833-.889-.405-2.81-1.308-3.003-.903-.191-5.361.454-5.819 1.047zm24.001-14.735c-.482-1.3-.858-1.892-1.728-2.077-.87-.185-4.58 3.755-5.286 5.067-.705 1.312.161 3 1.377 2.826 1.217-.174 6.12-4.516 5.637-5.816zm9.384 24.307c.54.62 1.44 1.517 2.395 1.72.955.203 4.938-5.097 5.327-6.926.388-1.829-1.607-2.886-2.895-2.386-1.289.5-5.367 6.973-4.827 7.592z"/>
            <path fill="#FFA3E3" d="M403.36 231.46c-25.354 1.862-41.664.47-48.93-4.175-10.9-6.968-13.282-15.33-12.957-16.542.324-1.212 10.706-2.652 9.205-4.91-1.5-2.258-8.848-.29-10.623-.766-1.775-.476-4.53-15.935-4.016-17.858.516-1.923 24.338-3.184 22.884-6.476-1.455-3.293-23.768 3.04-24.63 1.338-.864-1.702-2.013-8.569-1.799-9.369.215-.8 12.766-1.002 12.283-3.292-.483-2.29-12.106-3.244-13.042-3.495-.937-.25-.99-7.29-.99-7.29s15.264.037 14.59-1.777c-.674-1.815-14.632-2.287-15.142-4.058-.51-1.77-.381-8.259.449-9.292.83-1.034 8.112 1.597 7.432-1.242-.68-2.839-6.366-1.992-6.818-3.298-.451-1.307.933-15.356 2.519-16.606 1.585-1.25 19.641 4.335 19.41 5.2-.233.866-4.351 10.35-1.487 11.68 2.865 1.328 5.144-9.486 6.017-9.252.872.234 9.042 5.549 10.018 5.81.975.262-4.945 6.853-3.844 8.547 1.1 1.694 5.093-7.086 6.578-6.688 1.485.398 8.653 4.608 9.439 5.398.786.79-6.454 6.478-5.136 8.324 1.318 1.846 6.384-6.071 8.192-5.587 1.808.485 5.57 3.541 5.167 5.048-.404 1.507-9.663 10.685-7.555 13.739 2.108 3.054 10.847-12.106 13.31-10.536 2.464 1.57 10.804 9.299 11.087 10.526.283 1.227-10.235 9.09-9.175 11.495 1.06 2.405 11.729-8.135 12.831-7.84.63.17 3.295 3.65 5.411 8.733.239.573-5.126 2.85-6.526 4.452-1.732 1.984-.997 3.722.645 4.162 1.642.44 7.807-2.75 7.995-1.847.439 2.114.42 9.238.37 11.501-.166 7.599-4.554 19.68-13.163 36.243zm-42.682-26.228c1.168 3.028 12.147-1.358 10.837-4.352-1.31-2.995-12.004 1.323-10.837 4.352zm-10.066-10.003c.796.213 7.48-1.792 8.982-2.987 1.5-1.195-.67-1.907-1.763-2.638-1.093-.73-7.234.7-8.334 1.936-1.1 1.235.318 3.475 1.115 3.689zm-2.313-26.955c-.487.568-.177 3.028 1.012 3.678 1.19.649 5.124-.51 6.003-1.352.878-.844-.258-2.828-1.15-3.067-.89-.239-5.377.172-5.865.74zm24.74-13.459c-.414-1.323-.76-1.934-1.618-2.165-.86-.23-4.77 3.51-5.544 4.784-.773 1.273.004 3.004 1.228 2.894 1.224-.11 6.347-4.19 5.933-5.513zm8.098 24.765c.506.647 1.36 1.59 2.302 1.843.943.253 5.198-4.832 5.682-6.638s-1.453-2.966-2.766-2.534c-1.313.431-5.724 6.682-5.218 7.33z"/>
            <path stroke="#74125D" stroke-linecap="round" stroke-width=".8" d="M333.959 122.442c11.346 20.402 34.083 58.51 52.18 85.426 12.064 17.944 29.353 39.498 51.866 64.663"/>
        </g>
        <g>
            <path stroke="#B93CF6" stroke-width="1.12" d="M90.065 205.787c0-38.472 8.29-69.012 24.872-91.619"/>
            <path fill="#C297FB" d="M89.95 182.501c-2.415-5.852-6.507-10.003-12.277-12.452s-11.063-2.71-15.88-.784c1.148 4.008 5.36 7.476 12.637 10.407 7.277 2.93 12.45 3.873 15.52 2.829zM92.446 182.796c5.148-3.604 11.482-5.406 19.002-5.406s12.522 1.802 15.008 5.406c-5.066 2.43-10.456 3.645-16.17 3.645-5.714 0-11.66-1.215-17.84-3.645zM93.77 154.727c-.11-4.233-1.622-8.406-4.535-12.52-2.912-4.115-6.936-6.277-12.07-6.487 1.864 5.426 4.104 9.412 6.717 11.958 2.614 2.546 5.91 4.896 9.888 7.05zM97.873 155.638c3.74-3.315 7.894-5.487 12.46-6.516 4.567-1.028 8.704.058 12.413 3.258-4.057 3.612-8.195 5.418-12.413 5.418-4.217 0-8.37-.72-12.46-2.16zM105.412 126.871c-.71-2.986-1.717-5.6-3.02-7.841-1.303-2.242-3.999-3.684-8.087-4.328-.165 4.092.9 7.05 3.192 8.87 2.292 1.821 4.93 2.921 7.915 3.3zM108.232 128.363c4.153-.026 7.62.4 10.4 1.276 2.78.876 4.848 2.762 6.206 5.656h-9.203c-3.292 0-5.76-2.31-7.403-6.932zM114.016 115.024c.71-4.498 2.165-7.823 4.364-9.973 2.2-2.15 5.406-3.501 9.62-4.051-.503 3.988-2.336 7.205-5.499 9.65-3.164 2.447-5.992 3.905-8.485 4.374z"/>
        </g>
    </g>
</svg>
