<svg xmlns="http://www.w3.org/2000/svg" xmlns:xlink="http://www.w3.org/1999/xlink" width="455" height="186" viewBox="0 0 455 186">
    <defs>
        <path id="a" d="M.61 217.05L164.867 59.084a24 24 0 0 1 16.636-6.702H206.4a24 24 0 0 1 17.195 7.257l7.185 7.379a24 24 0 0 0 17.195 7.256h130.814a24 24 0 0 0 13.173-3.938l40.16-26.369a24 24 0 0 1 13.172-3.938h26.712a24 24 0 0 0 17.869-7.977l21.563-24.048A24 24 0 0 1 529.306.028h48.3c13.255 0 24 10.745 24 24a24 24 0 0 1-.018.929l-6.547 169.021c-.499 12.884-11.088 23.071-23.982 23.071H.61z"/>
        <path id="c" d="M.783 108.483l74.448-70.98a22.4 22.4 0 0 1 15.457-6.187h65.892a22.4 22.4 0 0 0 11.804-3.363L206.9 4.071A22.4 22.4 0 0 1 218.704.708h135.602a22.4 22.4 0 0 1 15.542 6.27l41.151 39.65a11 11 0 0 0 7.633 3.08h19.635a11 11 0 0 0 8.357-3.848l18.322-21.407a12.4 12.4 0 0 1 9.42-4.337h34.665a12.4 12.4 0 0 1 8.167 3.068l12.55 10.984a12.4 12.4 0 0 0 8.167 3.069h23.654a12.4 12.4 0 0 1 7.977 2.906l81.328 68.34H.783z"/>
    </defs>
    <g fill="none" fill-rule="evenodd">
        <g transform="matrix(-1 0 0 1 480 -7)">
            <mask id="b" fill="#fff">
                <use xlink:href="#a"/>
            </mask>
            <use fill="#FFF" xlink:href="#a"/>
            <path stroke="#FFDBF4" d="M574.6-9.828c-29.176 33.434-38.956 28.249-19.478 63.017 19.479 34.768 86.28 68.253 51.008 79.738-35.271 11.486-32.51-14.756-55.524-35.207-23.015-20.45-18.546-.213 4.516 35.207 23.062 35.42 98.923 145.132 24.878 68.488-74.045-76.643-111.564-113.363-85.644-130.795 25.92-17.431 59.293-33.493 25.413-33.493-33.88 0-74.407-14.274-70.703 9.61 3.704 23.883-2.586 42.529 10.394 62.364 12.98 19.835 54 30.522 60.31 50.358 6.308 19.836 59.65 84.024-5.527 37.427-65.177-46.598-93.43-43.798-87.975-93.748 5.456-49.95 39.655-70.814 0-70.814s-61.194-36.571-61.194 14.413c0 50.983 17.437 81.804-9.663 101.537-27.1 19.733-60.325 82.53-60.325 11.185s20.385-83.54 0-98.131c-20.386-14.591-11.97-29.183-27.926-14.591-15.956 14.59-18.742 11.737-9.371 34.07 9.37 22.331 9.37 19.525 9.37 28.294 0 8.77 9.523 18.993-9.37 32.29-18.894 13.297-14.79 21.081-14.79-17.415 0-38.497 5.939-62.648-10.748-62.648-16.687 0-1.243 3.558-8.965 41.81-7.722 38.253-13.286 36.531-32.38 56.32-19.094 19.79-36.92 63.91-32.158 31.956 4.763-31.955-1.137-38.502 22.787-58.487s37.495-29.789 0-29.789-56.99-6.65-33.875-14.49c23.115-7.842 52.617 20.268 43.246-18.028-9.371-38.296-58.497-36.612-64.27-9.292-5.773 27.32 10.481 51.493 10.481 71.6 0 20.106-15.111 30.72-23.274 38.409-8.164 7.69-37.398 21.652-15.553 30.078 21.845 8.426 19.606 103.474-4.86 44.681-24.466-58.792-19.92-62.266-7.53-92.193 8.26-19.952 8.26-34.885 0-44.802" mask="url(#b)"/>
        </g>
        <path fill="#C297FB" d="M-118.673 196.18l12.885-50.156A20 20 0 0 1-86.417 131H36.997a20 20 0 0 0 14.122-5.838l26.398-26.324A20 20 0 0 1 91.639 93h85.548a20 20 0 0 1 13.118 4.904l150.773 131.02-440.732-7.77c-11.044-.195-19.84-9.305-19.645-20.35a20 20 0 0 1 .626-4.623z"/>
        <g transform="translate(-365.134 111.88)">
            <mask id="d" fill="#fff">
                <use xlink:href="#c"/>
            </mask>
            <use fill="#E6DBFF" xlink:href="#c"/>
            <path stroke="#B93CF6" stroke-linecap="round" stroke-linejoin="round" stroke-width="1.12" d="M973.399 116.402c-29.667-16.236-52.045-27.002-67.135-32.299-22.635-7.944-22.085-19.006-44.448-19.006s-33.208 12.325-43.09 6.163c-9.884-6.163-7.3-9.829-31.565-27.988-24.266-18.159-38.437-21.43-43.763-16.963-5.326 4.468 39.764 45.77 39.764 57.794 0 12.024-21.49 21.927-44.097 13.646-22.607-8.28-9.193-10.643-32.901-26.49-23.708-15.846-50.26-33.948-54.266-27.987-4.007 5.961-28.524 1.498-3.927 27.988s71.044 31.431 54.448 38.286c-16.597 6.856-25.18 11.798-39.814 0-14.634-11.797-26.029-32.46-46.139-55.027-20.11-22.568-31.666-35.122-40.75-35.122s-65.043-30.602 0 23.875c65.044 54.477 83.727 66.12 79.954 73.13-3.772 7.01-32.15-5.006-39.204-18.653-7.054-13.646-6.573-12.993-27.199-26.49-20.625-13.496-24.644-27.987-37.296-27.987-12.652 0-21.527-3.431-26.77-3.431h-36.344c-10.712 0-65.12-24.556-30.642 3.431 34.477 27.988 49.104 21.376 66.985 21.376s45.59-2.753 45.59 6.612-14.252 16.322-34.743 12.843c-20.491-3.478-34.094-18.782-34.094-4.572 0 14.209 88.079 30.015 93.51 30.015 5.43 0 20.8 14.603 3.276 14.603-17.522 0-54.154.172-73.539-11.079-19.385-11.251-18.115-9.18-27.229-19.073-9.114-9.894 25.792-2.426-14.676-14.466-40.47-12.04-44.09-17.118-50.08-21.065-5.992-3.947-1.211-11.398-13.756-11.398s-27.784 11.348-5.117 24.192c22.667 12.843 42.782 21.81 23.95 26.49-18.833 4.68-38.679 13.646-57.32 0-18.64-13.647-24.639-6.179-24.639-18.22 0-12.04 2.684-8.7-8.429-14.882s15.76-26.87 22.817-10.13c7.057 16.742 28.404 57.476 19.328 25.013-9.077-32.463-1.128-40.722-19.328-53.222s6.785-20.828-22.817-13.87-17.896 52.626-13.685 67.092c4.21 14.466 22.814 30.207 4.803 33.54-18.01 3.33-13.157-4.94-13.157-4.94s-16.93-11.86-16.93-36.871c0-25.012-4.269-12.77-13.962-24.192-9.694-11.424-14.04-20.759-28.146-20.759h-37.032c-21.985 0-117.599 11.468-117.599 28.21 0 16.74 12.408 41.202 18.798 49.877 6.39 8.674-13.995 35.189-18.798 39.186-4.803 3.997 142.502 147.782 107.409 44.152-35.093-103.63-78.827-112.957-44.403-123.086 34.424-10.13 53.173-20.59 67.845 19.455 14.671 40.046 32.89 27.89 23.78-4.572-9.109-32.463-13.812 47.65 50.167 77.926 63.978 30.277 689.916 108.732 611.33 47.428-78.587-61.303 235.433 106.066 130.737-32.82C954.365 33.176 655.474-156.297 680.82-58.229 706.164 39.841 694.874 46.45 655.67 12.44c-39.204-34.01-74.106-41.763-60.207-20.882 13.898 20.882-26.941 9.982-51.94-6.067C518.525-30.558 228.955 12.44 124.348 12.44" mask="url(#d)"/>
        </g>
        <path fill="#000" d="M-106.835 96.314c6.13-39.278 14.008-63.641 23.631-73.09C-68.768 9.05-55.226 8.339-53.499 9.257c1.726.918.245 17.237 4.205 15.74 3.96-1.499 3.568-13.38 4.917-15.918 1.35-2.538 25.806-1.341 28.544.115 2.74 1.456-3.764 38.191 1.752 37.125 5.515-1.067 3.78-37.273 6.67-37.993 2.89-.72 13.727-.076 14.866.53 1.14.607-2.989 19.8.66 19.863 3.65.064 9.205-17.31 9.917-18.65.712-1.34 11.423 1.035 11.423 1.035s-5.45 23.243-2.456 22.85c2.995-.393 8.644-21.495 11.514-21.654 2.87-.158 12.68 2.303 13.957 3.928 1.276 1.625-5.294 11.802-.741 11.758 4.552-.045 5.275-9.004 7.419-9.237 2.144-.232 22.995 6.782 24.333 9.633 1.338 2.851-13.526 28.412-14.758 27.757-1.233-.656-14.184-10.242-17.214-6.34-3.03 3.9 12.59 11.146 11.926 12.394-.663 1.249-11.623 11.84-12.365 13.235-.742 1.395-8.661-9.924-11.623-8.84-2.962 1.085 8.962 10.234 7.833 12.357-1.129 2.124-10.056 11.575-11.534 12.497-1.477.922-7.559-12.093-10.83-10.73-3.27 1.364 6.967 11.845 5.592 14.43-1.374 2.586-7.347 7.252-9.493 6.111S8.201 82.802 2.817 84.948c-5.384 2.145 14.554 20.75 11.299 23.955-3.256 3.205-17.941 13.216-19.905 13.218-1.964.002-10.192-18.768-14.219-17.992-4.026.776 8.213 20.71 7.375 22.286-.48.902-6.709 3.745-15.177 5.196-.954.163-2.516-8.805-4.457-11.497-2.401-3.332-5.3-2.818-6.549-.47-1.249 2.349 1.419 12.855-.02 12.825-3.366-.069-14.18-2.583-17.6-3.45-11.483-2.906-28.282-13.808-50.399-32.705zm54.92-55.872c-5.012.722-2.23 18.98 2.782 18.03 5.011-.95 2.232-18.752-2.781-18.03zm18.752-11.846c-.605 1.139.078 12.023 1.362 14.727 1.285 2.705 3.134-.354 4.63-1.765 1.496-1.41 1.492-11.264.005-13.372-1.488-2.108-5.392-.728-5.997.41zm41.76 5.886c-.692-.941-4.538-1.328-5.944.258-1.406 1.585-1.038 7.985-.068 9.617.97 1.633 4.386.595 5.064-.68.678-1.275 1.639-8.254.948-9.195zm11.7 42.39c2.157-.168 3.207-.48 3.86-1.71.654-1.228-3.646-8.493-5.307-10.115-1.661-1.622-4.565-1.043-4.83.86-.264 1.903 4.122 11.132 6.278 10.964zm-40.478 3.694c-1.161.546-2.895 1.516-3.612 2.864-.717 1.348 5.503 9.605 8.075 10.973 2.572 1.368 5.018-1.179 4.827-3.33-.192-2.15-8.128-11.053-9.29-10.507z"/>
        <path fill="#C297FB" d="M-101.876 104.263c.605-39.748 5.014-64.97 13.23-75.667 12.322-16.045 25.633-18.633 27.47-17.964 1.838.668 2.642 17.035 6.355 15 3.714-2.034 1.672-13.745 2.655-16.447.983-2.701 25.367-4.919 28.282-3.858 2.915 1.06 1.588 38.343 6.9 36.52 5.314-1.824-1.443-37.437 1.319-38.552C-12.903 2.179-2.083 1.31-.87 1.75c1.213.442-.204 20.022 3.419 19.578 3.623-.445 6.705-18.424 7.224-19.85C10.292.056 21.228.916 21.228.916s-2.161 23.776.75 22.97c2.91-.807 5.567-22.489 8.387-23.046 2.82-.556 12.877.515 14.367 1.947 1.49 1.432-3.6 12.424.903 11.747 4.502-.678 3.97-9.65 6.062-10.18 2.09-.528 23.714 3.516 25.437 6.153 1.722 2.637-9.44 30.018-10.752 29.54-1.312-.477-15.47-8.167-17.928-3.882-2.458 4.284 14.018 9.286 13.535 10.614-.484 1.329-9.863 13.343-10.404 14.827-.54 1.485-9.958-8.622-12.74-7.136-2.782 1.487 10.3 8.887 9.477 11.147-.823 2.26-8.348 12.861-9.682 13.98-1.335 1.119-9.169-10.924-12.218-9.118-3.048 1.805 8.547 10.76 7.546 13.511-1.002 2.752-6.267 8.204-8.55 7.373-2.285-.832-15.258-16.488-20.291-13.615-5.033 2.874 17.3 18.524 14.523 22.15-2.778 3.627-15.927 15.584-17.872 15.86-1.944.275-12.705-17.167-16.584-15.838-3.88 1.329 11.015 19.365 10.404 21.042-.35.96-6.122 4.643-14.306 7.258-.922.295-3.717-8.369-6.013-10.764-2.842-2.966-5.641-2.054-6.551.446-.91 2.499 3.194 12.532 1.765 12.703-3.343.4-14.401-.585-17.91-.967-11.774-1.28-29.927-9.738-54.459-25.374zm46.61-62.97c-4.863 1.412.433 19.105 5.264 17.467 4.83-1.64-.4-18.88-5.263-17.468zm16.92-14.34c-.44 1.21 1.75 11.894 3.4 14.393 1.648 2.5 3.054-.787 4.339-2.392 1.285-1.605-.091-11.363-1.857-13.243-1.766-1.88-5.44.03-5.882 1.241zm42.173.016c-.816-.836-4.678-.684-5.85 1.082-1.172 1.766.083 8.052 1.271 9.534 1.189 1.481 4.426-.022 4.92-1.38.494-1.356.474-8.4-.341-9.236zm17.487 40.348c2.111-.466 3.108-.922 3.584-2.23.476-1.307-4.793-7.903-6.664-9.278-1.87-1.375-4.665-.397-4.662 1.524.002 1.921 5.63 10.45 7.742 9.984zm-39.57 9.292c-1.075.702-2.657 1.904-3.18 3.339-.522 1.435 6.787 8.746 9.524 9.742 2.738.997 4.806-1.865 4.317-3.968-.49-2.103-9.587-9.815-10.661-9.113z"/>
        <path stroke="#FFF" stroke-linecap="round" stroke-width="1.12" d="M76.968 10.781C43.725 25.718-18.58 56.023-62.869 80.603c-29.527 16.386-65.378 40.426-107.556 72.12"/>
        <g>
            <path fill="#000" d="M-12.77 252.129c25.22 3.186 41.581 2.65 49.08-1.608 11.25-6.389 14.066-14.614 13.805-15.842-.26-1.227-10.552-3.208-8.936-5.385 1.617-2.176 8.851.173 10.649-.209 1.797-.382 5.359-15.676 4.945-17.623-.414-1.947-24.138-4.453-22.513-7.665 1.624-3.212 23.576 4.28 24.526 2.625.951-1.654 2.459-8.451 2.286-9.262-.172-.81-12.695-1.668-12.093-3.93.602-2.262 12.258-2.606 13.207-2.807.948-.202 1.37-7.228 1.37-7.228s-15.245-.762-14.477-2.54c.768-1.776 14.732-1.517 15.334-3.258.602-1.742.813-8.228.038-9.304-.775-1.076-8.185 1.171-7.358-1.629.827-2.8 6.462-1.656 6.981-2.937.52-1.28-.128-15.383-1.645-16.715-1.518-1.33-19.842 3.302-19.656 4.178.187.877 3.804 10.564.873 11.74-2.93 1.177-4.64-9.741-5.524-9.553-.884.188-9.32 5.068-10.308 5.278-.988.21 4.579 7.102 3.391 8.736-1.187 1.634-4.715-7.342-6.219-7.023-1.504.32-8.882 4.149-9.708 4.896-.827.748 6.105 6.807 4.692 8.582-1.413 1.775-6.057-6.397-7.888-6.008-1.83.39-5.748 3.245-5.424 4.77.325 1.527 9.09 11.176 6.826 14.116-2.265 2.94-10.199-12.657-12.74-11.218-2.543 1.44-11.277 8.72-11.623 9.931-.347 1.21 9.745 9.615 8.56 11.96-1.184 2.346-11.286-8.738-12.402-8.5-.64.135-3.482 3.472-5.861 8.437-.268.56 4.97 3.113 6.284 4.787 1.626 2.073.8 3.77-.862 4.123-1.663.353-7.653-3.155-7.887-2.263-.55 2.088-.904 9.203-.973 11.466-.23 7.597 3.52 19.89 11.25 36.882zm43.994-23.959c-1.324 2.964-12.06-1.99-10.594-4.913 1.465-2.922 11.919 1.95 10.594 4.913zm10.577-9.462c-.806.171-7.377-2.18-8.814-3.452-1.436-1.272.77-1.87 1.899-2.543 1.13-.672 7.187 1.079 8.22 2.37 1.035 1.29-.5 3.454-1.305 3.625zm3.72-26.797c.457.593.018 3.034-1.203 3.62-1.222.586-5.091-.776-5.924-1.664-.833-.889.405-2.81 1.308-3.003.903-.191 5.361.454 5.819 1.047zM21.52 177.176c.482-1.3.858-1.892 1.728-2.077.87-.185 4.58 3.755 5.286 5.067.705 1.312-.161 3-1.377 2.826-1.217-.174-6.12-4.516-5.637-5.816zm-9.384 24.307c-.54.62-1.44 1.517-2.395 1.72-.955.203-4.938-5.097-5.327-6.926-.388-1.829 1.607-2.886 2.895-2.386 1.289.5 5.367 6.973 4.827 7.592z"/>
            <path fill="#FFA3E3" d="M-13.36 250.46c25.354 1.862 41.664.47 48.93-4.175 10.9-6.968 13.282-15.33 12.957-16.542-.324-1.212-10.706-2.652-9.205-4.91 1.5-2.258 8.848-.29 10.623-.766 1.775-.476 4.53-15.935 4.016-17.858-.516-1.923-24.338-3.184-22.884-6.476 1.455-3.293 23.768 3.04 24.63 1.338.864-1.702 2.013-8.569 1.799-9.369-.215-.8-12.766-1.002-12.283-3.292.483-2.29 12.106-3.244 13.042-3.495.937-.25.99-7.29.99-7.29s-15.264.037-14.59-1.777c.674-1.815 14.632-2.287 15.142-4.058.51-1.77.381-8.259-.449-9.292-.83-1.034-8.112 1.597-7.432-1.242.68-2.839 6.366-1.992 6.818-3.298.451-1.307-.933-15.356-2.519-16.606-1.585-1.25-19.641 4.335-19.41 5.2.233.866 4.351 10.35 1.487 11.68-2.865 1.328-5.144-9.486-6.017-9.252-.872.234-9.042 5.549-10.018 5.81-.975.262 4.945 6.853 3.844 8.547-1.1 1.694-5.093-7.086-6.578-6.688-1.485.398-8.653 4.608-9.439 5.398-.786.79 6.454 6.478 5.136 8.324-1.318 1.846-6.384-6.071-8.192-5.587-1.808.485-5.57 3.541-5.167 5.048.404 1.507 9.663 10.685 7.555 13.739-2.108 3.054-10.847-12.106-13.31-10.536-2.464 1.57-10.804 9.299-11.087 10.526-.283 1.227 10.235 9.09 9.175 11.495-1.06 2.405-11.729-8.135-12.831-7.84-.63.17-3.295 3.65-5.411 8.733-.239.573 5.126 2.85 6.526 4.452 1.732 1.984.997 3.722-.645 4.162-1.642.44-7.807-2.75-7.995-1.847-.439 2.114-.42 9.238-.37 11.501.166 7.599 4.554 19.68 13.163 36.243zm42.682-26.228c-1.168 3.028-12.147-1.358-10.837-4.352 1.31-2.995 12.004 1.323 10.837 4.352zm10.066-10.003c-.796.213-7.48-1.792-8.982-2.987-1.5-1.195.67-1.907 1.763-2.638 1.093-.73 7.234.7 8.334 1.936 1.1 1.235-.318 3.475-1.115 3.689zm2.313-26.955c.487.568.177 3.028-1.012 3.678-1.19.649-5.124-.51-6.003-1.352-.878-.844.258-2.828 1.15-3.067.89-.239 5.377.172 5.865.74zm-24.74-13.459c.414-1.323.76-1.934 1.618-2.165.86-.23 4.77 3.51 5.544 4.784.773 1.273-.004 3.004-1.228 2.894-1.224-.11-6.347-4.19-5.933-5.513zM8.864 198.58c-.506.647-1.36 1.59-2.302 1.843-.943.253-5.198-4.832-5.682-6.638s1.453-2.966 2.766-2.534c1.313.431 5.724 6.682 5.218 7.33z"/>
            <path stroke="#74125D" stroke-linecap="round" stroke-width=".8" d="M56.041 141.442c-11.346 20.402-34.083 58.51-52.18 85.426-12.064 17.944-29.353 39.498-51.866 64.663"/>
        </g>
        <g>
            <path stroke="#B93CF6" stroke-width="1.12" d="M304.322 204.267c0-38.472-8.29-69.012-24.872-91.619"/>
            <path fill="#FFA3E3" d="M304.438 180.981c2.414-5.852 6.506-10.003 12.276-12.452s11.063-2.71 15.88-.784c-1.148 4.008-5.36 7.476-12.638 10.407-7.276 2.93-12.45 3.873-15.518 2.829zM301.941 181.276c-5.148-3.604-11.482-5.406-19.002-5.406s-12.522 1.802-15.008 5.406c5.066 2.43 10.456 3.645 16.17 3.645 5.714 0 11.66-1.215 17.84-3.645zM300.617 153.207c.11-4.233 1.622-8.406 4.535-12.52 2.912-4.115 6.936-6.277 12.07-6.487-1.864 5.426-4.104 9.412-6.717 11.958-2.614 2.546-5.91 4.896-9.888 7.05zM296.514 154.118c-3.74-3.315-7.894-5.487-12.46-6.516-4.567-1.028-8.704.058-12.413 3.258 4.057 3.612 8.195 5.418 12.412 5.418 4.218 0 8.372-.72 12.46-2.16zM288.975 125.351c.71-2.986 1.717-5.6 3.02-7.841 1.303-2.242 3.999-3.684 8.087-4.328.164 4.092-.9 7.05-3.192 8.87-2.292 1.821-4.93 2.921-7.915 3.3zM286.154 126.843c-4.153-.026-7.619.4-10.399 1.276-2.78.876-4.848 2.762-6.206 5.656h9.203c3.292 0 5.76-2.31 7.402-6.932zM280.37 113.504c-.71-4.498-2.164-7.823-4.363-9.973-2.2-2.15-5.406-3.501-9.62-4.051.502 3.988 2.335 7.205 5.499 9.65 3.163 2.447 5.992 3.905 8.485 4.374z"/>
        </g>
    </g>
</svg>
