<svg xmlns="http://www.w3.org/2000/svg" width="18" height="18" viewBox="0 0 18 18">
    <g fill="none" fill-rule="evenodd">
        <circle cx="9" cy="9" r="9" fill="#EDEFF7"/>
        <path fill="#9096B2" d="M8.064 11.088v-.375c0-.43.079-.787.235-1.072.156-.286.43-.58.82-.885.465-.367.765-.652.9-.856.134-.203.202-.445.202-.726 0-.328-.11-.58-.328-.756-.22-.176-.534-.264-.944-.264-.37 0-.715.053-1.031.159a7.32 7.32 0 0 0-.926.38L6.5 5.663A5.158 5.158 0 0 1 9.049 5c.765 0 1.373.187 1.822.563.45.375.674.892.674 1.552 0 .293-.043.554-.129.782a2.245 2.245 0 0 1-.39.654c-.173.207-.473.476-.899.808-.363.286-.606.522-.73.71-.123.187-.184.439-.184.755v.264H8.064zm-.24 1.869c0-.59.287-.885.862-.885.28 0 .496.077.644.232.149.154.223.372.223.653 0 .277-.075.497-.226.66-.15.161-.364.242-.641.242-.278 0-.49-.079-.64-.237-.148-.158-.222-.38-.222-.665z"/>
    </g>
</svg>
