<svg xmlns="http://www.w3.org/2000/svg" xmlns:xlink="http://www.w3.org/1999/xlink" width="215" height="61" viewBox="0 0 215 61">
    <defs>
        <path id="a" d="M.225 75.839L57.28 23.853a21.281 21.281 0 0 1 14.333-5.55h2.757c3.517 0 6.895 1.372 9.415 3.825a13.502 13.502 0 0 0 9.416 3.824h42.285a24 24 0 0 0 12.677-3.621l7.592-4.723a24 24 0 0 1 12.677-3.621h1.368c5.25 0 10.27-2.16 13.878-5.974l.961-1.015A22.355 22.355 0 0 1 200.876.01h5.86c8.208 0 14.862 6.654 14.862 14.862 0 .203-.004.405-.012.607l-1.527 37.34c-.525 12.863-11.106 23.02-23.98 23.02H.225z"/>
        <path id="c" d="M.289 37.905l23.453-21.186a22.4 22.4 0 0 1 15.015-5.777h15.25a22.4 22.4 0 0 0 11.346-3.086l7.697-4.522A22.4 22.4 0 0 1 84.396.247h40.915a22.4 22.4 0 0 1 15.103 5.857l9.188 8.388a11 11 0 0 0 7.416 2.876h1.593a11 11 0 0 0 8.163-3.626l2.372-2.626a12.4 12.4 0 0 1 9.201-4.087h6.627a12.4 12.4 0 0 1 7.915 2.854l.33.274a12.4 12.4 0 0 0 7.914 2.854h3.304a12.4 12.4 0 0 1 7.723 2.699l27.879 22.195H.289z"/>
    </defs>
    <g fill="none" fill-rule="evenodd">
        <g transform="matrix(-1 0 0 1 231 0)">
            <mask id="b" fill="#fff">
                <use xlink:href="#a"/>
            </mask>
            <use fill="#FFF" xlink:href="#a"/>
            <path stroke="#FFDBF4" d="M219.91-1.434c-10.76 11.682-14.368 9.87-7.184 22.019 7.183 12.148 31.82 23.848 18.811 27.86-13.008 4.014-11.99-5.155-20.477-12.3-8.487-7.146-6.84-.076 1.666 12.3 8.505 12.377 36.482 50.71 9.175 23.931-27.308-26.78-41.144-39.61-31.585-45.7 9.559-6.091 21.867-11.703 9.372-11.703-12.495 0-27.441-4.988-26.075 3.357 1.366 8.345-.954 14.86 3.833 21.79 4.787 6.931 19.915 10.665 22.242 17.596 2.327 6.93 21.999 29.359-2.038 13.077-24.037-16.281-34.457-15.303-32.445-32.756 2.012-17.452 14.625-24.743 0-24.743-14.624 0-22.568-12.778-22.568 5.036s6.43 28.583-3.564 35.478c-9.994 6.895-22.247 28.836-22.247 3.908 0-24.928 7.518-29.19 0-34.288-7.518-5.098-4.415-10.196-10.299-5.098-5.884 5.098-6.912 4.101-3.456 11.904s3.456 6.823 3.456 9.887 3.512 6.636-3.456 11.282-5.454 7.366-5.454-6.085c0-13.45 2.19-21.89-3.964-21.89s-.459 1.243-3.306 14.61c-2.848 13.365-4.9 12.763-11.942 19.678-7.042 6.915-13.616 22.33-11.86 11.165 1.757-11.165-.42-13.453 8.404-20.435 8.823-6.983 13.828-10.409 0-10.409s-21.017-2.323-12.493-5.063c8.525-2.74 19.405 7.082 15.949-6.299-3.456-13.38-21.573-12.792-23.702-3.247-2.13 9.546 3.865 17.992 3.865 25.018 0 7.025-5.573 10.734-8.583 13.42-3.011 2.687-13.792 7.566-5.736 10.51 8.056 2.944 7.23 36.154-1.792 15.612-9.023-20.543-7.347-21.757-2.777-32.213 3.046-6.971 3.046-12.19 0-15.654" mask="url(#b)"/>
        </g>
        <path fill="#C297FB" d="M47.44 67.889l.246-.906A20 20 0 0 1 66.99 52.217H98.02a20 20 0 0 0 13.735-5.463l2.491-2.353a20 20 0 0 1 13.735-5.462h22.228a20 20 0 0 1 12.712 4.56l52.147 42.933-155.641-2.6c-6.979-.116-12.542-5.868-12.425-12.847.017-1.046.165-2.086.438-3.096z"/>
        <g transform="translate(-45 36.94)">
            <mask id="d" fill="#fff">
                <use xlink:href="#c"/>
            </mask>
            <use fill="#E6DBFF" xlink:href="#c"/>
            <path stroke="#B93CF6" stroke-linecap="round" stroke-linejoin="round" stroke-width="1.12" d="M358.984 39.672c-10.94-5.673-19.194-9.435-24.759-11.286-8.348-2.776-8.145-6.64-16.392-6.64-8.248 0-12.247 4.306-15.892 2.153-3.645-2.154-2.691-3.434-11.64-9.78-8.95-6.344-14.176-7.488-16.14-5.926-1.964 1.56 14.665 15.992 14.665 20.193 0 4.202-7.925 7.662-16.263 4.768-8.337-2.893-3.39-3.718-12.134-9.255-8.743-5.537-18.535-11.862-20.013-9.78-1.477 2.083-10.52.524-1.448 9.78 9.071 9.255 26.2 10.982 20.08 13.377-6.12 2.396-9.286 4.122-14.683 0s-9.6-11.342-17.016-19.227c-7.416-7.885-11.678-12.272-15.028-12.272-3.35 0-23.988-10.692 0 8.343 23.987 19.034 30.878 23.102 29.486 25.552-1.39 2.449-11.856-1.75-14.458-6.518-2.601-4.768-2.424-4.54-10.03-9.255-7.607-4.716-9.09-9.78-13.755-9.78-4.666 0-7.94-1.198-9.873-1.198h-13.403c-3.95 0-24.016-8.58-11.301 1.199 12.715 9.779 18.11 7.468 24.704 7.468 6.594 0 16.813-.962 16.813 2.31 0 3.273-5.256 5.704-12.813 4.488-7.557-1.215-12.574-6.562-12.574-1.597 0 4.964 32.483 10.487 34.486 10.487s7.671 5.103 1.209 5.103c-6.463 0-19.972.06-27.121-3.871-7.15-3.932-6.681-3.208-10.042-6.665-3.361-3.457 9.512-.847-5.413-5.054-14.924-4.207-16.26-5.981-18.47-7.36-2.209-1.38-.445-3.983-5.072-3.983-4.626 0-10.247 3.965-1.887 8.453 8.36 4.487 15.778 7.62 8.832 9.255-6.945 1.636-14.264 4.768-21.139 0-6.874-4.768-9.086-2.158-9.086-6.365 0-4.207.99-3.04-3.109-5.2-4.098-2.16 5.812-9.39 8.415-3.54 2.602 5.85 10.475 20.082 7.128 8.74-3.348-11.343-.416-14.229-7.128-18.596-6.712-4.368 2.502-7.278-8.415-4.847-10.917 2.431-6.6 18.388-5.047 23.443 1.553 5.054 8.414 10.554 1.771 11.719-6.642 1.164-4.852-1.726-4.852-1.726s-6.244-4.144-6.244-12.883c0-8.74-1.574-4.462-5.149-8.453-3.575-3.992-5.177-7.253-10.38-7.253H84.747c-8.108 0-43.37 4.007-43.37 9.856 0 5.85 4.576 14.397 6.933 17.428 2.356 3.03-5.161 12.295-6.933 13.692-1.771 1.396 52.554 51.636 39.612 15.427-12.942-36.21-29.071-39.469-16.376-43.008 12.696-3.539 19.61-7.194 25.021 6.798 5.411 13.993 12.13 9.745 8.77-1.597-3.359-11.343-5.093 16.649 18.501 27.228C140.5 64.596 371.343 92.008 342.36 70.588c-28.982-21.42 86.827 37.06 48.216-11.467-38.611-48.529-148.841-114.732-139.494-80.466 9.347 34.266 5.184 36.575-9.275 24.691-14.458-11.883-27.33-14.592-22.204-7.296 5.126 7.296-9.935 3.488-19.155-2.12-9.219-5.607-116.01 9.416-154.589 9.416" mask="url(#d)"/>
        </g>
        <path stroke="#B93CF6" stroke-width="1.12" d="M182.384 64.903c-5.497-9.916-7.528-19.08-6.093-27.493"/>
        <path fill="#FFA3E3" d="M178.78 56.96c-1.626-1.34-3.445-1.923-5.456-1.747-2.01.177-3.533.92-4.567 2.231.972.997 2.714 1.361 5.224 1.092 2.51-.268 4.11-.794 4.798-1.575zM180.098 58.173c.877-1.852 2.38-3.367 4.507-4.547 2.127-1.179 3.831-1.44 5.114-.786a11.7 11.7 0 0 1-3.989 3.592c-1.616.896-3.493 1.477-5.632 1.741zM176.488 51.955c-.677-1.153-1.713-2.085-3.11-2.795-1.397-.711-2.787-.72-4.172-.029 1.322 1.226 2.521 2 3.6 2.32 1.077.322 2.305.49 3.682.504zM177.271 50.8c.52-1.545 1.34-2.822 2.459-3.833 1.119-1.01 2.457-1.34 4.015-.99-.561 1.679-1.435 2.848-2.621 3.505a11.67 11.67 0 0 1-3.853 1.317zM175.223 42.315c-.699-.735-1.432-1.31-2.2-1.728-.766-.417-1.844-.362-3.232.166.6 1.205 1.406 1.87 2.417 1.994 1.011.124 2.016-.02 3.015-.432zM176.315 42.986c1.09-.612 2.062-1.011 2.917-1.196.855-.184 1.663-.01 2.425.521l-2.423 1.344c-.867.48-1.84.258-2.92-.669zM175.909 37.576c-.4-1.245-.405-2.327-.014-3.244.39-.918 1.206-1.81 2.448-2.678.394 1.082.266 2.202-.385 3.36-.652 1.159-1.334 2.013-2.05 2.562z"/>
        <g>
            <path fill="#000" d="M47.807 67.58c-10.866 3.04-17.986 3.672-21.36 1.893-5.062-2.667-6.513-6.748-6.433-7.395.08-.647 4.494-2.238 3.732-3.27-.762-1.031-3.84.58-4.63.483-.792-.097-2.76-7.778-2.634-8.804.125-1.026 10.36-3.633 9.565-5.198-.794-1.564-10.12 3.513-10.58 2.713-.458-.8-1.3-4.217-1.248-4.645.053-.427 5.468-1.563 5.144-2.695-.324-1.132-5.396-.662-5.813-.714-.418-.051-.795-3.647-.795-3.647s6.6-1.238 6.217-2.111c-.382-.873-6.44.035-6.749-.829-.31-.864-.58-4.194-.273-4.79.306-.598 3.587.149 3.15-1.248-.437-1.396-2.852-.494-3.113-1.126-.261-.63-.37-7.932.253-8.702.622-.77 8.708.6 8.652 1.063-.057.462-1.36 5.652-.055 6.096 1.305.444 1.746-5.276 2.135-5.228.389.048 4.188 2.094 4.623 2.148.434.053-1.793 3.912-1.232 4.688.56.776 1.845-4.044 2.507-3.963.662.082 3.972 1.645 4.351 1.984.38.34-2.463 3.845-1.8 4.681.662.836 2.453-3.631 3.26-3.532.805.099 2.585 1.353 2.487 2.157-.1.804-3.64 6.261-2.575 7.65 1.065 1.389 4.08-7.086 5.223-6.485 1.144.6 5.138 3.866 5.322 4.47.184.605-3.967 5.494-3.388 6.637.58 1.143 4.661-5.127 5.152-5.067.281.034 1.608 1.596 2.779 4.022.132.273-2.073 1.88-2.597 2.814-.65 1.158-.244 1.986.488 2.076.732.09 3.236-2.05 3.363-1.603.296 1.046.646 4.691.739 5.853.31 3.901-.98 10.442-3.867 19.624zm-19.769-9.903c.657 1.454 5.183-1.694 4.466-3.118-.717-1.424-5.123 1.665-4.466 3.118zm-4.854-4.288c.355.044 3.143-1.532 3.732-2.267.589-.735-.385-.92-.895-1.204-.509-.284-3.091.954-3.505 1.676-.413.723.313 1.752.668 1.795zm-2.356-13.598c-.182.33.076 1.564.623 1.798.547.234 2.19-.682 2.526-1.186.338-.504-.253-1.425-.65-1.474-.398-.049-2.316.53-2.499.862zm10.017-8.922c-.245-.643-.425-.927-.808-.974-.383-.047-1.886 2.188-2.156 2.903-.27.715.153 1.537.677 1.38.523-.158 2.532-2.666 2.287-3.31zm4.746 12.002c.252.289.668.701 1.088.753.42.051 2.004-2.9 2.122-3.864.118-.963-.777-1.397-1.323-1.068-.546.328-2.138 3.89-1.887 4.179z"/>
            <path fill="#C297FB" d="M48.52 67.462c-10.715 3.821-17.832 4.957-21.352 3.406-5.279-2.326-7.024-6.328-6.99-6.984.035-.657 4.363-2.567 3.524-3.55-.84-.985-3.82.852-4.623.81-.803-.042-3.324-7.628-3.27-8.669.055-1.04 10.165-4.38 9.257-5.898-.91-1.518-9.933 4.243-10.45 3.471-.518-.771-1.606-4.15-1.583-4.583.023-.433 5.39-1.956 4.984-3.072-.405-1.115-5.474-.287-5.897-.309-.424-.022-1.056-3.612-1.056-3.612s6.55-1.709 6.105-2.56c-.447-.85-6.475.489-6.847-.358-.372-.847-.879-4.177-.612-4.799.266-.622 3.618-.102 3.08-1.475-.537-1.374-2.903-.297-3.21-.914-.306-.616-.929-7.95-.357-8.768.572-.818 8.801-.009 8.777.46-.025.468-.97 5.78.373 6.134 1.344.355 1.385-5.428 1.78-5.407.395.02 4.36 1.811 4.8 1.834.442.024-1.527 4.06-.908 4.802.618.74 1.571-4.197 2.243-4.161.67.035 4.11 1.374 4.516 1.689.405.314-2.208 4.04-1.482 4.834.725.794 2.212-3.825 3.03-3.782.817.043 2.696 1.179 2.653 1.994-.042.816-3.22 6.552-2.05 7.874 1.168 1.322 3.604-7.412 4.797-6.889 1.192.524 5.44 3.528 5.667 4.123.227.594-3.604 5.803-2.94 6.91.662 1.11 4.326-5.483 4.825-5.457.285.015 1.729 1.492 3.077 3.85.152.265-1.952 2.035-2.414 3.012-.571 1.21-.105 2.015.637 2.053.743.04 3.111-2.288 3.27-1.848.371 1.03.98 4.672 1.155 5.834.586 3.9-.25 10.569-2.51 20.005zm-20.58-8.568c.763 1.415 5.093-2.068 4.272-3.45-.822-1.382-5.035 2.035-4.272 3.45zm-5.185-3.97c.36.018 3.054-1.763 3.595-2.543.54-.78-.453-.899-.985-1.149s-3.042 1.177-3.407 1.933c-.365.755.437 1.74.797 1.758zm-3.325-13.51c-.16.346.186 1.568.752 1.765.566.197 2.154-.84 2.458-1.37.304-.53-.355-1.416-.758-1.437-.404-.021-2.292.697-2.452 1.042zm9.447-9.676c-.292-.629-.493-.902-.882-.923-.388-.02-1.742 2.334-1.963 3.072-.222.738.261 1.534.777 1.34.515-.196 2.36-2.86 2.068-3.489zm5.618 11.735c.273.274.72.659 1.147.681.426.023 1.811-3.057 1.863-4.034.05-.977-.88-1.35-1.406-.982-.526.37-1.877 4.062-1.604 4.335z"/>
            <path stroke="#FFF" stroke-linecap="round" stroke-width="1.12" d="M9.099 19.088c6.669 9.062 19.79 25.818 29.936 37.424 6.763 7.738 16.092 16.72 27.987 26.945"/>
            <g>
                <path fill="#000" d="M49.42 72.068c10.593 2.707 17.544 3.232 20.855 1.577 4.965-2.484 6.412-6.238 6.34-6.83-.073-.593-4.375-2.02-3.622-2.971.752-.952 3.746.503 4.52.408.774-.095 2.755-7.154 2.64-8.094-.116-.94-10.095-3.254-9.308-4.695.788-1.44 9.862 3.146 10.316 2.409.454-.737 1.303-3.878 1.255-4.269-.049-.391-5.33-1.393-5.006-2.434.325-1.04 5.277-.647 5.685-.698.408-.05.804-3.35.804-3.35s-6.439-1.087-6.059-1.89c.38-.803 6.292-.016 6.6-.81.31-.795.599-3.85.304-4.396-.296-.545-3.506.164-3.07-1.12.438-1.284 2.791-.475 3.05-1.056.26-.58.42-7.277-.182-7.978-.602-.702-8.512.615-8.46 1.039.052.423 1.286 5.173.008 5.59-1.278.417-1.666-4.825-2.047-4.778-.38.046-4.107 1.951-4.532 2.003-.425.053 1.722 3.575 1.168 4.291-.553.716-1.772-3.695-2.42-3.615-.647.079-3.893 1.537-4.266 1.851-.373.314 2.378 3.508 1.725 4.28-.654.772-2.37-3.312-3.159-3.215-.788.097-2.536 1.26-2.446 1.996.09.737 3.509 5.715 2.458 6.997-1.05 1.281-3.933-6.468-5.054-5.909-1.122.56-5.049 3.585-5.233 4.14-.184.556 3.835 5.009 3.26 6.061-.574 1.052-4.515-4.667-4.995-4.608-.275.033-1.583 1.475-2.745 3.709-.13.251 2.011 1.708 2.516 2.562.626 1.057.224 1.82-.492 1.907-.716.088-3.147-1.856-3.274-1.445-.297.96-.666 4.307-.765 5.373-.332 3.58.878 9.569 3.631 17.968zm19.388-9.23c-.653 1.338-5.05-1.515-4.34-2.826.711-1.311 4.992 1.49 4.34 2.827zm4.774-3.968c-.347.042-3.06-1.382-3.629-2.052-.57-.67.384-.847.883-1.11.5-.265 3.013.851 3.412 1.51.399.66-.319 1.61-.666 1.652zm2.403-12.489c.176.303-.085 1.435-.621 1.654-.536.219-2.134-.61-2.46-1.069-.326-.459.258-1.309.647-1.356.389-.048 2.259.47 2.434.771zm-9.72-8.107c.245-.591.423-.853.798-.9.374-.045 1.825 1.994 2.084 2.648.258.653-.16 1.41-.671 1.27-.51-.14-2.455-2.426-2.21-3.018zM61.54 49.316c-.248.267-.657.649-1.068.699-.411.05-1.936-2.644-2.045-3.527-.108-.883.77-1.288 1.3-.99.532.297 2.06 3.551 1.813 3.818z"/>
                <path fill="#FFA3E3" d="M49.3 71.11c10.72 2.15 17.69 2.31 20.91.484 4.828-2.74 6.077-6.564 5.973-7.152-.104-.588-4.474-1.788-3.772-2.777.701-.99 3.767.306 4.535.17.767-.135 2.376-7.288 2.212-8.22-.165-.933-10.251-2.722-9.54-4.202.711-1.48 10.013 2.625 10.428 1.866.415-.76 1.098-3.94 1.03-4.329-.07-.388-5.397-1.112-5.127-2.168.27-1.056 5.236-.923 5.64-.995.406-.071.628-3.388.628-3.388s-6.487-.748-6.149-1.57c.338-.822 6.282-.345 6.549-1.155.267-.81.396-3.876.072-4.405-.323-.53-3.492.347-3.123-.958.37-1.305 2.762-.62 2.99-1.214.23-.594.039-7.29-.6-7.958-.637-.669-8.468 1.06-8.393 1.48.074.42 1.555 5.1.3 5.582-1.255.483-1.917-4.73-2.294-4.664-.378.066-4 2.164-4.421 2.238-.422.074 1.906 3.48 1.391 4.224-.515.743-1.964-3.597-2.606-3.484-.642.113-3.807 1.74-4.163 2.072-.356.333 2.559 3.379 1.946 4.184-.612.805-2.54-3.184-3.322-3.046-.782.138-2.467 1.391-2.339 2.122.13.731 3.803 5.524 2.821 6.858-.982 1.335-4.266-6.253-5.357-5.635-1.09.617-4.854 3.843-5.008 4.408-.155.565 4.091 4.8 3.572 5.882-.518 1.08-4.753-4.425-5.23-4.341-.272.048-1.503 1.556-2.546 3.847-.117.259 2.098 1.601 2.647 2.427.68 1.023.318 1.806-.392 1.93-.71.126-3.24-1.688-3.345-1.271-.246.975-.44 4.336-.483 5.406-.144 3.592 1.378 9.51 4.567 17.753zm18.878-10.23c-.581 1.37-5.122-1.25-4.48-2.596.64-1.347 5.062 1.226 4.48 2.596zm4.561-4.214c-.344.061-3.128-1.22-3.732-1.858-.604-.64.339-.866.824-1.156.485-.29 3.054.693 3.486 1.33.433.638-.234 1.624-.578 1.684zm1.746-12.597c.191.293-.01 1.438-.534 1.684-.524.247-2.163-.496-2.512-.938-.35-.442.19-1.32.575-1.389.385-.068 2.28.35 2.471.643zm-10.13-7.587c.213-.603.377-.874.748-.94.372-.065 1.928 1.895 2.22 2.534.292.64-.087 1.417-.603 1.303-.517-.113-2.579-2.294-2.365-2.897zm-4.143 11.274c-.233.28-.622.682-1.03.754-.408.072-2.072-2.54-2.226-3.415-.155-.876.701-1.326 1.247-1.057.545.27 2.243 3.438 2.01 3.718z"/>
                <path stroke="#74125D" stroke-linecap="round" stroke-width=".8" d="M81.876 23.172c-5.399 9.054-16.139 25.887-24.59 37.675-5.634 7.859-13.59 17.158-23.869 27.898"/>
            </g>
        </g>
    </g>
</svg>
