<svg xmlns="http://www.w3.org/2000/svg" xmlns:xlink="http://www.w3.org/1999/xlink" width="280" height="87" viewBox="0 0 280 87">
    <defs>
        <path id="a" d="M.305 108.525l82.129-78.983a12 12 0 0 1 8.318-3.35H103.2a12 12 0 0 1 8.597 3.628l3.593 3.69a12 12 0 0 0 8.597 3.628h65.407a12 12 0 0 0 6.587-1.97l20.08-13.184a12 12 0 0 1 6.586-1.969h13.356a12 12 0 0 0 8.934-3.989L255.72 4.003a12 12 0 0 1 8.934-3.989h24.15c6.627 0 12 5.373 12 12a12 12 0 0 1-.009.464l-3.273 84.511c-.25 6.442-5.545 11.536-11.991 11.536H.305z"/>
        <path id="c" d="M.391 54.241l37.225-35.49a11.2 11.2 0 0 1 7.728-3.093H78.29a11.2 11.2 0 0 0 5.902-1.681L103.45 2.035a11.2 11.2 0 0 1 5.902-1.68h67.8a11.2 11.2 0 0 1 7.772 3.134L205.5 23.314a5.5 5.5 0 0 0 3.816 1.54h9.818a5.5 5.5 0 0 0 4.178-1.924l9.161-10.704a6.2 6.2 0 0 1 4.71-2.168h17.333a6.2 6.2 0 0 1 4.083 1.534l6.275 5.492a6.2 6.2 0 0 0 4.083 1.534h11.827a6.2 6.2 0 0 1 3.989 1.454l40.664 34.17H.391z"/>
        <path id="e" d="M46.843 95.495c11.261-2.8 17.153-8.922 17.677-18.368.785-14.168-13.047-20.724-17.677-28.92-4.63-8.198-2.266-14.034-5.817-22.372-3.551-8.339-10.443-2.763-15.318-15.311C20.834-2.024 11.444.53 6.798 1.704 2.152 2.876-2.752 6.721 3.2 22.15c5.953 15.428 1.126 19.57 2.362 26.784 1.236 7.216 7.96 8.324 6.818 17.191-1.142 8.868 1.582 21.758 12.542 26.19 7.307 2.955 14.614 4.014 21.921 3.179z"/>
    </defs>
    <g fill="none" fill-rule="evenodd">
        <g transform="matrix(-1 0 0 1 280 .5)">
            <mask id="b" fill="#fff">
                <use xlink:href="#a"/>
            </mask>
            <use fill="#FFF" xlink:href="#a"/>
            <path stroke="#FFDBF4" stroke-width=".5" d="M287.3-4.914c-14.588 16.717-19.478 14.124-9.739 31.508 9.74 17.384 43.14 34.127 25.504 39.87-17.636 5.742-16.255-7.379-27.762-17.604-11.507-10.225-9.273-.107 2.258 17.604 11.531 17.71 49.461 72.566 12.439 34.244s-55.782-56.682-42.822-65.398c12.96-8.716 29.647-16.746 12.707-16.746-16.94 0-37.204-7.138-35.352 4.804 1.852 11.942-1.293 21.265 5.197 31.183 6.49 9.917 27 15.26 30.155 25.178 3.154 9.918 29.825 42.013-2.763 18.714-32.589-23.299-46.716-21.9-43.988-46.874 2.728-24.975 19.828-35.407 0-35.407s-30.597-18.286-30.597 7.206 8.718 40.902-4.832 50.769c-13.55 9.866-30.162 41.265-30.162 5.592 0-35.672 10.193-41.77 0-49.065-10.193-7.296-5.985-14.591-13.963-7.296-7.978 7.296-9.371 5.869-4.686 17.035 4.686 11.166 4.686 9.763 4.686 14.148 0 4.384 4.761 9.496-4.686 16.145-9.446 6.648-7.394 10.54-7.394-8.708 0-19.248 2.969-31.324-5.375-31.324-8.343 0-.621 1.779-4.482 20.905-3.861 19.127-6.643 18.266-16.19 28.16-9.547 9.895-18.46 31.955-16.079 15.978 2.381-15.978-.569-19.251 11.393-29.243 11.963-9.993 18.748-14.895 0-14.895-18.747 0-28.494-3.325-16.937-7.245 11.558-3.92 26.308 10.134 21.623-9.014-4.686-19.148-29.249-18.306-32.135-4.646-2.886 13.66 5.24 25.746 5.24 35.8 0 10.053-7.555 15.36-11.637 19.204-4.081 3.845-18.698 10.827-7.776 15.04 10.923 4.213 9.803 51.736-2.43 22.34-12.233-29.396-9.96-31.133-3.765-46.097 4.13-9.975 4.13-17.442 0-22.4" mask="url(#b)"/>
        </g>
        <path fill="#C297FB" d="M-19.336 102.09l6.442-25.078A10 10 0 0 1-3.208 69.5h61.706a10 10 0 0 0 7.062-2.919L78.758 53.42A10 10 0 0 1 85.82 50.5h42.773a10 10 0 0 1 6.56 2.452l75.386 65.51-220.366-3.885c-5.522-.097-9.92-4.653-9.822-10.175a10 10 0 0 1 .313-2.312z"/>
        <g transform="translate(-142.567 59.94)">
            <mask id="d" fill="#fff">
                <use xlink:href="#c"/>
            </mask>
            <use fill="#E6DBFF" xlink:href="#c"/>
            <path stroke="#B93CF6" stroke-linecap="round" stroke-linejoin="round" stroke-width=".56" d="M486.7 58.201c-14.834-8.118-26.023-13.501-33.568-16.15-11.317-3.972-11.042-9.502-22.224-9.502s-16.604 6.162-21.545 3.08c-4.942-3.08-3.65-4.913-15.782-13.993-12.133-9.08-19.219-10.715-21.882-8.481-2.663 2.234 19.882 22.885 19.882 28.897 0 6.012-10.745 10.963-22.048 6.823-11.304-4.14-4.597-5.322-16.451-13.245-11.854-7.923-25.13-16.974-27.133-13.994-2.003 2.98-14.262.749-1.964 13.994 12.299 13.245 35.523 15.716 27.224 19.143-8.298 3.428-12.59 5.899-19.907 0-7.317-5.898-13.014-16.23-23.069-27.514C298.178 15.976 292.4 9.7 287.858 9.7s-32.522-15.301 0 11.937c32.522 27.239 41.863 33.06 39.977 36.565-1.886 3.505-16.075-2.503-19.602-9.326-3.527-6.823-3.287-6.497-13.6-13.245-10.312-6.748-12.322-13.994-18.648-13.994-6.326 0-10.763-1.716-13.385-1.716h-18.171c-5.356 0-32.56-12.278-15.322 1.716 17.24 13.994 24.552 10.688 33.493 10.688 8.94 0 22.795-1.377 22.795 3.306 0 4.682-7.126 8.161-17.372 6.422-10.245-1.74-17.047-9.391-17.047-2.287 0 7.105 44.04 15.008 46.755 15.008 2.716 0 10.4 7.302 1.639 7.302-8.762 0-27.077.086-36.77-5.54-9.693-5.626-9.058-4.59-13.614-9.537-4.557-4.946 12.896-1.213-7.339-7.233-20.234-6.02-22.044-8.558-25.04-10.532-2.995-1.974-.605-5.7-6.878-5.7-6.272 0-13.892 5.675-2.558 12.097s21.39 10.905 11.975 13.245c-9.417 2.34-19.34 6.823-28.66 0s-12.32-3.09-12.32-9.11 1.343-4.35-4.214-7.441 7.88-13.435 11.408-5.065c3.529 8.37 14.203 28.738 9.664 12.506-4.538-16.231-.564-20.36-9.664-26.61s3.393-10.414-11.408-6.936c-14.8 3.48-8.948 26.313-6.843 33.546 2.106 7.233 11.407 15.104 2.402 16.77-9.005 1.666-6.579-2.47-6.579-2.47s-8.465-5.93-8.465-18.435c0-12.506-2.134-6.385-6.98-12.096-4.848-5.712-7.02-10.38-14.073-10.38h-18.517c-10.992 0-58.799 5.735-58.799 14.105 0 8.37 6.204 20.601 9.399 24.939 3.195 4.337-6.997 17.594-9.399 19.593-2.402 1.999 71.251 73.891 53.704 22.076C92.256 42.052 70.39 37.388 87.601 32.324c17.212-5.065 26.586-10.295 33.922 9.728 7.336 20.023 16.445 13.945 11.89-2.287-4.554-16.231-6.905 23.825 25.084 38.964 31.99 15.138 344.958 54.365 305.665 23.714-39.294-30.652 117.716 53.033 65.369-16.41C477.183 16.588 327.737-78.149 340.409-29.115c12.673 49.034 7.028 52.339-12.574 35.333-19.602-17.005-37.053-20.881-30.104-10.44 6.95 10.44-13.47 4.99-25.97-3.034C259.263-15.279 114.478 6.22 62.175 6.22" mask="url(#d)"/>
        </g>
        <path fill="#000" d="M-16.745 60.157c3.065-19.639 7.004-31.82 11.816-36.545C2.289 16.525 9.06 16.17 9.923 16.629c.863.459.123 8.618 2.103 7.87 1.98-.75 1.783-6.69 2.458-7.96.675-1.269 12.903-.67 14.272.058 1.37.728-1.882 19.096.876 18.562 2.757-.533 1.89-18.636 3.335-18.996 1.445-.36 6.863-.038 7.433.265.57.303-1.494 9.9.33 9.932 1.825.032 4.603-8.656 4.959-9.326.356-.67 5.711.518 5.711.518s-2.725 11.622-1.228 11.425c1.498-.197 4.322-10.747 5.757-10.827 1.435-.08 6.34 1.151 6.978 1.964.639.813-2.647 5.9-.37 5.879 2.276-.022 2.637-4.502 3.71-4.618 1.072-.116 11.497 3.39 12.166 4.816.67 1.426-6.763 14.206-7.38 13.878-.615-.327-7.09-5.12-8.606-3.17-1.515 1.95 6.295 5.574 5.963 6.198-.332.624-5.812 5.92-6.183 6.617-.37.698-4.33-4.962-5.811-4.42-1.481.543 4.481 5.117 3.917 6.179-.565 1.061-5.029 5.787-5.767 6.248-.739.461-3.78-6.047-5.415-5.365-1.635.682 3.483 5.923 2.796 7.215-.688 1.293-3.674 3.626-4.747 3.056-1.073-.571-6.407-9.226-9.099-8.153-2.692 1.073 7.277 10.375 5.65 11.978-1.628 1.602-8.971 6.607-9.953 6.608-.982.002-5.096-9.383-7.11-8.995-2.013.388 4.107 10.354 3.688 11.142-.24.451-3.354 1.873-7.588 2.598-.478.082-1.259-4.402-2.229-5.748-1.2-1.666-2.65-1.409-3.274-.235-.625 1.174.709 6.427-.01 6.413-1.683-.035-7.09-1.292-8.8-1.725-5.742-1.454-14.141-6.905-25.2-16.353zm27.46-27.936c-2.506.361-1.115 9.49 1.391 9.015 2.506-.475 1.116-9.376-1.39-9.015zm9.376-5.923c-.303.57.039 6.011.681 7.364.643 1.352 1.567-.178 2.315-.883.748-.705.746-5.632.002-6.686-.743-1.054-2.695-.364-2.998.205zm20.88 2.943c-.346-.47-2.269-.664-2.972.129-.703.793-.519 3.992-.034 4.809.485.816 2.193.297 2.532-.34.339-.638.82-4.127.474-4.598zm5.85 21.195c1.078-.084 1.604-.24 1.93-.855.327-.614-1.823-4.246-2.653-5.058-.83-.81-2.283-.52-2.415.43-.132.952 2.06 5.567 3.138 5.483zm-20.239 1.847c-.58.273-1.448.758-1.806 1.432-.358.674 2.751 4.803 4.037 5.486 1.287.684 2.51-.589 2.414-1.664-.096-1.076-4.064-5.527-4.645-5.254z"/>
        <path fill="#C297FB" d="M-14.265 64.132c.302-19.874 2.507-32.486 6.614-37.834 6.161-8.022 12.817-9.317 13.736-8.982.919.334 1.32 8.517 3.177 7.5 1.857-1.017.836-6.873 1.327-8.223.492-1.351 12.684-2.46 14.142-1.93 1.457.53.794 19.172 3.45 18.26 2.657-.912-.722-18.718.66-19.276 1.38-.557 6.79-.992 7.397-.771.606.22-.103 10.01 1.709 9.788 1.811-.222 3.353-9.211 3.612-9.924.26-.713 5.728-.283 5.728-.283s-1.081 11.888.374 11.485c1.456-.403 2.784-11.244 4.194-11.522 1.41-.279 6.439.257 7.184.973.745.716-1.8 6.212.451 5.873 2.251-.338 1.985-4.825 3.03-5.09 1.046-.263 11.858 1.758 12.72 3.077.86 1.319-4.72 15.009-5.376 14.77-.657-.239-7.736-4.084-8.965-1.941-1.228 2.142 7.01 4.643 6.768 5.307-.242.664-4.932 6.671-5.202 7.414-.27.742-4.979-4.312-6.37-3.568-1.391.743 5.15 4.443 4.739 5.573-.412 1.13-4.174 6.43-4.842 6.99-.667.56-4.584-5.462-6.108-4.56-1.525.904 4.273 5.381 3.772 6.757-.5 1.375-3.133 4.101-4.275 3.686-1.142-.416-7.629-8.244-10.145-6.807-2.516 1.437 8.65 9.261 7.262 11.075-1.39 1.813-7.964 7.792-8.936 7.93-.973.137-6.353-8.584-8.292-7.92-1.94.665 5.507 9.683 5.202 10.522-.175.48-3.061 2.321-7.153 3.629-.461.147-1.859-4.185-3.007-5.383-1.42-1.483-2.82-1.026-3.275.223-.455 1.25 1.596 6.266.882 6.352-1.671.2-7.2-.293-8.955-.483-5.887-.64-14.964-4.87-27.23-12.687zM9.04 32.646c-2.432.706.216 9.553 2.631 8.734 2.416-.82-.2-9.44-2.631-8.734zm8.46-7.17c-.22.606.875 5.947 1.7 7.197.823 1.25 1.526-.394 2.169-1.196.642-.802-.045-5.681-.929-6.621-.883-.94-2.72.014-2.94.62zm21.086.008c-.408-.418-2.339-.341-2.925.542-.586.883.042 4.025.636 4.766.594.741 2.213-.01 2.46-.69.247-.677.237-4.2-.171-4.618zm8.743 20.175c1.056-.234 1.555-.461 1.792-1.115.238-.654-2.396-3.952-3.331-4.64-.936-.687-2.333-.198-2.332.763.002.96 2.816 5.225 3.871 4.992zm-19.785 4.645c-.537.352-1.328.953-1.59 1.67-.26.717 3.394 4.373 4.763 4.871 1.368.498 2.402-.933 2.158-1.984-.245-1.052-4.793-4.908-5.33-4.557z"/>
        <path stroke="#FFF" stroke-linecap="round" stroke-width=".56" d="M75.157 17.39c-16.622 7.47-47.774 22.622-69.92 34.911-14.762 8.194-32.688 20.214-53.777 36.06"/>
        <g transform="scale(-1 1) rotate(-25 18.502 284.453)">
            <mask id="f" fill="#fff">
                <use xlink:href="#e"/>
            </mask>
            <use fill="#FFA3E3" xlink:href="#e"/>
            <path stroke="#74125D" stroke-linecap="round" stroke-width=".5" d="M43.095 81.373L63.86 67.018M41.84 79.067l18.01-17.81M29.107 46.327L49.871 31.97M27.722 42.936l18.01-17.81M14.909 11.94L35.672-2.417M17.563 17.043L38.327 2.687M20.65 26.526H.116M21.978 30.025L2.492 31.67M30.18 49.348H2.5M31.124 52.746L4.552 54.39M39.002 73.676H10.43M35.274 63.224L7.817 64.87M13.523 8.548l18.011-17.81" mask="url(#f)"/>
            <path stroke="#74125D" stroke-linecap="round" stroke-width="1.5" d="M47.422 94.766C27.048 40.201 14.108 8.5 8.602-.337" mask="url(#f)"/>
        </g>
        <g>
            <path stroke="#B93CF6" stroke-width=".56" d="M192.161 106.134c0-19.236-4.145-34.506-12.436-45.81"/>
            <path fill="#FFA3E3" d="M190.309 80.604c.055-2.117.81-4.204 2.267-6.26 1.456-2.058 3.468-3.14 6.035-3.244-.932 2.713-2.052 4.706-3.359 5.979-1.306 1.273-2.954 2.448-4.943 3.525zM188.257 81.06c-1.87-1.658-3.947-2.744-6.23-3.259-2.283-.514-4.352.029-6.206 1.63 2.028 1.805 4.097 2.708 6.206 2.708s4.185-.36 6.23-1.08zM184.488 66.676c.355-1.493.858-2.8 1.51-3.921.651-1.12 1.999-1.842 4.043-2.164.082 2.046-.45 3.525-1.596 4.435-1.146.91-2.465 1.46-3.957 1.65zM183.077 67.421c-2.076-.012-3.81.2-5.2.639-1.39.438-2.424 1.38-3.102 2.827h4.6c1.647 0 2.88-1.155 3.702-3.466zM180.185 60.752c-.355-2.25-1.082-3.912-2.182-4.987-1.1-1.075-2.703-1.75-4.81-2.025.252 1.994 1.168 3.603 2.75 4.825 1.582 1.223 2.996 1.952 4.242 2.187z"/>
        </g>
    </g>
</svg>
