<svg xmlns="http://www.w3.org/2000/svg" xmlns:xlink="http://www.w3.org/1999/xlink" width="278" height="74" viewBox="0 0 278 74">
    <defs>
        <path id="a" d="M.225 75.839L57.28 23.853a21.281 21.281 0 0 1 14.333-5.55h2.757c3.517 0 6.895 1.372 9.415 3.825a13.502 13.502 0 0 0 9.416 3.824h42.285a24 24 0 0 0 12.677-3.621l7.592-4.723a24 24 0 0 1 12.677-3.621h1.368c5.25 0 10.27-2.16 13.878-5.974l.961-1.015A22.355 22.355 0 0 1 200.876.01h5.86c8.208 0 14.862 6.654 14.862 14.862 0 .203-.004.405-.012.607l-1.527 37.34c-.525 12.863-11.106 23.02-23.98 23.02H.225z"/>
        <path id="c" d="M.289 37.905l23.453-21.186a22.4 22.4 0 0 1 15.015-5.777h15.25a22.4 22.4 0 0 0 11.346-3.086l7.697-4.522A22.4 22.4 0 0 1 84.396.247h40.915a22.4 22.4 0 0 1 15.103 5.857l9.188 8.388a11 11 0 0 0 7.416 2.876h1.593a11 11 0 0 0 8.163-3.626l2.372-2.626a12.4 12.4 0 0 1 9.201-4.087h6.627a12.4 12.4 0 0 1 7.915 2.854l.33.274a12.4 12.4 0 0 0 7.914 2.854h3.304a12.4 12.4 0 0 1 7.723 2.699l27.879 22.195H.289z"/>
    </defs>
    <g fill="none" fill-rule="evenodd">
        <g transform="matrix(-1 0 0 1 280 0)">
            <mask id="b" fill="#fff">
                <use xlink:href="#a"/>
            </mask>
            <use fill="#FFF" xlink:href="#a"/>
            <path stroke="#FFDBF4" d="M211.91-3.434c-10.76 11.682-14.368 9.87-7.184 22.019 7.183 12.148 31.82 23.848 18.811 27.86-13.008 4.014-11.99-5.155-20.477-12.3-8.487-7.146-6.84-.076 1.666 12.3 8.505 12.377 36.482 50.71 9.175 23.931-27.308-26.78-41.144-39.61-31.585-45.7 9.559-6.091 21.867-11.703 9.372-11.703-12.495 0-27.441-4.988-26.075 3.357 1.366 8.345-.954 14.86 3.833 21.79 4.787 6.931 19.915 10.665 22.242 17.596 2.327 6.93 21.999 29.359-2.038 13.077-24.037-16.281-34.457-15.303-32.445-32.756 2.012-17.452 14.625-24.743 0-24.743-14.624 0-22.568-12.778-22.568 5.036s6.43 28.583-3.564 35.478c-9.994 6.895-22.247 28.836-22.247 3.908 0-24.928 7.518-29.19 0-34.288-7.518-5.098-4.415-10.196-10.299-5.098-5.884 5.098-6.912 4.101-3.456 11.904s3.456 6.823 3.456 9.887 3.512 6.636-3.456 11.282-5.454 7.366-5.454-6.085c0-13.45 2.19-21.89-3.964-21.89s-.459 1.243-3.306 14.61c-2.848 13.365-4.9 12.763-11.942 19.678-7.042 6.915-13.616 22.33-11.86 11.165 1.757-11.165-.42-13.453 8.404-20.435 8.823-6.983 13.828-10.409 0-10.409s-21.017-2.323-12.493-5.063c8.525-2.74 19.405 7.082 15.949-6.299-3.456-13.38-21.573-12.792-23.702-3.247-2.13 9.546 3.865 17.992 3.865 25.018 0 7.025-5.573 10.734-8.583 13.42-3.011 2.687-13.792 7.566-5.736 10.51 8.056 2.944 7.23 36.154-1.792 15.612-9.023-20.543-7.347-21.757-2.777-32.213 3.046-6.971 3.046-12.19 0-15.654" mask="url(#b)"/>
        </g>
        <path fill="#C297FB" d="M63.139 58.322l.245-.906A20 20 0 0 1 82.687 42.65h31.031a20 20 0 0 0 13.736-5.462l2.49-2.353a20 20 0 0 1 13.735-5.463h22.228a20 20 0 0 1 12.712 4.56l52.147 42.933-155.641-2.6c-6.979-.116-12.542-5.868-12.425-12.847.017-1.046.165-2.086.439-3.096z"/>
        <g transform="translate(-29.68 35.97)">
            <mask id="d" fill="#fff">
                <use xlink:href="#c"/>
            </mask>
            <use fill="#E6DBFF" xlink:href="#c"/>
            <path stroke="#B93CF6" stroke-linecap="round" stroke-linejoin="round" stroke-width="1.12" d="M358.984 40.672c-10.94-5.673-19.194-9.435-24.759-11.286-8.348-2.776-8.145-6.64-16.392-6.64-8.248 0-12.247 4.306-15.892 2.153-3.645-2.154-2.691-3.434-11.64-9.78-8.95-6.344-14.176-7.488-16.14-5.926-1.964 1.56 14.665 15.992 14.665 20.193 0 4.202-7.925 7.662-16.263 4.768-8.337-2.893-3.39-3.718-12.134-9.255-8.743-5.537-18.535-11.862-20.013-9.78-1.477 2.083-10.52.524-1.448 9.78 9.071 9.255 26.2 10.982 20.08 13.377-6.12 2.396-9.286 4.122-14.683 0s-9.6-11.342-17.016-19.227c-7.416-7.885-11.678-12.272-15.028-12.272-3.35 0-23.988-10.692 0 8.343 23.987 19.034 30.878 23.102 29.486 25.552-1.39 2.449-11.856-1.75-14.458-6.518-2.601-4.768-2.424-4.54-10.03-9.255-7.607-4.716-9.09-9.78-13.755-9.78-4.666 0-7.94-1.198-9.873-1.198h-13.403c-3.95 0-24.016-8.58-11.301 1.199 12.715 9.779 18.11 7.468 24.704 7.468 6.594 0 16.813-.962 16.813 2.31 0 3.273-5.256 5.704-12.813 4.488-7.557-1.215-12.574-6.562-12.574-1.597 0 4.964 32.483 10.487 34.486 10.487s7.671 5.103 1.209 5.103c-6.463 0-19.972.06-27.121-3.871-7.15-3.932-6.681-3.208-10.042-6.665-3.361-3.457 9.512-.847-5.413-5.054-14.924-4.207-16.26-5.981-18.47-7.36-2.209-1.38-.445-3.983-5.072-3.983-4.626 0-10.247 3.965-1.887 8.453 8.36 4.487 15.778 7.62 8.832 9.255-6.945 1.636-14.264 4.768-21.139 0-6.874-4.768-9.086-2.158-9.086-6.365 0-4.207.99-3.04-3.109-5.2-4.098-2.16 5.812-9.39 8.415-3.54 2.602 5.85 10.475 20.082 7.128 8.74-3.348-11.343-.416-14.229-7.128-18.596-6.712-4.368 2.502-7.278-8.415-4.847-10.917 2.431-6.6 18.388-5.047 23.443 1.553 5.054 8.414 10.554 1.771 11.719-6.642 1.164-4.852-1.726-4.852-1.726s-6.244-4.144-6.244-12.883c0-8.74-1.574-4.462-5.149-8.453-3.575-3.992-5.177-7.253-10.38-7.253H84.747c-8.108 0-43.37 4.007-43.37 9.856 0 5.85 4.576 14.397 6.933 17.428 2.356 3.03-5.161 12.295-6.933 13.692-1.771 1.396 52.554 51.636 39.612 15.427-12.942-36.21-29.071-39.469-16.376-43.008 12.696-3.539 19.61-7.194 25.021 6.798 5.411 13.993 12.13 9.745 8.77-1.597-3.359-11.343-5.093 16.649 18.501 27.228C140.5 65.596 371.343 93.008 342.36 71.588c-28.982-21.42 86.827 37.06 48.216-11.467-38.611-48.529-148.841-114.732-139.494-80.466 9.347 34.266 5.184 36.575-9.275 24.691-14.458-11.883-27.33-14.592-22.204-7.296 5.126 7.296-9.935 3.488-19.155-2.12-9.219-5.607-116.01 9.416-154.589 9.416" mask="url(#d)"/>
        </g>
        <path fill="#000" d="M87.851 77.394c-13.664 2.931-22.617 3.342-26.858 1.234-6.363-3.163-8.183-7.748-8.083-8.462.1-.714 5.653-2.3 4.695-3.474-.957-1.175-4.827.487-5.822.347-.994-.14-3.464-8.738-3.305-9.87.16-1.133 13.029-3.609 12.031-5.376-.997-1.767-12.728 3.485-13.304 2.58-.576-.906-1.632-4.73-1.566-5.202.066-.471 6.876-1.512 6.47-2.78-.407-1.269-6.784-.954-7.309-1.028-.525-.074-.997-4.077-.997-4.077s8.3-1.105 7.82-2.089c-.481-.983-8.098-.222-8.486-1.192-.389-.97-.727-4.674-.34-5.324.386-.65 4.51.31 3.962-1.255-.548-1.567-3.586-.665-3.913-1.375-.328-.71-.458-8.811.325-9.64.783-.829 10.948 1.019 10.877 1.529-.072.51-1.715 6.213-.074 6.758 1.64.545 2.2-5.78 2.689-5.71.489.068 5.263 2.491 5.81 2.568.547.077-2.257 4.266-1.552 5.15.704.883 2.323-4.41 3.155-4.294.832.117 4.993 1.985 5.47 2.377.477.391-3.1 4.164-2.268 5.118.832.954 3.088-3.928 4.101-3.785 1.013.142 3.25 1.605 3.126 2.492-.125.888-4.58 6.796-3.243 8.38 1.338 1.583 5.135-7.693 6.573-6.98 1.437.712 6.457 4.496 6.688 5.174.23.677-4.993 5.93-4.265 7.221.727 1.291 5.864-5.497 6.481-5.41.354.05 2.02 1.835 3.49 4.573.166.308-2.607 2-3.267 3.016-.817 1.257-.308 2.192.612 2.322.92.13 4.071-2.142 4.23-1.642.371 1.172.81 5.229.924 6.52.387 4.34-1.239 11.54-4.877 21.606zM63.003 65.611c.825 1.638 6.518-1.669 5.617-3.277-.9-1.608-6.442 1.64-5.617 3.277zm-6.1-4.952c.446.063 3.953-1.572 4.694-2.363.741-.791-.484-1.037-1.124-1.372-.64-.335-3.887.933-4.408 1.717-.52.785.392 1.955.838 2.018zm-2.951-15.175c-.23.36.094 1.737.78 2.019.688.282 2.754-.668 3.179-1.213.424-.545-.318-1.59-.818-1.66-.5-.071-2.912.494-3.141.854zm12.6-9.488c-.307-.723-.533-1.046-1.014-1.113-.482-.068-2.373 2.35-2.713 3.132-.34.782.191 1.71.85 1.557.657-.153 3.186-2.854 2.878-3.576zm5.96 13.501c.315.331.838.805 1.367.88.528.074 2.521-3.135 2.67-4.199.15-1.064-.976-1.581-1.662-1.238-.687.342-2.691 4.226-2.376 4.557z"/>
        <path fill="#C297FB" d="M90.034 74.866c-13.123 4.804-21.931 6.458-26.425 4.96-6.74-2.247-9.181-6.533-9.181-7.255 0-.72 5.277-3.064 4.166-4.094-1.112-1.03-4.713 1.155-5.718 1.155-1.004 0-4.646-8.17-4.646-9.315 0-1.144 12.4-5.387 11.166-6.998-1.234-1.61-12.12 5.223-12.816 4.406-.696-.816-2.275-4.456-2.275-4.933 0-.476 6.599-2.454 6.02-3.653-.58-1.2-6.85 0-7.38 0-.53 0-1.555-3.9-1.555-3.9s8.065-2.249 7.452-3.156c-.612-.907-8.049.907-8.569 0-.52-.907-1.37-4.527-1.078-5.225.292-.697 4.51-.32 3.75-1.794-.761-1.475-3.644-.159-4.067-.817-.424-.658-1.68-8.662-1.02-9.591.66-.93 10.984-.515 10.984 0s-.833 6.392.868 6.703c1.7.311 1.373-6.03 1.867-6.03s5.56 1.735 6.112 1.735c.552 0-1.641 4.539-.82 5.316.82.776 1.686-4.69 2.527-4.69.84 0 5.22 1.27 5.747 1.591.527.322-2.491 4.556-1.534 5.385.957.828 2.512-4.32 3.535-4.32 1.023 0 3.442 1.137 3.442 2.034 0 .896-3.59 7.367-2.045 8.749 1.545 1.381 4.014-8.333 5.537-7.827 1.523.505 7.02 3.554 7.343 4.193.323.639-4.118 6.568-3.218 7.745.9 1.177 5.042-6.26 5.665-6.26.357 0 2.256 1.536 4.093 4.042.207.283-2.304 2.344-2.816 3.442-.634 1.359 0 2.214.93 2.214.929 0 3.732-2.688 3.96-2.214.53 1.108 1.528 5.065 1.822 6.328.987 4.243.38 11.6-1.823 22.074zm-26.246-8.21c1.045 1.507 6.222-2.56 5.107-4.027-1.116-1.467-6.151 2.52-5.107 4.027zm-6.73-4.055c.45 0 3.696-2.107 4.32-2.993.624-.887-.624-.96-1.304-1.202-.68-.243-3.72 1.464-4.126 2.314-.407.849.66 1.881 1.11 1.881zm-5.034-14.617c-.177.388.334 1.708 1.054 1.89.72.184 2.634-1.044 2.978-1.642.345-.599-.536-1.531-1.04-1.531-.505 0-2.815.895-2.992 1.283zm11.158-11.15c-.406-.672-.674-.96-1.16-.96-.487 0-2.023 2.658-2.25 3.48-.229.821.426 1.666 1.057 1.423.63-.243 2.758-3.27 2.353-3.942zm7.78 12.542c.358.284.942.68 1.476.68.533 0 2.06-3.455 2.06-4.529 0-1.074-1.186-1.43-1.819-.995-.632.434-2.076 4.56-1.718 4.844z"/>
        <path stroke="#FFF" stroke-linecap="round" stroke-width="1.12" d="M37.968 24.679c8.877 9.636 26.273 27.405 39.636 39.654 8.909 8.165 21.087 17.558 36.533 28.176"/>
        <g>
            <path fill="#000" d="M100.776 85.602c8.847 1.272 14.575 1.14 17.185-.398 3.914-2.306 4.868-5.322 4.772-5.775-.096-.452-3.709-1.222-3.15-2.016.557-.795 3.1.098 3.728-.035.628-.134 1.815-5.747 1.662-6.465-.152-.718-8.471-1.734-7.915-2.91.556-1.175 8.274 1.668 8.6 1.063.327-.605.828-3.1.765-3.399-.064-.299-4.453-.664-4.251-1.494.202-.83 4.283-.91 4.614-.98.332-.071.452-2.655.452-2.655s-5.343-.34-5.08-.991c.261-.65 5.153-.5 5.357-1.139.204-.638.252-3.024-.023-3.423-.276-.399-2.863.399-2.584-.628.279-1.027 2.257-.584 2.434-1.053.177-.47-.106-5.661-.643-6.157-.536-.496-6.936 1.136-6.867 1.46.068.323 1.373 3.901.352 4.323-1.022.421-1.664-3.603-1.973-3.537-.309.065-3.244 1.828-3.59 1.901-.345.074 1.632 2.631 1.223 3.228-.41.597-1.68-2.72-2.206-2.608-.525.111-3.095 1.491-3.381 1.763-.287.272 2.165 2.528 1.677 3.176-.487.647-2.146-2.378-2.786-2.242-.64.136-2 1.171-1.881 1.734.12.563 3.228 4.148 2.446 5.22-.781 1.073-3.622-4.696-4.506-4.177-.885.52-3.915 3.164-4.032 3.608-.116.444 3.451 3.576 3.046 4.435-.406.858-3.988-3.26-4.378-3.177-.223.047-1.205 1.264-2.02 3.082-.091.204 1.754 1.165 2.22 1.786.578.769.296 1.39-.285 1.513-.581.124-2.693-1.19-2.772-.863-.184.766-.28 3.382-.295 4.215-.05 2.794 1.311 7.333 4.085 13.615zm15.315-8.642c-.452 1.085-4.232-.78-3.73-1.85.502-1.07 4.182.765 3.73 1.85zm3.667-3.44c-.282.06-2.592-.832-3.1-1.305-.509-.474.261-.685.654-.928.394-.243 2.522.425 2.89.904.367.48-.162 1.269-.444 1.329zm1.197-9.846c.163.22.019 1.117-.407 1.328-.425.21-1.786-.306-2.081-.636-.295-.33.13-1.033.446-1.1.316-.067 1.88.188 2.042.408zm-8.464-5.516c.164-.476.293-.693.597-.758.304-.064 1.62 1.4 1.871 1.886.253.485-.044 1.103-.47 1.034-.428-.069-2.162-1.686-1.998-2.162zm-3.19 8.907c-.187.226-.5.552-.833.623-.334.071-1.75-1.895-1.893-2.57-.143-.674.551-1.055 1.005-.866.453.19 1.907 2.587 1.72 2.813z"/>
            <path fill="#FFA3E3" d="M100.589 84.93c8.9.808 14.613.375 17.14-1.296 3.788-2.508 4.583-5.57 4.463-6.017-.12-.447-3.767-1.026-3.252-1.849.515-.822 3.101-.064 3.722-.23.62-.166 1.511-5.834 1.321-6.543-.19-.71-8.55-1.288-8.056-2.491.494-1.203 8.35 1.232 8.644.611.295-.621.665-3.139.586-3.434-.08-.295-4.482-.43-4.324-1.27.158-.839 4.23-1.133 4.557-1.22.327-.088.312-2.675.312-2.675s-5.353-.06-5.126-.724c.228-.663 5.12-.77 5.291-1.417.17-.649.094-3.034-.202-3.418-.296-.384-2.838.548-2.613-.492.224-1.04 2.223-.701 2.375-1.179.152-.478-.402-5.648-.964-6.115-.562-.467-6.867 1.498-6.781 1.817.085.32 1.575 3.825.577 4.3-.998.474-1.85-3.511-2.155-3.43-.305.082-3.144 1.996-3.485 2.087-.34.092 1.767 2.542 1.39 3.16-.378.617-1.82-2.629-2.34-2.49-.518.14-3.012 1.651-3.284 1.938-.272.286 2.295 2.412 1.842 3.084-.454.672-2.269-2.262-2.9-2.093-.632.17-1.937 1.274-1.788 1.83.149.556 3.44 3.973 2.716 5.086-.724 1.112-3.863-4.502-4.719-3.937-.856.566-3.744 3.365-3.837 3.815-.093.45 3.634 3.39 3.273 4.269-.36.878-4.152-3.047-4.537-2.944-.22.06-1.138 1.326-1.856 3.183-.08.21 1.812 1.072 2.31 1.668.618.738.368 1.373-.206 1.526-.573.154-2.751-1.048-2.812-.717-.144.775-.103 3.393-.075 4.225.096 2.793 1.693 7.254 4.793 13.383zm14.84-9.431c-.394 1.107-4.266-.558-3.82-1.652.444-1.094 4.216.544 3.82 1.652zm3.483-3.628c-.278.075-2.632-.694-3.165-1.14-.532-.447.226-.698.606-.962.38-.263 2.54.293 2.932.752.392.46-.095 1.276-.373 1.35zm.68-9.894c.174.211.077 1.114-.337 1.347-.414.232-1.8-.212-2.112-.526-.312-.315.077-1.038.388-1.122.312-.083 1.887.09 2.061.3zm-8.741-5.066c.138-.484.256-.707.556-.788.3-.08 1.69 1.314 1.968 1.785.277.472.013 1.104-.417 1.058-.43-.047-2.246-1.57-2.107-2.055zm-2.72 9.062c-.175.235-.47.578-.799.666-.33.088-1.846-1.801-2.025-2.467-.178-.666.496-1.083.958-.918.463.165 2.04 2.483 1.865 2.719z"/>
            <path stroke="#74125D" stroke-linecap="round" stroke-width=".8" d="M124.4 45.204c-3.881 7.442-11.67 21.336-17.886 31.14-4.145 6.536-10.103 14.373-17.877 23.512"/>
        </g>
        <g>
            <path stroke="#B93CF6" stroke-width="1.12" d="M217.211 68.25c0-13.443-3.058-24.113-9.173-32.012"/>
            <path fill="#FFA3E3" d="M217.254 60.114c.89-2.045 2.4-3.496 4.527-4.351 2.128-.856 4.08-.947 5.856-.274-.423 1.4-1.977 2.612-4.66 3.636-2.684 1.024-4.592 1.353-5.723.989zM216.333 60.217c-1.899-1.26-4.235-1.89-7.008-1.89-2.773 0-4.618.63-5.535 1.89a14.245 14.245 0 0 0 5.963 1.273c2.108 0 4.3-.424 6.58-1.273zM215.845 50.41c.04-1.48.598-2.938 1.672-4.376 1.074-1.437 2.558-2.193 4.452-2.266-.688 1.896-1.514 3.288-2.478 4.178-.964.89-2.18 1.71-3.646 2.463zM214.331 50.728c-1.38-1.159-2.91-1.918-4.595-2.277-1.684-.36-3.21.02-4.578 1.138 1.497 1.262 3.023 1.893 4.578 1.893 1.556 0 3.087-.251 4.595-.754zM211.551 40.676c.262-1.043.633-1.956 1.114-2.74.48-.783 1.475-1.287 2.982-1.512.06 1.43-.331 2.463-1.177 3.1-.845.636-1.818 1.02-2.919 1.152zM210.51 41.197c-1.53-.009-2.81.14-3.834.446-1.025.306-1.788.965-2.29 1.976h3.395c1.214 0 2.124-.807 2.73-2.422zM208.378 36.537c-.262-1.572-.798-2.734-1.61-3.485-.81-.752-1.993-1.223-3.547-1.416.185 1.394.861 2.518 2.028 3.373 1.166.854 2.21 1.364 3.129 1.528z"/>
        </g>
    </g>
</svg>
