<svg xmlns="http://www.w3.org/2000/svg" xmlns:xlink="http://www.w3.org/1999/xlink" width="74" height="92" viewBox="0 0 74 92">
    <defs>
        <path id="a" d="M65.446 40.08c0 2.277-2.277 4.175-4.933 4.175H5.487c-2.846 0-4.933-1.898-4.933-4.175V4.588C.554 2.31 2.83.412 5.487.412h55.026c2.846 0 4.933 1.898 4.933 4.176V40.08z"/>
    </defs>
    <g fill="none" fill-rule="evenodd">
        <g transform="translate(4 43)">
            <mask id="b" fill="#fff">
                <use xlink:href="#a"/>
            </mask>
            <use fill="#FFC0EC" xlink:href="#a"/>
            <path fill="#FF90DE" d="M9.446 40.08c0 2.277-2.277 4.175-4.933 4.175h-39.026c-2.846 0-4.933-1.898-4.933-4.175V4.588c0-2.278 2.277-4.176 4.933-4.176H4.513c2.846 0 4.933 1.898 4.933 4.176V40.08z" mask="url(#b)"/>
        </g>
        <path fill="#DD3BAD" fill-rule="nonzero" d="M64.513 39.616h-.76V26.9C63.754 12.096 51.8.139 37 .139S10.246 12.096 10.246 26.9v12.716h-.759c-4.933 0-8.728 3.606-8.728 7.972V83.08c0 4.365 3.985 7.971 8.728 7.971h55.026c4.933 0 8.728-3.606 8.728-7.971V47.588c0-4.366-3.795-7.972-8.728-7.972zM14.04 26.71C14.041 13.994 24.477 3.745 37 3.745c12.713 0 22.959 10.439 22.959 22.965v12.717h-3.985V26.71c0-10.439-8.538-18.98-18.974-18.98s-18.974 8.541-18.974 18.98v12.717H14.04V26.71zm38.138 0v12.717H21.821V26.71c0-8.35 6.83-15.183 15.179-15.183s15.18 6.832 15.18 15.183zm17.267 56.37c0 2.277-2.277 4.175-4.933 4.175H9.487c-2.846 0-4.933-1.898-4.933-4.175v-3.986h44.4c1.138 0 1.897-.76 1.897-1.898 0-1.139-.759-1.898-1.897-1.898h-44.4v-27.71c0-2.278 2.277-4.176 4.933-4.176h55.026c2.846 0 4.933 1.898 4.933 4.176V83.08z"/>
        <path fill="#80055C" fill-rule="nonzero" d="M60.149 75.298h-5.123c-1.139 0-1.898.76-1.898 1.898 0 1.139.76 1.898 1.898 1.898h5.312c1.139 0 1.898-.76 1.898-1.898-.19-1.139-.949-1.898-2.087-1.898z"/>
    </g>
</svg>
