<svg xmlns="http://www.w3.org/2000/svg" width="26" height="32" viewBox="0 0 26 32">
    <g fill="none" fill-rule="nonzero">
        <g fill="#FF99DF">
            <path d="M23.214 6.302l-9.146 4.485-1.94.944-1.93-.944-9.155-4.485L12.13.866z"/>
            <path d="M23.214 6.302v8.971L12.129 20.71V11.73l1.94-.944zM12.129 11.73v8.979L1.043 15.424V6.302l9.155 4.485z"/>
        </g>
        <path fill="#000" d="M25.948 6.57a1.628 1.628 0 0 0-.14-.28c-.02-.03-.043-.058-.065-.086a1.444 1.444 0 0 0-.159-.166c-.028-.026-.055-.05-.085-.074a1.78 1.78 0 0 0-.262-.168L14.06.237a2.472 2.472 0 0 0-2.114 0L.801 5.772c-.133.074-.22.13-.3.191-.031.024-.058.05-.086.075-.058.052-.11.107-.158.165-.023.03-.046.057-.067.088a1.059 1.059 0 0 0-.104.197 1.048 1.048 0 0 0-.086.38V25.29c0 .444.308.86.82 1.107l11.14 5.375c.136.067.289.115.448.154.038.008.073.017.111.024.154.03.314.051.481.051a2.505 2.505 0 0 0 .6-.077c.16-.04.313-.09.45-.157l11.15-5.537c.501-.249.8-.658.8-1.096V16 6.868a.986.986 0 0 0-.052-.298zM3.713 9.412L10 12.532l.003.001 1.143.565v5.934l-.917-.442-6.516-3.148v-6.03zm7.43 18.753L3.714 24.58v-5.923l7.429 3.588v5.92zm2.754-17.827l-.893.441-.894-.443h-.003L5.123 6.867l7.88-3.913 7.875 3.913-6.981 3.47zm8.388-.924v5.888l-7.424 3.69v-5.893l1.145-.565.002-.001.003-.001 6.274-3.118zm0 15.02l-7.428 3.69v-5.888l7.429-3.691v5.89z"/>
    </g>
</svg>
