<svg xmlns="http://www.w3.org/2000/svg" width="129" height="28" viewBox="0 0 129 28">
    <g fill="none" fill-rule="evenodd">
        <g fill-rule="nonzero">
            <g fill="#FF99DF">
                <path d="M20.312 5.514L12.31 9.439l-1.697.825-1.69-.825-8.01-3.925 9.7-4.756z"/>
                <path d="M20.312 5.514v7.85l-9.7 4.756v-7.856l1.698-.825z"/>
                <path d="M10.613 10.264v7.856l-9.7-4.624V5.514l8.01 3.925z"/>
            </g>
            <path fill="#000" d="M22.704 5.749a1.425 1.425 0 0 0-.122-.245c-.018-.026-.038-.05-.057-.076a1.263 1.263 0 0 0-.139-.145c-.024-.022-.048-.044-.075-.065a1.558 1.558 0 0 0-.229-.146L12.303.208a2.163 2.163 0 0 0-1.85 0L.702 5.05a2.06 2.06 0 0 0-.262.168c-.028.02-.051.043-.076.066a1.246 1.246 0 0 0-.138.144.926.926 0 0 0-.15.25.917.917 0 0 0-.075.332V22.128c0 .389.27.752.718.969l9.746 4.703c.12.058.254.1.393.134l.097.022c.135.026.275.044.421.044a2.192 2.192 0 0 0 .525-.068c.14-.034.274-.078.393-.137l9.757-4.844c.438-.218.7-.577.7-.96v-7.99V6.01a.863.863 0 0 0-.046-.261zM3.25 8.235l5.5 2.73.003.001 1 .494v5.193l-.802-.387-5.7-2.754V8.235zm6.501 16.41l-6.5-3.137v-5.183l6.5 3.14v5.18zm2.41-15.599l-.782.386-.782-.388h-.003l-6.11-3.035 6.894-3.423 6.891 3.424-6.108 3.036zm7.34-.809v5.153l-6.497 3.228v-5.156l1.002-.494.002-.002h.003l5.49-2.729zm0 13.143L13 24.61v-5.152l6.5-3.23v5.153z"/>
        </g>
        <path fill="#000" d="M50.016 19.176c-1.163 0-2.117-.496-2.864-1.488V19h-1.936V7.32h1.936v4.64c.747-1.056 1.701-1.584 2.864-1.584 1.067 0 1.99.397 2.768 1.192.779.795 1.168 1.87 1.168 3.224 0 1.333-.39 2.397-1.168 3.192-.779.795-1.701 1.192-2.768 1.192zm-.448-1.68a2.25 2.25 0 0 0 1.72-.752c.464-.501.696-1.163.696-1.984 0-.8-.235-1.45-.704-1.952-.47-.501-1.04-.752-1.712-.752-.672 0-1.25.256-1.736.768-.485.512-.728 1.168-.728 1.968 0 .79.243 1.437.728 1.944.485.507 1.064.76 1.736.76zM56.048 19V7.32h1.936V19h-1.936zm8.48.192c-1.28 0-2.347-.427-3.2-1.28-.853-.853-1.28-1.893-1.28-3.12s.432-2.27 1.296-3.128c.864-.859 1.936-1.288 3.216-1.288 1.28 0 2.35.427 3.208 1.28.859.853 1.288 1.899 1.288 3.136 0 1.216-.432 2.253-1.296 3.112-.864.859-1.941 1.288-3.232 1.288zm.032-1.68c.768 0 1.387-.261 1.856-.784.47-.523.704-1.168.704-1.936 0-.757-.245-1.4-.736-1.928-.49-.528-1.11-.792-1.856-.792-.757 0-1.37.261-1.84.784s-.704 1.168-.704 1.936c0 .747.245 1.387.736 1.92.49.533 1.104.8 1.84.8zm10.368 1.68c-1.248 0-2.288-.427-3.12-1.28-.832-.853-1.248-1.893-1.248-3.12 0-1.216.419-2.256 1.256-3.12.837-.864 1.88-1.296 3.128-1.296 1.365 0 2.49.485 3.376 1.456l-1.2 1.296c-.672-.704-1.403-1.056-2.192-1.056-.693 0-1.272.264-1.736.792-.464.528-.696 1.17-.696 1.928 0 .768.237 1.413.712 1.936.475.523 1.08.784 1.816.784.779 0 1.51-.352 2.192-1.056l1.168 1.152a5.108 5.108 0 0 1-1.496 1.176c-.539.272-1.192.408-1.96.408zM80.16 19V7.32h1.936v6.976l3.504-3.744h2.352l-3.36 3.44L88.064 19h-2.24l-2.544-3.648-1.184 1.232V19H80.16zm12.208.16c-1.323 0-2.517-.421-3.584-1.264l.864-1.312c.917.693 1.84 1.04 2.768 1.04.416 0 .739-.083.968-.248a.809.809 0 0 0 .344-.696c0-.15-.04-.28-.12-.392-.08-.112-.221-.216-.424-.312a3.978 3.978 0 0 0-.512-.208 116.17 116.17 0 0 0-.688-.208l-.144-.048a9.181 9.181 0 0 1-.76-.248c-.208-.08-.44-.19-.696-.328a2.553 2.553 0 0 1-.624-.456 2.006 2.006 0 0 1-.4-.632 2.227 2.227 0 0 1-.16-.864c0-.779.285-1.403.856-1.872.57-.47 1.288-.704 2.152-.704 1.099 0 2.133.32 3.104.96l-.768 1.376c-.875-.533-1.67-.8-2.384-.8-.373 0-.664.08-.872.24a.767.767 0 0 0-.312.64c0 .181.093.347.28.496.187.15.373.259.56.328.187.07.488.173.904.312a.62.62 0 0 0 .08.032c.032.01.059.016.08.016.373.117.688.232.944.344.256.112.525.264.808.456.283.192.499.43.648.712.15.283.224.61.224.984 0 .853-.293 1.51-.88 1.968-.587.459-1.339.688-2.256.688zm6.896-.096l-2.736-8.512h1.984l1.696 5.792 1.872-5.824h1.648l1.888 5.824 1.728-5.792h1.936l-2.768 8.512h-1.728l-1.888-5.776-1.904 5.776h-1.728zM117.776 19h-1.92v-1.04c-.683.81-1.595 1.216-2.736 1.216-.843 0-1.555-.232-2.136-.696-.581-.464-.872-1.112-.872-1.944 0-.907.315-1.595.944-2.064.63-.47 1.456-.704 2.48-.704.821 0 1.6.117 2.336.352v-.16c0-.587-.179-1.035-.536-1.344-.357-.31-.872-.464-1.544-.464-.768 0-1.573.176-2.416.528l-.528-1.552a7.776 7.776 0 0 1 3.216-.704c1.227 0 2.152.31 2.776.928.624.619.936 1.499.936 2.64V19zm-1.872-3.056v-.48c-.576-.224-1.221-.336-1.936-.336-.608 0-1.083.117-1.424.352-.341.235-.512.565-.512.992 0 .384.155.688.464.912.31.224.699.336 1.168.336.65 0 1.187-.165 1.608-.496.421-.33.632-.757.632-1.28zm4.176 5.616V10.552h1.936v1.408c.747-1.056 1.701-1.584 2.864-1.584 1.067 0 1.99.397 2.768 1.192.779.795 1.168 1.87 1.168 3.224 0 1.333-.39 2.397-1.168 3.192-.779.795-1.701 1.192-2.768 1.192-1.163 0-2.117-.496-2.864-1.488v3.872h-1.936zm4.352-4.064a2.25 2.25 0 0 0 1.72-.752c.464-.501.696-1.163.696-1.984 0-.8-.235-1.45-.704-1.952-.47-.501-1.04-.752-1.712-.752-.672 0-1.25.256-1.736.768-.485.512-.728 1.168-.728 1.968 0 .79.243 1.437.728 1.944.485.507 1.064.76 1.736.76z"/>
    </g>
</svg>
