<svg xmlns="http://www.w3.org/2000/svg" xmlns:xlink="http://www.w3.org/1999/xlink" width="184" height="176" viewBox="0 0 184 176">
    <defs>
        <path id="a" d="M33.858.003L2 31.287.491 160.102 2 162.397l31.858-31.138z"/>
        <rect id="c" width="149" height="140" rx="2"/>
        <path id="d" d="M.012 33.986L33.702.265h149.826l-34.482 34.212z"/>
    </defs>
    <g fill="none" fill-rule="evenodd">
        <g transform="translate(147 8)">
            <mask id="b" fill="#fff">
                <use xlink:href="#a"/>
            </mask>
            <path stroke="#C175E6" stroke-width="3" d="M35.358-3.572V131.89L1.746 164.743l-2.76-4.2L.507 30.65l34.85-34.223z"/>
            <path d="M.822 170.691l36.92-185.195V134.5z" mask="url(#b)"/>
            <path stroke="#6F00C3" stroke-width="3" d="M-.318 154.643l41.957-40.926M-.318 142.643l41.957-40.926M-.318 130.643l41.957-40.926M-.318 118.643l41.957-40.926M-.318 105.643l41.957-40.926M-.318 93.643l41.957-40.926M-.318 81.643l41.957-40.926M-.318 69.643l41.957-40.926M-.318 56.643l41.957-40.926M-.318 43.643L41.639 2.717" mask="url(#b)"/>
        </g>
        <rect width="146" height="137" x="1.5" y="1.5" stroke="#6F00C3" stroke-width="3" rx="2" transform="translate(0 35)"/>
        <g transform="translate(0 1)">
            <mask id="e" fill="#fff">
                <use xlink:href="#d"/>
            </mask>
            <use fill="#58118D" xlink:href="#d"/>
            <path fill="#841FD0" d="M-2 35.574h35.214V0z" mask="url(#e)"/>
        </g>
    </g>
</svg>
