<svg xmlns="http://www.w3.org/2000/svg" xmlns:xlink="http://www.w3.org/1999/xlink" width="194" height="89" viewBox="0 0 194 89">
    <defs>
        <path id="a" d="M51.554 63.097H86.83a12 12 0 0 0 8.65-3.684l28.397-29.538a12 12 0 0 1 8.65-3.683H144.7a12 12 0 0 1 8.597 3.628l3.593 3.69a12 12 0 0 0 8.597 3.628h65.407a12 12 0 0 0 6.587-1.97l20.08-13.184a12 12 0 0 1 6.586-1.969h13.356a12 12 0 0 0 8.934-3.989L297.22 4.003a12 12 0 0 1 8.934-3.989h24.15c6.627 0 12 5.373 12 12a12 12 0 0 1-.009.464l-3.273 84.511c-.25 6.442-5.545 11.536-11.991 11.536H.034L43.18 66.5a12 12 0 0 1 8.373-3.403z"/>
        <path id="c" d="M.391 54.241l37.225-35.49a11.2 11.2 0 0 1 7.728-3.093H78.29a11.2 11.2 0 0 0 5.902-1.681L103.45 2.035a11.2 11.2 0 0 1 5.902-1.68h73.9a11.2 11.2 0 0 1 8.987 4.516l11.5 15.466a11.2 11.2 0 0 0 8.987 4.517h3.783a11.2 11.2 0 0 0 8.51-3.918l5.957-6.96a11.2 11.2 0 0 1 8.51-3.918h12.333a8.998 8.998 0 0 1 7.662 4.28 8.998 8.998 0 0 0 7.662 4.28h11.488a11.2 11.2 0 0 1 7.64 3.01l34.97 32.613H.39z"/>
        <path id="e" d="M51.888 105.442c12.473-3.091 19-9.851 19.58-20.28.87-15.645-14.452-22.883-19.58-31.934-5.129-9.052-2.51-15.495-6.444-24.702-3.934-9.207-11.568-3.05-16.967-16.906C23.077-2.235 12.677.585 7.53 1.88 2.384 3.178-3.05 7.423 3.545 24.459c6.593 17.036 1.247 21.608 2.616 29.575 1.369 7.967 8.816 9.19 7.552 18.982-1.264 9.791 1.752 24.024 13.893 28.917 8.094 3.263 16.188 4.433 24.282 3.51z"/>
        <path id="g" d="M46.843 95.495c11.261-2.8 17.153-8.922 17.677-18.368.785-14.168-13.047-20.724-17.677-28.92-4.63-8.198-2.266-14.034-5.817-22.372-3.551-8.339-10.443-2.763-15.318-15.311C20.834-2.024 11.444.53 6.798 1.704 2.152 2.876-2.752 6.721 3.2 22.15c5.953 15.428 1.126 19.57 2.362 26.784 1.236 7.216 7.96 8.324 6.818 17.191-1.142 8.868 1.582 21.758 12.542 26.19 7.307 2.955 14.614 4.014 21.921 3.179z"/>
    </defs>
    <g fill="none" fill-rule="evenodd">
        <g transform="translate(-39.5)">
            <mask id="b" fill="#fff">
                <use xlink:href="#a"/>
            </mask>
            <use fill="#FFF" xlink:href="#a"/>
            <path stroke="#FFDBF4" stroke-width=".5" d="M328.8-4.914c-14.588 16.717-19.478 14.124-9.739 31.508 9.74 17.384 43.14 34.127 25.504 39.87-17.636 5.742-16.255-7.379-27.762-17.604-11.507-10.225-9.273-.107 2.258 17.604 11.531 17.71 49.461 72.566 12.439 34.244s-55.782-56.682-42.822-65.398c12.96-8.716 29.647-16.746 12.707-16.746-16.94 0-37.204-7.138-35.352 4.804 1.852 11.942-1.293 21.265 5.197 31.183 6.49 9.917 27 15.26 30.155 25.178 3.154 9.918 29.825 42.013-2.763 18.714-32.589-23.299-46.716-21.9-43.988-46.874 2.728-24.975 19.828-35.407 0-35.407s-30.597-18.286-30.597 7.206 8.718 40.902-4.832 50.769c-13.55 9.866-30.162 41.265-30.162 5.592 0-35.672 10.193-41.77 0-49.065-10.193-7.296-5.985-14.591-13.963-7.296-7.978 7.296-9.371 5.869-4.686 17.035 4.686 11.166 4.686 9.763 4.686 14.148 0 4.384 4.761 9.496-4.686 16.145-9.446 6.648-7.394 10.54-7.394-8.708 0-19.248 2.969-31.324-5.375-31.324-8.343 0 .977 8.232-4.482 20.905-5.46 12.673-11.329 12.673-20.876 22.568-9.546 9.895-13.774 37.547-11.393 21.57 2.381-15.978-.569-19.251 11.393-29.243 11.963-9.993 18.748-14.895 0-14.895-18.747 0-28.494-3.325-16.937-7.245 11.558-3.92 26.308 10.134 21.623-9.014-4.686-19.148-29.249-18.306-32.135-4.646-2.886 13.66 5.24 25.746 5.24 35.8 0 10.053-7.555 15.36-11.637 19.204-4.081 3.845-18.698 10.827-7.776 15.04 10.923 4.213 9.803 51.736-2.43 22.34-12.233-29.396-9.96-31.133-3.765-46.097 4.13-9.975 4.13-17.442 0-22.4" mask="url(#b)"/>
        </g>
        <g transform="matrix(-1 0 0 1 327.567 46.94)">
            <mask id="d" fill="#fff">
                <use xlink:href="#c"/>
            </mask>
            <use fill="#E6DBFF" xlink:href="#c"/>
            <path stroke="#FFF" stroke-linecap="round" stroke-linejoin="round" stroke-width=".56" d="M486.7 58.201c-14.834-8.118-26.023-13.501-33.568-16.15-11.317-3.972-11.042-9.502-22.224-9.502s-16.604 6.162-21.545 3.08c-4.942-3.08-3.65-4.913-15.782-13.993-12.133-9.08-19.219-10.715-21.882-8.481-2.663 2.234 19.882 22.885 19.882 28.897 0 6.012-10.745 10.963-22.048 6.823-11.304-4.14-4.597-5.322-16.451-13.245-11.854-7.923-25.13-16.974-27.133-13.994-2.003 2.98-14.262.749-1.964 13.994 12.299 13.245 35.523 15.716 27.224 19.143-8.298 3.428-12.59 5.899-19.907 0-7.317-5.898-13.014-16.23-23.069-27.514C298.178 15.976 292.4 9.7 287.858 9.7s-32.522-15.301 0 11.937c32.522 27.239 41.863 33.06 39.977 36.565-1.886 3.505-16.075-2.503-19.602-9.326-3.527-6.823-3.287-6.497-13.6-13.245-10.312-6.748-12.322-13.994-18.648-13.994-6.326 0-10.763-1.716-13.385-1.716h-21.226c-3.47 0-8.252-2.915-12.267-6.265-4.014-3.351-9.933-.082 0 7.981 17.24 13.994 24.552 10.688 33.493 10.688 8.94 0 22.795-1.377 22.795 3.306 0 4.682-7.126 8.161-17.372 6.422-10.245-1.74-17.047-9.391-17.047-2.287 0 7.105 44.04 15.008 46.755 15.008 2.716 0 10.4 7.302 1.639 7.302-8.762 0-27.077.086-36.77-5.54-9.693-5.626-9.058-4.59-13.614-9.537-4.557-4.946-1.888-7.765-15.864-11.107-13.976-3.342-13.52-4.684-16.515-6.658-2.995-1.974-.605-5.7-6.878-5.7-6.272 0-13.892 5.675-2.558 12.097s21.39 10.905 11.975 13.245c-9.417 2.34-19.34 6.823-28.66 0s-12.32-3.09-12.32-9.11 1.343-4.35-4.214-7.441 7.88-13.435 11.408-5.065c3.529 8.37 14.203 28.738 9.664 12.506-4.538-16.231-.564-20.36-9.664-26.61s3.393-10.414-11.408-6.936c-14.8 3.48-8.948 26.313-6.843 33.546 2.106 7.233 11.407 15.104 2.402 16.77-9.005 1.666-6.579-2.47-6.579-2.47s-8.465-5.93-8.465-18.435c0-12.506-2.134-6.385-6.98-12.096-4.848-5.712-7.02-10.38-14.073-10.38h-18.517c-10.992 0-58.799 5.735-58.799 14.105 0 8.37 6.204 20.601 9.399 24.939 3.195 4.337-6.997 17.594-9.399 19.593-2.402 1.999 71.251 73.891 53.704 22.076C92.256 42.052 70.39 37.388 87.601 32.324c17.212-5.065 26.586-10.295 33.922 9.728 7.336 20.023 16.445 13.945 11.89-2.287-4.554-16.231-6.905 23.825 25.084 38.964 31.99 15.138 344.958 54.365 305.665 23.714-39.294-30.652 117.716 53.033 65.369-16.41C477.183 16.588 327.737-78.149 340.409-29.115c12.673 49.034 7.028 52.339-12.574 35.333-19.602-17.005-37.053-20.881-30.104-10.44 6.95 10.44-13.47 4.99-25.97-3.034C259.263-15.279 114.478 6.22 62.175 6.22" mask="url(#d)"/>
        </g>
        <g transform="rotate(-10 77.425 -749.604)">
            <mask id="f" fill="#fff">
                <use xlink:href="#e"/>
            </mask>
            <use fill="#C297FB" xlink:href="#e"/>
            <path stroke="#B93CF6" stroke-linecap="round" stroke-linejoin="round" stroke-width=".998" d="M47.736 89.85l23-15.85M41.854 75.64l19.951-19.665M33.039 51.92l23-15.851M31.185 47.96l19.95-19.664M16.514 13.183l23-15.85M19.455 18.818l23-15.85M22.848 27.728H.1M23.548 32.385L1.963 34.201M33.43 54.488H2.77M34.476 58.24L5.043 60.056M43.202 81.35H11.553M45.155 85.506L14.74 87.322M47.789 94.258l-30.415 1.816M39.073 69.81L8.658 71.626M14.66 9.225l19.951-19.666" mask="url(#f)"/>
            <path stroke="#B93CF6" stroke-linecap="round" stroke-linejoin="round" stroke-width="1.331" d="M52.53 104.637C29.96 44.388 15.627 9.385 9.53-.372" mask="url(#f)"/>
        </g>
        <g transform="rotate(-25 147.551 -180.247)">
            <mask id="h" fill="#fff">
                <use xlink:href="#g"/>
            </mask>
            <use fill="#FFA3E3" xlink:href="#g"/>
            <path stroke="#74125D" stroke-linecap="round" stroke-width=".5" d="M43.095 81.373L63.86 67.018M41.84 79.067l18.01-17.81M29.107 46.327L49.871 31.97M27.722 42.936l18.01-17.81M14.909 11.94L35.672-2.417M17.563 17.043L38.327 2.687M20.65 26.526H.116M21.978 30.025L2.492 31.67M30.18 49.348H2.5M31.124 52.746L4.552 54.39M35.274 63.224L7.817 64.87M13.523 8.548l18.011-17.81" mask="url(#h)"/>
            <path stroke="#74125D" stroke-linecap="round" stroke-width="1.5" d="M47.422 94.766C27.048 40.201 14.108 8.5 8.602-.337" mask="url(#h)"/>
        </g>
        <path stroke="#B93CF6" stroke-width=".56" d="M15.032 103.394c0-19.236 4.146-34.506 12.437-45.81"/>
        <path fill="#C297FB" d="M14.975 91.75c-1.208-2.926-3.254-5.001-6.139-6.225-2.884-1.225-5.531-1.355-7.94-.392.575 2.003 2.68 3.738 6.32 5.203 3.638 1.465 6.224 1.937 7.759 1.414zM16.885 77.864c-.055-2.117-.811-4.204-2.267-6.26-1.457-2.058-3.468-3.14-6.036-3.244.933 2.713 2.052 4.706 3.359 5.979 1.307 1.273 2.955 2.448 4.944 3.525zM18.937 78.32c1.87-1.658 3.947-2.744 6.23-3.259 2.283-.514 4.352.029 6.206 1.63-2.029 1.805-4.097 2.708-6.206 2.708-2.11 0-4.186-.36-6.23-1.08zM14.885 85.864c-.055-2.117-.811-4.204-2.267-6.26-1.457-2.058-3.468-3.14-6.036-3.244.933 2.713 2.052 4.706 3.359 5.979 1.307 1.273 2.955 2.448 4.944 3.525zM16.937 86.32c1.87-1.658 3.947-2.744 6.23-3.259 2.283-.514 4.352.029 6.206 1.63-2.029 1.805-4.097 2.708-6.206 2.708-2.11 0-4.186-.36-6.23-1.08zM18.885 70.864c-.055-2.117-.811-4.204-2.267-6.26-1.457-2.058-3.468-3.14-6.036-3.244.933 2.713 2.052 4.706 3.359 5.979 1.307 1.273 2.955 2.448 4.944 3.525zM20.937 71.32c1.87-1.658 3.947-2.744 6.23-3.259 2.283-.514 4.352.029 6.206 1.63-2.029 1.805-4.097 2.708-6.206 2.708-2.11 0-4.186-.36-6.23-1.08zM23.706 61.936c-.355-1.493-.858-2.8-1.51-3.921-.652-1.12-2-1.842-4.044-2.164-.082 2.046.45 3.525 1.596 4.435 1.146.91 2.466 1.46 3.958 1.65zM25.116 62.681c2.077-.012 3.81.2 5.2.639 1.39.438 2.424 1.38 3.103 2.827h-4.601c-1.647 0-2.88-1.155-3.702-3.466zM27.008 58.012c.355-2.25 1.082-3.912 2.182-4.987 1.1-1.075 2.703-1.75 4.81-2.025-.251 1.994-1.168 3.603-2.75 4.825-1.581 1.223-2.995 1.952-4.242 2.187z"/>
    </g>
</svg>
