<svg xmlns="http://www.w3.org/2000/svg" xmlns:xlink="http://www.w3.org/1999/xlink" width="238" height="72" viewBox="0 0 238 72">
    <defs>
        <path id="a" d="M43.823 44.228h14.113a24 24 0 0 0 16.874-6.934l13.291-13.142A20.051 20.051 0 0 1 102.2 18.36h2.747c3.521 0 6.903 1.377 9.422 3.837a13.489 13.489 0 0 0 9.423 3.836h42.245a24 24 0 0 0 12.707-3.64l7.565-4.722a24 24 0 0 1 12.708-3.64h1.347a19.06 19.06 0 0 0 13.865-5.982l.97-1.028a22.338 22.338 0 0 1 16.25-7.01h5.842c8.207 0 14.86 6.653 14.86 14.86 0 .202-.003.404-.011.606l-1.531 37.572c-.525 12.864-11.106 23.023-23.98 23.023H.024l27.494-25.454a24 24 0 0 1 16.304-6.389z"/>
        <path id="c" d="M.289 38.02l23.44-21.243a22.4 22.4 0 0 1 15.042-5.802h15.204c4 0 7.928-1.07 11.374-3.102L73.02 3.35A22.4 22.4 0 0 1 84.395.248h43.987c6.88 0 13.378 3.167 17.618 8.587l3.407 4.355a11.021 11.021 0 0 0 8.681 4.231c3.42 0 6.678-1.45 8.966-3.991l1.075-1.194a15.673 15.673 0 0 1 11.647-5.186h6.051c2.23 0 4.306 1.13 5.518 3 1.212 1.871 3.29 3 5.518 3h4.142c4.97 0 9.77 1.822 13.49 5.12l22.393 19.85H.288z"/>
    </defs>
    <g fill="none" fill-rule="evenodd">
        <g transform="translate(-5 .875)">
            <mask id="b" fill="#fff">
                <use xlink:href="#a"/>
            </mask>
            <use fill="#FFF" xlink:href="#a"/>
            <path stroke="#FFDBF4" d="M242.462-3.444c-10.758 11.717-14.363 9.9-7.182 22.085 7.182 12.186 31.812 23.922 18.808 27.947-13.005 4.025-11.987-5.172-20.473-12.34-8.485-7.167-6.838-.074 1.665 12.34 8.504 12.414 36.474 50.866 9.173 24.004-27.3-26.862-41.134-39.732-31.578-45.841 9.557-6.11 21.862-11.739 9.37-11.739-12.491 0-27.434-5.003-26.068 3.368 1.365 8.37-.954 14.906 3.832 21.858 4.786 6.951 19.91 10.697 22.237 17.649 2.326 6.952 21.993 29.449-2.038 13.117-24.031-16.331-34.449-15.35-32.437-32.856 2.012-17.507 14.621-24.82 0-24.82s-22.563-12.817-22.563 5.052 6.43 28.67-3.563 35.587c-9.992 6.916-22.242 28.925-22.242 3.92 0-25.005 7.516-29.28 0-34.393-7.516-5.114-4.414-10.228-10.297-5.114-5.883 5.114-6.91 4.114-3.455 11.94 3.455 7.828 3.455 6.844 3.455 9.918 0 3.073 3.512 6.656-3.455 11.316-6.966 4.66-5.452 7.389-5.452-6.103s2.189-21.957-3.964-21.957c-6.152 0 .72 5.77-3.305 14.654-4.026 8.883-8.354 8.883-15.394 15.819-7.04 6.936-10.158 26.319-8.402 15.12 1.756-11.2-.419-13.495 8.402-20.499s13.825-10.44 0-10.44-21.012-2.33-12.49-5.08c8.523-2.747 19.4 7.105 15.945-6.317-3.455-13.422-21.568-12.832-23.697-3.257-2.128 9.575 3.865 18.047 3.865 25.094 0 7.047-5.572 10.767-8.582 13.462-3.01 2.695-13.788 7.589-5.734 10.542 8.054 2.953 7.229 36.265-1.792 15.66-9.02-20.606-7.344-21.824-2.776-32.312 3.045-6.993 3.045-12.227 0-15.702" mask="url(#b)"/>
        </g>
        <g transform="matrix(-1 0 0 1 265.68 33.778)">
            <mask id="d" fill="#fff">
                <use xlink:href="#c"/>
            </mask>
            <use fill="#E6DBFF" xlink:href="#c"/>
            <path stroke="#B93CF6" stroke-linecap="round" stroke-linejoin="round" stroke-width="1.12" d="M358.9 40.796c-10.939-5.69-19.19-9.463-24.754-11.32-8.345-2.784-8.142-6.66-16.388-6.66-8.246 0-12.244 4.319-15.888 2.159s-2.69-3.445-11.638-9.809c-8.947-6.364-14.172-7.511-16.136-5.945-1.963 1.566 14.662 16.041 14.662 20.255 0 4.214-7.924 7.685-16.26 4.783-8.335-2.902-3.389-3.73-12.13-9.284-8.741-5.554-18.531-11.898-20.008-9.809-1.478 2.09-10.517.525-1.448 9.809 9.069 9.284 26.194 11.016 20.075 13.419-6.12 2.402-9.284 4.134-14.68 0-5.395-4.135-9.597-11.377-17.011-19.286-7.415-7.91-11.676-12.31-15.025-12.31-3.35 0-23.982-10.725 0 8.368s30.87 23.174 29.48 25.63c-1.391 2.457-11.854-1.754-14.455-6.537-2.601-4.783-2.424-4.554-10.029-9.284-7.604-4.73-9.086-9.809-13.751-9.809-4.665 0-7.937-1.203-9.87-1.203h-15.653c-2.559 0-6.086-2.043-9.046-4.392-2.96-2.348-7.325-.057 0 5.595 12.712 9.809 18.105 7.492 24.698 7.492s16.81-.965 16.81 2.317-5.255 5.72-12.81 4.501c-7.556-1.219-12.571-6.582-12.571-1.602 0 4.98 32.475 10.52 34.477 10.52 2.003 0 7.67 5.118 1.209 5.118s-19.967.06-27.115-3.883c-7.147-3.944-6.68-3.218-10.04-6.685-3.36-3.468-1.391-5.443-11.698-7.786-10.306-2.343-9.969-3.284-12.178-4.667-2.209-1.383-.446-3.995-5.071-3.995-4.626 0-10.245 3.978-1.887 8.479 8.358 4.501 15.774 7.644 8.83 9.284-6.943 1.64-14.26 4.783-21.134 0-6.873-4.783-9.084-2.165-9.084-6.385s.99-3.05-3.108-5.216c-4.098-2.167 5.81-9.418 8.412-3.55 2.602 5.867 10.473 20.143 7.127 8.766-3.347-11.378-.416-14.272-7.127-18.653-6.71-4.381 2.502-7.3-8.412-4.861-10.915 2.438-6.599 18.444-5.046 23.514 1.552 5.07 8.412 10.587 1.771 11.755-6.64 1.167-4.851-1.731-4.851-1.731s-6.242-4.157-6.242-12.923-1.574-4.475-5.148-8.479c-3.575-4.003-5.177-7.275-10.378-7.275H84.727c-8.106 0-43.36 4.02-43.36 9.887 0 5.867 4.575 14.44 6.931 17.48 2.356 3.04-5.16 12.333-6.93 13.734-1.772 1.401 52.541 51.795 39.602 15.475-12.94-36.32-29.064-39.59-16.372-43.14 12.693-3.55 19.606-7.216 25.015 6.82 5.41 14.035 12.127 9.774 8.768-1.603-3.358-11.378-5.092 16.7 18.497 27.311 23.59 10.612 254.377 38.108 225.402 16.623-28.976-21.486 86.806 37.174 48.204-11.503S241.678-54.778 251.023-20.408c9.345 34.371 5.182 36.688-9.273 24.768-14.454-11.92-27.323-14.637-22.198-7.319 5.124 7.319-9.934 3.499-19.15-2.126C191.183-10.71 84.416 4.36 45.847 4.36" mask="url(#d)"/>
        </g>
        <path fill="#000" d="M153.103 74.261c13.703 2.925 22.683 3.332 26.938 1.222 6.383-3.165 8.21-7.75 8.11-8.464-.1-.714-5.668-2.297-4.707-3.472.96-1.175 4.842.485 5.84.345.997-.14 3.478-8.738 3.32-9.87-.16-1.133-13.067-3.603-12.066-5.37 1.002-1.767 12.765 3.478 13.343 2.573.578-.905 1.64-4.73 1.573-5.201-.066-.471-6.896-1.509-6.487-2.777.408-1.269 6.804-.957 7.33-1.03.527-.075 1.002-4.077 1.002-4.077s-8.324-1.102-7.841-2.085c.482-.984 8.121-.226 8.511-1.197.39-.97.73-4.673.344-5.323-.387-.65-4.524.313-3.974-1.253.55-1.566 3.597-.666 3.926-1.376.329-.71.463-8.81-.322-9.638-.785-.828-10.982 1.023-10.91 1.533.072.51 1.717 6.212.07 6.757-1.645.546-2.203-5.777-2.693-5.708-.491.068-5.281 2.493-5.83 2.57-.548.078 2.262 4.265 1.555 5.148-.707.884-2.328-4.408-3.163-4.29-.834.117-5.009 1.986-5.487 2.378-.479.392 3.108 4.162 2.273 5.116-.836.955-3.096-3.925-4.112-3.782-1.017.143-3.262 1.606-3.137 2.493.125.888 4.591 6.793 3.249 8.377-1.342 1.583-5.147-7.69-6.59-6.976-1.441.712-6.478 4.498-6.71 5.176-.231.678 5.005 5.928 4.275 7.219-.73 1.29-5.88-5.494-6.499-5.407-.354.05-2.027 1.836-3.502 4.573-.167.309 2.614 2 3.275 3.015.82 1.257.308 2.192-.615 2.321-.923.13-4.082-2.14-4.241-1.639-.373 1.171-.814 5.228-.93 6.52-.39 4.338 1.237 11.538 4.882 21.6zM178.03 62.47c-.828 1.638-6.536-1.666-5.632-3.274.904-1.608 6.46 1.636 5.632 3.274zm6.122-4.954c-.448.063-3.965-1.57-4.708-2.36-.743-.791.486-1.037 1.128-1.373.642-.335 3.899.931 4.42 1.715.522.784-.393 1.955-.84 2.018zm2.966-15.174c.23.36-.095 1.737-.784 2.02-.69.281-2.761-.667-3.187-1.212-.425-.545.32-1.59.82-1.661.502-.07 2.922.493 3.151.853zm-12.634-9.48c.309-.724.536-1.046 1.019-1.114.482-.068 2.378 2.35 2.719 3.13.34.782-.192 1.71-.853 1.558-.66-.153-3.194-2.852-2.885-3.575zM168.5 46.361c-.317.332-.842.806-1.372.88-.53.075-2.527-3.133-2.677-4.196-.15-1.064.98-1.582 1.669-1.24.688.343 2.697 4.225 2.38 4.556z"/>
        <path fill="#C297FB" d="M150.923 71.723c13.164 4.803 21.999 6.455 26.507 4.958 6.76-2.246 9.209-6.532 9.209-7.253 0-.72-5.294-3.063-4.179-4.093 1.116-1.03 4.728 1.154 5.735 1.154 1.008 0 4.661-8.168 4.661-9.312 0-1.144-12.438-5.385-11.2-6.996 1.237-1.611 12.156 5.22 12.855 4.405.698-.817 2.281-4.456 2.281-4.932s-6.618-2.454-6.037-3.653c.58-1.2 6.871 0 7.403 0 .531 0 1.559-3.898 1.559-3.898s-8.09-2.249-7.475-3.156c.614-.907 8.074.907 8.595 0 .521-.907 1.374-4.526 1.08-5.223-.292-.697-4.522-.32-3.76-1.794.763-1.475 3.655-.159 4.08-.817.424-.658 1.685-8.66 1.022-9.589-.662-.93-11.017-.515-11.017 0s.835 6.39-.87 6.701c-1.706.312-1.378-6.028-1.874-6.028-.495 0-5.576 1.735-6.13 1.735-.554 0 1.646 4.538.823 5.314-.823.777-1.692-4.689-2.535-4.689-.843 0-5.237 1.27-5.765 1.592-.528.32 2.499 4.554 1.539 5.382-.96.829-2.52-4.318-3.546-4.318-1.026 0-3.453 1.137-3.453 2.033 0 .896 3.601 7.366 2.052 8.747-1.55 1.381-4.027-8.33-5.555-7.825-1.527.505-7.041 3.553-7.365 4.192-.324.639 4.13 6.567 3.228 7.743-.903 1.177-5.057-6.258-5.683-6.258-.358 0-2.263 1.535-4.105 4.041-.207.283 2.31 2.343 2.824 3.441.637 1.359 0 2.214-.932 2.214s-3.744-2.687-3.972-2.214c-.532 1.108-1.533 5.064-1.828 6.327-.99 4.241-.38 11.597 1.828 22.069zm26.327-8.209c-1.049 1.507-6.241-2.559-5.122-4.026 1.119-1.467 6.17 2.52 5.122 4.026zM184 59.46c-.451 0-3.707-2.106-4.333-2.992-.625-.887.626-.96 1.308-1.202.683-.243 3.732 1.464 4.14 2.313.407.85-.663 1.881-1.114 1.881zm5.05-14.613c.178.388-.335 1.707-1.057 1.89-.722.183-2.642-1.044-2.988-1.643-.345-.598.538-1.53 1.044-1.53s2.824.895 3.001 1.283zM177.858 33.7c.407-.673.676-.96 1.164-.96.488 0 2.028 2.657 2.257 3.478.229.822-.428 1.667-1.06 1.423-.633-.243-2.768-3.268-2.36-3.941zm-7.803 12.538c-.36.284-.946.68-1.481.68-.535 0-2.067-3.454-2.067-4.528 0-1.074 1.19-1.43 1.824-.995.634.435 2.084 4.56 1.724 4.843z"/>
        <path stroke="#FFF" stroke-linecap="round" stroke-width="1.12" d="M203.15 21.547c-8.905 9.634-26.355 27.4-39.759 39.645-8.936 8.163-21.15 17.553-36.645 28.17"/>
        <g>
            <path fill="#000" d="M150.033 83.523c-8.871 1.266-14.616 1.13-17.235-.41-3.928-2.308-4.886-5.324-4.79-5.777.096-.452 3.719-1.22 3.159-2.014-.56-.795-3.11.096-3.74-.038-.63-.133-1.824-5.747-1.672-6.465.153-.718 8.496-1.728 7.937-2.904-.559-1.176-8.297 1.662-8.625 1.057-.328-.605-.832-3.1-.769-3.4.064-.298 4.466-.66 4.263-1.49-.203-.83-4.297-.913-4.629-.984-.332-.07-.455-2.654-.455-2.654s5.358-.337 5.095-.988c-.263-.65-5.169-.504-5.374-1.142-.205-.639-.255-3.024.021-3.423s2.87.4 2.59-.627c-.28-1.027-2.263-.585-2.44-1.054-.178-.47.101-5.66.64-6.156.537-.495 6.957 1.141 6.888 1.464-.069.323-1.375 3.9-.35 4.323 1.025.422 1.666-3.601 1.976-3.536.31.066 3.255 1.83 3.601 1.904.346.074-1.635 2.63-1.224 3.227.411.597 1.684-2.719 2.211-2.607.527.112 3.105 1.493 3.392 1.765.288.272-2.17 2.527-1.68 3.175.49.648 2.151-2.376 2.793-2.24.642.137 2.007 1.173 1.888 1.736-.12.562-3.235 4.145-2.45 5.218.785 1.073 3.63-4.694 4.517-4.174.887.52 3.928 3.166 4.045 3.61.118.445-3.458 3.574-3.051 4.432.407.859 3.997-3.256 4.388-3.173.224.047 1.21 1.265 2.028 3.082.092.205-1.758 1.164-2.225 1.785-.58.769-.296 1.39.287 1.514.583.124 2.7-1.19 2.779-.862.185.766.283 3.383.299 4.215.053 2.794-1.31 7.331-4.088 13.611zm-15.365-8.652c.454 1.086 4.243-.777 3.74-1.846-.504-1.07-4.195.761-3.74 1.846zm-3.68-3.442c.282.06 2.599-.83 3.108-1.303.51-.473-.263-.685-.657-.928s-2.529.423-2.897.902c-.368.48.163 1.27.446 1.33zm-1.208-9.845c-.162.22-.018 1.116.41 1.327.426.211 1.79-.304 2.086-.634.296-.33-.132-1.032-.448-1.1-.316-.067-1.885.187-2.048.407zm8.486-5.51c-.165-.477-.295-.693-.6-.758-.305-.065-1.623 1.399-1.875 1.884-.253.485.045 1.103.473 1.034.428-.068 2.166-1.684 2.002-2.16zm3.206 8.908c.187.226.5.553.835.624.334.071 1.753-1.894 1.896-2.568.144-.674-.553-1.056-1.008-.867-.454.188-1.91 2.585-1.723 2.811z"/>
            <path fill="#FFA3E3" d="M150.222 82.855c-8.925.8-14.655.363-17.19-1.311-3.8-2.511-4.6-5.573-4.48-6.02.12-.447 3.777-1.023 3.26-1.846-.518-.823-3.111-.067-3.733-.233-.622-.167-1.521-5.836-1.331-6.545.19-.709 8.574-1.28 8.077-2.484-.496-1.203-8.373 1.226-8.668.604-.296-.621-.669-3.14-.59-3.435.08-.295 4.494-.426 4.335-1.265-.16-.84-4.243-1.137-4.571-1.225-.328-.088-.315-2.674-.315-2.674s5.368-.057 5.14-.72c-.23-.664-5.136-.774-5.308-1.422-.17-.649-.096-3.034.2-3.417.297-.384 2.846.55 2.62-.49-.226-1.04-2.23-.703-2.382-1.181-.153-.479.398-5.648.96-6.114.564-.467 6.89 1.503 6.804 1.822-.086.32-1.578 3.824-.576 4.299 1.001.475 1.852-3.51 2.158-3.427.306.082 3.155 1.998 3.497 2.09.342.09-1.77 2.54-1.391 3.158.379.617 1.823-2.627 2.344-2.488.52.14 3.022 1.654 3.295 1.94.273.287-2.3 2.41-1.844 3.083.455.672 2.273-2.26 2.906-2.09.634.17 1.943 1.275 1.794 1.83-.148.557-3.447 3.971-2.72 5.084.728 1.113 3.87-4.498 4.73-3.932.86.566 3.757 3.368 3.851 3.817.094.45-3.641 3.388-3.28 4.267.363.878 4.163-3.044 4.55-2.94.22.06 1.141 1.326 1.863 3.184.081.21-1.816 1.07-2.316 1.666-.618.737-.367 1.373.208 1.527.576.154 2.758-1.046 2.82-.715.145.775.106 3.393.078 4.225-.093 2.793-1.691 7.252-4.795 13.378zm-14.89-9.444c.396 1.108 4.277-.554 3.83-1.649-.447-1.094-4.228.541-3.83 1.65zm-3.496-3.63c.28.075 2.64-.692 3.173-1.138.533-.446-.227-.698-.608-.962-.381-.263-2.547.29-2.94.75-.393.459.096 1.275.375 1.35zm-.69-9.895c-.174.211-.076 1.114.339 1.347.415.233 1.805-.21 2.117-.524.313-.314-.077-1.038-.39-1.122-.312-.084-1.892.088-2.066.3zm8.762-5.059c-.14-.484-.258-.707-.56-.788-.3-.08-1.693 1.312-1.97 1.784-.278.471-.013 1.104.418 1.057.43-.046 2.251-1.568 2.112-2.053zm2.735 9.064c.176.236.471.579.802.667.33.089 1.85-1.8 2.028-2.465.178-.666-.497-1.083-.961-.919-.464.165-2.044 2.482-1.869 2.717z"/>
            <path stroke="#74125D" stroke-linecap="round" stroke-width=".8" d="M126.311 43.109c3.898 7.446 11.72 21.346 17.962 31.155 4.162 6.54 10.144 14.381 17.947 23.526"/>
        </g>
        <g>
            <path stroke="#B93CF6" stroke-width="1.12" d="M35.213 73.349c0-13.484 3.057-24.187 9.17-32.11"/>
            <path fill="#C297FB" d="M35.17 65.188c-.89-2.051-2.399-3.506-4.526-4.364-2.127-.859-4.079-.95-5.855-.275.423 1.404 1.977 2.62 4.66 3.647 2.683 1.027 4.59 1.358 5.721.992zM36.09 65.291c1.9-1.263 4.234-1.895 7.007-1.895 2.773 0 4.617.632 5.534 1.895a14.202 14.202 0 0 1-5.962 1.278c-2.107 0-4.3-.426-6.578-1.278zM36.579 55.454c-.04-1.484-.598-2.947-1.672-4.389-1.074-1.442-2.557-2.2-4.45-2.273.687 1.902 1.513 3.299 2.476 4.191.964.892 2.18 1.716 3.646 2.47zM38.092 55.773c1.38-1.162 2.91-1.923 4.594-2.284 1.684-.36 3.21.02 4.577 1.142-1.496 1.266-3.022 1.899-4.577 1.899-1.555 0-3.086-.252-4.594-.757zM40.871 45.69c-.261-1.046-.632-1.962-1.113-2.747-.48-.786-1.474-1.292-2.982-1.517-.06 1.434.332 2.47 1.177 3.109.845.638 1.818 1.023 2.918 1.156zM41.912 46.213c1.53-.008 2.809.14 3.834.448 1.025.307 1.788.968 2.288 1.982h-3.393c-1.214 0-2.124-.81-2.73-2.43zM44.044 41.539c.262-1.577.798-2.742 1.61-3.496.81-.754 1.992-1.227 3.546-1.42-.185 1.398-.861 2.526-2.028 3.383-1.166.857-2.209 1.368-3.128 1.533z"/>
        </g>
    </g>
</svg>
