<svg xmlns="http://www.w3.org/2000/svg" xmlns:xlink="http://www.w3.org/1999/xlink" width="224" height="61" viewBox="0 0 224 61">
    <defs>
        <path id="a" d="M43.823 44.228h14.113a24 24 0 0 0 16.874-6.934l13.291-13.142A20.051 20.051 0 0 1 102.2 18.36h2.747c3.521 0 6.903 1.377 9.422 3.837a13.489 13.489 0 0 0 9.423 3.836h42.245a24 24 0 0 0 12.707-3.64l7.565-4.722a24 24 0 0 1 12.708-3.64h1.347a19.06 19.06 0 0 0 13.865-5.982l.97-1.028a22.338 22.338 0 0 1 16.25-7.01h5.842c8.207 0 14.86 6.653 14.86 14.86 0 .202-.003.404-.011.606l-1.531 37.572c-.525 12.864-11.106 23.023-23.98 23.023H.024l27.494-25.454a24 24 0 0 1 16.304-6.389z"/>
        <path id="c" d="M.289 38.02l23.44-21.243a22.4 22.4 0 0 1 15.042-5.802h15.204c4 0 7.928-1.07 11.374-3.102L73.02 3.35A22.4 22.4 0 0 1 84.395.248h43.987c6.88 0 13.378 3.167 17.618 8.587l3.407 4.355a11.021 11.021 0 0 0 8.681 4.231c3.42 0 6.678-1.45 8.966-3.991l1.075-1.194a15.673 15.673 0 0 1 11.647-5.186h6.051c2.23 0 4.306 1.13 5.518 3 1.212 1.871 3.29 3 5.518 3h4.142c4.97 0 9.77 1.822 13.49 5.12l22.393 19.85H.288z"/>
    </defs>
    <g fill="none" fill-rule="evenodd">
        <g transform="translate(-17 .875)">
            <mask id="b" fill="#fff">
                <use xlink:href="#a"/>
            </mask>
            <use fill="#FFF" xlink:href="#a"/>
            <path stroke="#FFDBF4" d="M242.462-3.444c-10.758 11.717-14.363 9.9-7.182 22.085 7.182 12.186 31.812 23.922 18.808 27.947-13.005 4.025-11.987-5.172-20.473-12.34-8.485-7.167-6.838-.074 1.665 12.34 8.504 12.414 36.474 50.866 9.173 24.004-27.3-26.862-41.134-39.732-31.578-45.841 9.557-6.11 21.862-11.739 9.37-11.739-12.491 0-27.434-5.003-26.068 3.368 1.365 8.37-.954 14.906 3.832 21.858 4.786 6.951 19.91 10.697 22.237 17.649 2.326 6.952 21.993 29.449-2.038 13.117-24.031-16.331-34.449-15.35-32.437-32.856 2.012-17.507 14.621-24.82 0-24.82s-22.563-12.817-22.563 5.052 6.43 28.67-3.563 35.587c-9.992 6.916-22.242 28.925-22.242 3.92 0-25.005 7.516-29.28 0-34.393-7.516-5.114-4.414-10.228-10.297-5.114-5.883 5.114-6.91 4.114-3.455 11.94 3.455 7.828 3.455 6.844 3.455 9.918 0 3.073 3.512 6.656-3.455 11.316-6.966 4.66-5.452 7.389-5.452-6.103s2.189-21.957-3.964-21.957c-6.152 0 .72 5.77-3.305 14.654-4.026 8.883-8.354 8.883-15.394 15.819-7.04 6.936-10.158 26.319-8.402 15.12 1.756-11.2-.419-13.495 8.402-20.499s13.825-10.44 0-10.44-21.012-2.33-12.49-5.08c8.523-2.747 19.4 7.105 15.945-6.317-3.455-13.422-21.568-12.832-23.697-3.257-2.128 9.575 3.865 18.047 3.865 25.094 0 7.047-5.572 10.767-8.582 13.462-3.01 2.695-13.788 7.589-5.734 10.542 8.054 2.953 7.229 36.265-1.792 15.66-9.02-20.606-7.344-21.824-2.776-32.312 3.045-6.993 3.045-12.227 0-15.702" mask="url(#b)"/>
        </g>
        <g transform="matrix(-1 0 0 1 253.68 33.778)">
            <mask id="d" fill="#fff">
                <use xlink:href="#c"/>
            </mask>
            <use fill="#E6DBFF" xlink:href="#c"/>
            <path stroke="#B93CF6" stroke-linecap="round" stroke-linejoin="round" stroke-width="1.12" d="M358.9 40.796c-10.939-5.69-19.19-9.463-24.754-11.32-8.345-2.784-8.142-6.66-16.388-6.66-8.246 0-12.244 4.319-15.888 2.159s-2.69-3.445-11.638-9.809c-8.947-6.364-14.172-7.511-16.136-5.945-1.963 1.566 14.662 16.041 14.662 20.255 0 4.214-7.924 7.685-16.26 4.783-8.335-2.902-3.389-3.73-12.13-9.284-8.741-5.554-18.531-11.898-20.008-9.809-1.478 2.09-10.517.525-1.448 9.809 9.069 9.284 26.194 11.016 20.075 13.419-6.12 2.402-9.284 4.134-14.68 0-5.395-4.135-9.597-11.377-17.011-19.286-7.415-7.91-11.676-12.31-15.025-12.31-3.35 0-23.982-10.725 0 8.368s30.87 23.174 29.48 25.63c-1.391 2.457-11.854-1.754-14.455-6.537-2.601-4.783-2.424-4.554-10.029-9.284-7.604-4.73-9.086-9.809-13.751-9.809-4.665 0-7.937-1.203-9.87-1.203h-15.653c-2.559 0-6.086-2.043-9.046-4.392-2.96-2.348-7.325-.057 0 5.595 12.712 9.809 18.105 7.492 24.698 7.492s16.81-.965 16.81 2.317-5.255 5.72-12.81 4.501c-7.556-1.219-12.571-6.582-12.571-1.602 0 4.98 32.475 10.52 34.477 10.52 2.003 0 7.67 5.118 1.209 5.118s-19.967.06-27.115-3.883c-7.147-3.944-6.68-3.218-10.04-6.685-3.36-3.468-1.391-5.443-11.698-7.786-10.306-2.343-9.969-3.284-12.178-4.667-2.209-1.383-.446-3.995-5.071-3.995-4.626 0-10.245 3.978-1.887 8.479 8.358 4.501 15.774 7.644 8.83 9.284-6.943 1.64-14.26 4.783-21.134 0-6.873-4.783-9.084-2.165-9.084-6.385s.99-3.05-3.108-5.216c-4.098-2.167 5.81-9.418 8.412-3.55 2.602 5.867 10.473 20.143 7.127 8.766-3.347-11.378-.416-14.272-7.127-18.653-6.71-4.381 2.502-7.3-8.412-4.861-10.915 2.438-6.599 18.444-5.046 23.514 1.552 5.07 8.412 10.587 1.771 11.755-6.64 1.167-4.851-1.731-4.851-1.731s-6.242-4.157-6.242-12.923-1.574-4.475-5.148-8.479c-3.575-4.003-5.177-7.275-10.378-7.275H84.727c-8.106 0-43.36 4.02-43.36 9.887 0 5.867 4.575 14.44 6.931 17.48 2.356 3.04-5.16 12.333-6.93 13.734-1.772 1.401 52.541 51.795 39.602 15.475-12.94-36.32-29.064-39.59-16.372-43.14 12.693-3.55 19.606-7.216 25.015 6.82 5.41 14.035 12.127 9.774 8.768-1.603-3.358-11.378-5.092 16.7 18.497 27.311 23.59 10.612 254.377 38.108 225.402 16.623-28.976-21.486 86.806 37.174 48.204-11.503S241.678-54.778 251.023-20.408c9.345 34.371 5.182 36.688-9.273 24.768-14.454-11.92-27.323-14.637-22.198-7.319 5.124 7.319-9.934 3.499-19.15-2.126C191.183-10.71 84.416 4.36 45.847 4.36" mask="url(#d)"/>
        </g>
        <path stroke="#B93CF6" stroke-width="1.12" d="M22 66c0-11.758 2.667-21.09 8-28"/>
        <path fill="#C297FB" d="M22 58.862c-.772-1.961-2.08-3.352-3.924-4.173-1.844-.82-3.536-.908-5.076-.263.367 1.343 1.714 2.506 4.04 3.488 2.326.982 3.979 1.298 4.96.948zM23 58.792C24.665 57.597 26.714 57 29.146 57s4.05.597 4.854 1.792A11.7 11.7 0 0 1 28.77 60C26.922 60 25 59.597 23 58.792zM23 50c-.033-1.336-.488-2.654-1.365-3.952-.877-1.3-2.089-1.982-3.635-2.048.562 1.713 1.236 2.971 2.023 3.775.787.804 1.78 1.545 2.977 2.225zM24 50.284c1.203-1.099 2.539-1.819 4.008-2.16 1.468-.34 2.8.02 3.992 1.08C30.695 50.401 29.364 51 28.008 51A11.67 11.67 0 0 1 24 50.284zM27 42c-.255-.981-.617-1.84-1.086-2.577-.468-.737-1.438-1.211-2.908-1.423-.06 1.345.323 2.317 1.148 2.916.824.598 1.773.96 2.846 1.084zM28 42c1.25-.007 2.294.116 3.131.368.837.253 1.46.797 1.869 1.632h-2.771c-.991 0-1.734-.667-2.229-2zM29 38c.254-1.283.774-2.231 1.56-2.845.787-.613 1.933-.998 3.44-1.155-.18 1.137-.835 2.055-1.966 2.753C30.903 37.45 29.89 37.866 29 38z"/>
        <g>
            <path fill="#000" d="M181.785 66.678c11.1 1.771 18.275 1.667 21.527-.312 4.877-2.968 6.035-6.9 5.91-7.493-.127-.593-4.662-1.643-3.973-2.675.689-1.033 3.886.166 4.671 0 .786-.168 2.205-7.494 2.005-8.435-.2-.941-10.637-2.37-9.954-3.901.683-1.53 10.388 2.282 10.79 1.495.401-.788 1-4.044.916-4.436-.083-.392-5.588-.923-5.345-2.006.243-1.082 5.356-1.138 5.77-1.226.414-.088.534-3.465.534-3.465s-6.699-.51-6.379-1.359c.32-.848 6.452-.591 6.7-1.424.247-.832.279-3.952-.071-4.477-.35-.525-3.582.487-3.245-.853.337-1.34 2.82-.736 3.036-1.347.216-.612-.2-7.405-.88-8.06-.678-.654-8.677 1.402-8.587 1.826.09.423 1.769 5.12.494 5.658-1.275.538-2.128-4.732-2.514-4.65-.387.082-4.044 2.351-4.475 2.443-.432.092 2.076 3.46 1.57 4.236-.505.775-2.138-3.578-2.795-3.438-.657.14-3.86 1.913-4.215 2.265-.356.351 2.744 3.333 2.14 4.174-.603.84-2.718-3.136-3.518-2.966-.8.17-2.493 1.507-2.336 2.245.157.737 4.095 5.463 3.129 6.857-.967 1.393-4.596-6.187-5.698-5.519-1.102.67-4.867 4.09-5.007 4.67-.141.58 4.368 4.719 3.87 5.836-.498 1.118-5.037-4.311-5.524-4.208-.28.06-1.495 1.639-2.493 4.006-.112.266 2.21 1.545 2.803 2.363.734 1.012.387 1.821-.34 1.976-.726.154-3.388-1.59-3.482-1.164-.222 1-.31 4.42-.319 5.51-.03 3.653 1.732 9.604 5.285 17.854zm19.084-11.115c-.554 1.413-5.312-1.072-4.697-2.464.616-1.393 5.25 1.05 4.697 2.464zm4.553-4.454c-.353.075-3.259-1.119-3.901-1.745-.643-.625.32-.892.81-1.205.489-.313 3.163.586 3.63 1.217.466.631-.187 1.658-.54 1.733zm1.38-12.86c.206.29.037 1.46-.494 1.73-.53.27-2.242-.422-2.616-.857-.374-.435.152-1.348.546-1.432.394-.084 2.357.268 2.564.558zm-10.673-7.318c.199-.621.359-.903.739-.983.38-.081 2.046 1.85 2.367 2.488.322.638-.042 1.442-.577 1.347-.536-.095-2.729-2.231-2.53-2.852zm-3.89 11.61c-.23.292-.618.715-1.035.804-.417.089-2.215-2.5-2.403-3.383-.188-.884.678-1.374 1.248-1.121.57.252 2.421 3.406 2.19 3.7z"/>
            <path fill="#FFA3E3" d="M181.57 65.738c11.177 1.187 18.338.708 21.481-1.438 4.715-3.22 5.666-7.206 5.51-7.792-.157-.586-4.742-1.398-4.108-2.464.634-1.067 3.89-.037 4.665-.245.776-.208 1.81-7.599 1.56-8.528-.248-.93-10.745-1.81-10.143-3.375.601-1.564 10.493 1.736 10.853.928.36-.807.786-4.09.682-4.477-.103-.387-5.628-.629-5.442-1.723.186-1.094 5.289-1.417 5.698-1.527.409-.11.351-3.488.351-3.488s-6.716-.16-6.44-1.023c.275-.864 6.411-.928 6.615-1.773.204-.844.072-3.96-.305-4.467-.377-.506-3.55.673-3.285-.682.266-1.355 2.778-.883 2.962-1.505.184-.622-.588-7.383-1.3-8.002-.712-.618-8.593 1.854-8.48 2.272.112.419 2.034 5.02.789 5.625-1.245.604-2.373-4.614-2.755-4.512-.381.102-3.914 2.56-4.34 2.674-.427.114 2.254 3.347 1.79 4.148-.464.8-2.323-3.46-2.972-3.287-.649.174-3.754 2.112-4.09 2.482-.337.37 2.914 3.185 2.355 4.056-.558.872-2.879-2.989-3.669-2.777-.79.212-2.41 1.636-2.215 2.364.195.728 4.376 5.242 3.484 6.684-.892 1.442-4.913-5.938-5.979-5.213-1.066.726-4.646 4.34-4.756 4.925-.11.586 4.609 4.484 4.17 5.626-.438 1.142-5.255-4.042-5.736-3.913-.276.074-1.408 1.714-2.28 4.13-.099.273 2.288 1.428 2.923 2.214.785.972.482 1.798-.236 1.99-.717.193-3.467-1.41-3.539-.979-.169 1.01-.078 4.43-.03 5.518.162 3.65 2.232 9.501 6.212 17.554zm18.476-12.099c-.479 1.44-5.36-.792-4.819-2.215.542-1.423 5.298.774 4.819 2.215zm4.314-4.686c-.348.093-3.313-.947-3.987-1.538-.675-.591.273-.908.745-1.246.472-.339 3.19.42 3.69 1.026.498.605-.1 1.665-.448 1.758zm.705-12.915c.22.278.113 1.456-.403 1.754-.516.298-2.26-.304-2.657-.719-.396-.415.08-1.355.47-1.459.39-.104 2.369.145 2.59.424zm-11.042-6.749c.167-.63.312-.92.687-1.02.375-.101 2.14 1.74 2.495 2.36.355.62.033 1.443-.507 1.376-.54-.068-2.841-2.085-2.675-2.716zm-3.276 11.797c-.215.305-.58.748-.992.858-.412.11-2.343-2.38-2.576-3.253-.234-.873.605-1.407 1.187-1.185.583.223 2.596 3.275 2.38 3.58z"/>
            <path stroke="#74125D" stroke-linecap="round" stroke-width=".8" d="M210.844 14.198c-4.756 9.665-14.32 27.698-21.97 40.412-5.1 8.476-12.458 18.624-22.072 30.446"/>
            <g>
                <path fill="#000" d="M180.224 75.15c-11.03 2.157-18.206 2.304-21.524.44-4.978-2.797-6.273-6.686-6.168-7.283.106-.597 4.602-1.805 3.877-2.813-.724-1.007-3.878.303-4.669.163-.79-.14-2.464-7.412-2.297-8.36.167-.947 10.547-2.74 9.811-4.245-.736-1.506-10.302 2.643-10.73 1.87-.43-.772-1.14-4.006-1.071-4.4.07-.395 5.552-1.118 5.272-2.191-.281-1.074-5.393-.951-5.81-1.025-.417-.073-.654-3.444-.654-3.444s6.677-.744 6.327-1.58c-.35-.837-6.468-.367-6.745-1.19-.277-.823-.417-3.94-.085-4.477.331-.536 3.596.362 3.213-.965-.384-1.327-2.845-.638-3.082-1.241-.237-.604-.057-7.407.598-8.085.655-.678 8.721 1.098 8.646 1.524-.075.427-1.59 5.178-.296 5.672 1.293.494 1.962-4.803 2.35-4.734.39.068 4.123 2.208 4.558 2.285.434.076-1.955 3.53-1.422 4.288.532.757 2.012-3.65 2.674-3.534.661.117 3.924 1.777 4.291 2.117.368.339-2.626 3.427-1.993 4.246.632.819 2.607-3.229 3.413-3.087.805.142 2.543 1.42 2.412 2.162-.13.742-3.901 5.603-2.887 6.962 1.014 1.359 4.377-6.343 5.501-5.714 1.125.63 5.007 3.918 5.168 4.492.16.574-4.2 4.868-3.664 5.968.536 1.1 4.883-4.485 5.373-4.398.281.05 1.552 1.585 2.632 3.916.121.262-2.156 1.621-2.72 2.46-.697 1.037-.323 1.833.409 1.962.731.129 3.33-1.708 3.44-1.284.256.991.464 4.407.51 5.494.158 3.65-1.395 9.66-4.658 18.029zm-19.46-10.443c.603 1.394 5.271-1.256 4.608-2.626-.664-1.37-5.21 1.233-4.608 2.626zm-4.705-4.292c.354.062 3.217-1.232 3.837-1.88.62-.647-.35-.88-.85-1.176-.5-.296-3.143.696-3.587 1.343-.443.647.245 1.65.6 1.713zM154.23 47.61c-.196.297.014 1.46.553 1.713.54.251 2.226-.5 2.585-.948.358-.448-.199-1.342-.596-1.412-.397-.07-2.346.35-2.542.647zm10.41-7.685c-.22-.614-.39-.89-.772-.957-.383-.067-1.98 1.92-2.28 2.57-.3.648.093 1.44.625 1.325.532-.114 2.649-2.324 2.428-2.938zm4.293 11.466c.241.285.643.695 1.063.769.42.074 2.126-2.576 2.283-3.465.157-.89-.725-1.35-1.286-1.077-.561.272-2.301 3.488-2.06 3.773z"/>
                <path fill="#CDAAFC" d="M180.406 74.202c-11.129 1.578-18.302 1.348-21.518-.687-4.825-3.053-5.914-7.004-5.778-7.595.136-.59 4.69-1.562 4.019-2.606-.671-1.044-3.889.099-4.671-.082-.782-.18-2.073-7.53-1.857-8.468.217-.937 10.676-2.184 10.02-3.726-.656-1.543-10.426 2.1-10.814 1.306-.388-.794-.929-4.061-.839-4.451.09-.39 5.604-.825 5.38-1.912-.224-1.087-5.335-1.232-5.748-1.327-.413-.095-.473-3.474-.473-3.474s6.706-.394 6.4-1.247c-.305-.853-6.44-.704-6.673-1.54-.233-.837-.21-3.957.15-4.476.359-.518 3.572.55 3.258-.796-.313-1.345-2.807-.785-3.012-1.4-.205-.616.33-7.4 1.02-8.043.69-.643 8.652 1.553 8.555 1.975-.098.422-1.858 5.087-.593 5.648 1.266.561 2.21-4.694 2.595-4.605.385.09 4.002 2.422 4.432 2.52.43.1-2.137 3.425-1.645 4.209.492.784 2.201-3.54 2.856-3.389.654.151 3.825 1.98 4.174 2.338.35.358-2.801 3.285-2.213 4.136.589.851 2.774-3.088 3.57-2.904.797.184 2.466 1.55 2.296 2.285-.17.735-4.19 5.392-3.247 6.802.941 1.41 4.702-6.106 5.793-5.418 1.09.687 4.794 4.174 4.925 4.756.13.582-4.45 4.642-3.972 5.768.479 1.126 5.111-4.223 5.597-4.111.278.064 1.466 1.664 2.423 4.048.107.269-2.238 1.506-2.844 2.314-.751 1-.42 1.814.304 1.981.724.167 3.416-1.53 3.503-1.102.204 1.003.233 4.425.223 5.514-.034 3.653-1.9 9.573-5.596 17.76zM161.52 62.756c.529 1.423 5.33-.98 4.739-2.382-.591-1.403-5.267.959-4.739 2.382zm-4.474-4.533c.35.081 3.277-1.062 3.93-1.676.654-.614-.304-.898-.788-1.22-.484-.321-3.174.532-3.651 1.155-.477.622.158 1.66.509 1.741zm-1.156-12.883c-.211.287-.062 1.46.464 1.74.526.279 2.249-.383 2.63-.812.382-.428-.128-1.35-.52-1.441-.394-.091-2.362.227-2.574.513zm10.8-7.13c-.19-.624-.344-.908-.723-.995-.378-.088-2.077 1.814-2.41 2.446-.333.633.017 1.443.554 1.357.537-.086 2.767-2.183 2.578-2.807zm3.686 11.676c.225.297.605.727 1.02.823.416.096 2.259-2.46 2.462-3.341.203-.88-.654-1.385-1.228-1.143-.575.243-2.48 3.364-2.254 3.66z"/>
                <path stroke="#FFF" stroke-linecap="round" stroke-width=".8" d="M149.352 23.716c5.09 9.492 15.276 27.181 23.366 39.62 5.394 8.293 13.1 18.179 23.122 29.657"/>
            </g>
        </g>
    </g>
</svg>
