<svg xmlns="http://www.w3.org/2000/svg" width="18" height="18" viewBox="0 0 18 18">
    <defs>
        <filter id="a" width="104.2%" height="144.4%" x="-2.1%" y="-22.2%" filterUnits="objectBoundingBox">
            <feOffset dy="2" in="SourceAlpha" result="shadowOffsetOuter1"/>
            <feGaussianBlur in="shadowOffsetOuter1" result="shadowBlurOuter1" stdDeviation="1"/>
            <feColorMatrix in="shadowBlurOuter1" result="shadowMatrixOuter1" values="0 0 0 0 0.732079311 0 0 0 0 0.787230922 0 0 0 0 0.90191858 0 0 0 0.4 0"/>
            <feMerge>
                <feMergeNode in="shadowMatrixOuter1"/>
                <feMergeNode in="SourceGraphic"/>
            </feMerge>
        </filter>
    </defs>
    <path fill="#6F7694" fill-rule="nonzero" d="M13.787 12.752l-3.451-3.466a5.519 5.519 0 0 0 1.373-3.634C11.71 2.536 9.083 0 5.855 0 2.626 0 0 2.536 0 5.652c0 3.117 2.626 5.653 5.855 5.653a5.936 5.936 0 0 0 3.354-1.023l3.477 3.492c.146.146.341.226.55.226a.774.774 0 0 0 .53-.206.72.72 0 0 0 .021-1.042zM5.855 1.475c2.386 0 4.327 1.874 4.327 4.177 0 2.304-1.941 4.178-4.327 4.178S1.527 7.956 1.527 5.652c0-2.303 1.942-4.177 4.328-4.177z" filter="url(#a)" transform="translate(2)"/>
</svg>
