<svg height="2000" viewBox="0 0 2000 2000" width="2000" xmlns="http://www.w3.org/2000/svg"><g fill="#040000" opacity=".8"><path d="m692.58 308.22 544.22 544.22-461.64-852.44-385.97 389.42z"/><path d="m1307.42 1691.78-544.22-544.22 461.64 852.44 385.74-389.42z"/><path d="m308.22 1307.42 348.94-739.74-534.1 534.33-123.06 122.83 389.42 385.74z"/><path d="m1692.01 692.35-544.45 544.45 852.44-461.64-389.42-385.97z"/></g><g fill="#323333" opacity=".8"><path d="m1432.09 656.93-534.1-533.87-122.83-123.06 461.64 852.44z"/><path d="m567.91 1342.84 656.93 657.16-461.64-852.44z"/><path d="m852.44 763.2-195.28-195.52-348.94 739.74z"/><path d="m1342.84 1432.09 657.16-656.93-852.44 461.64z"/></g><g fill="#555" opacity=".8"><path d="m164 163.77-164 611.39 333.99-179.41z"/><path d="m1836.23 1836.23 163.77-611.39-333.98 179.19z"/><path d="m164 1836 611.16 164-179.18-334.21z"/><path d="m1836.23 163.77-611.39-163.77 179.19 333.99z"/></g><g fill="#323333" opacity=".8"><path d="m389.19 389.42 385.97-389.42-611.16 163.77 169.99 431.98z"/><path d="m1610.58 1610.58-385.74 389.42 611.39-163.77-170.21-432.2z"/><path d="m389.42 1610.58-389.42-385.74 164 611.16 431.98-170.21z"/><path d="m1610.58 389.19 389.42 385.97-163.77-611.39-432.2 170.22z"/></g><g fill="#040000" opacity=".8"><path d="m333.99 595.75-333.99 179.41 77.52 77.28z"/><path d="m1666.02 1404.03 333.98-179.19-77.52-77.28z"/><path d="m775.16 2000 77.28-77.52-256.46-256.69z"/><path d="m1224.84 0-77.28 77.52 256.47 256.47z"/></g></svg>