<svg id="Lag_1" data-name="Lag 1" xmlns="http://www.w3.org/2000/svg" viewBox="0 0 127 127"><defs><style>.cls-1{fill:#0c1523;}.cls-2{fill:#9af1fc;}.cls-3{fill:#7e8afa;}.cls-4{fill:#58b3eb;}.cls-5{fill:#226eb9;}.cls-6{fill:#d2d1d5;}</style></defs><title>cmt2</title><circle class="cls-1" cx="63.5" cy="63.5" r="63.5"/><g id="Page-1"><g id="Group-2"><g id="adx-copy-2"><path class="cls-2" d="M20.73,59.51a37.72,37.72,0,0,1,3.36-12.8A43,43,0,0,1,49.23,22.78a22,22,0,0,1,5.91-1.64c-.61,1-1.7,1-2.88,1.33l2.21,1.36a3.84,3.84,0,0,0-2,.94c.4.59,1.08.07,1.44.57-.24.64-1,.71-1.42,1.15,1,.85,2.3.76,3.25,1.48-.17.15-.32.38-.52.43a31.27,31.27,0,0,0-8,2.92A58.55,58.55,0,0,0,39.21,37a31.53,31.53,0,0,0-5.93,7,30.12,30.12,0,0,0-3.82,8.12,47.25,47.25,0,0,0-1.92,15.21,2,2,0,0,0,.26.62A33.8,33.8,0,0,0,30,77.33,35.82,35.82,0,0,0,43.66,94.56a38.88,38.88,0,0,0,5.41,3.19A67.3,67.3,0,0,0,56,100.08a9.5,9.5,0,0,1-4.59.43A67.4,67.4,0,0,1,41,98.13a38.93,38.93,0,0,1-9.29-5.66,5.18,5.18,0,0,0-2-1.91c-1.5-.95-2.1-2.57-3-4a39.82,39.82,0,0,1-4.33-9.79c-.87-3.16-1.88-6.3-1.77-9.66C20.81,64.58,20.73,62,20.73,59.51Z" transform="translate(-0.25 -0.25)"/><path class="cls-3" d="M80,89.68c1.24-.12,1.6-.94,1.84-2,.72-3.31.92-6.69,1.47-10,.59-3.57,1.38-7.1,3.74-10,4.29-5.33,13.4-5.43,17.48-.18,1.93,2.48,2.32,5.37,2.18,8.4a4.32,4.32,0,0,0-.58,1.4c-.36,3.74-2.35,6.7-4.71,9.44A28.47,28.47,0,0,1,90,94.43c-2.21.87-4.57,1.36-6,3.51,0-.09-.07-.21,0-.27,1-1.78.31-3.33-.68-4.83a.75.75,0,0,1,0-.79c.7-1.52.7-1.52-1-1.53H81.2C81.63,89.11,80.43,90,80,89.68Zm19.39-13.8a4,4,0,0,0-5.75-5.1c-1.51,1-1.85,2.68-2.12,4.25-.61,3.59-1.12,7.19-1.88,10.75-.07.32-.27.72.05.9s.69-.09,1-.36a13.87,13.87,0,0,0,2.91-1.93C96.34,82.09,98.68,79.53,99.43,75.88Z" transform="translate(-0.25 -0.25)"/><path class="cls-4" d="M55.7,28c-1-.73-2.27-.64-3.25-1.49.43-.44,1.18-.5,1.42-1.15-.36-.51-1,0-1.44-.57a3.84,3.84,0,0,1,2-.94l-2.21-1.36c1.17-.32,2.27-.35,2.88-1.33h0a4.75,4.75,0,0,0,2.8-.54,32.19,32.19,0,0,1,9-.47,41.16,41.16,0,0,1,16.35,4.37c0,.19-.28.43,0,.56s.43-.06.55-.27l.53.28c-1,.81-.51,1.92-.55,2.9-.06,1.46-.15,2.83-2.14,2.89.27.54,1.07.37,1,1.05-.55-.25-1.11-.47-1.66-.75a34,34,0,0,0-15.94-3.9A52.68,52.68,0,0,0,55.7,28Z" transform="translate(-0.25 -0.25)"/><path class="cls-3" d="M82.76,31.9c.11-.68-.69-.52-1-1.05,2-.07,2.07-1.44,2.14-2.89,0-1-.41-2.08.55-2.9a39,39,0,0,1,11.44,8.53,25.52,25.52,0,0,1,5.64,8,8.26,8.26,0,0,1,.65,3,.45.45,0,0,0,0,.26q-.05.85-.11,1.7a10.76,10.76,0,0,1-4.5,8.26,5.36,5.36,0,0,1-2.71,1.32,5.63,5.63,0,0,1,.71-1C99,52,97.75,46.72,95.17,44A46.93,46.93,0,0,0,91,38.45C88.54,35.86,85.6,34,82.76,31.9Z" transform="translate(-0.25 -0.25)"/><path class="cls-4" d="M48.15,77c1.39,1.44,2.64,3,4.07,4.43C55,84.17,58.47,85.68,62,87.16c2.5,1.05,5.21,1.42,7.78,2.23a2,2,0,0,0-2.56,1.87c-.12.88-1.26,1.34-.88,2.38-1,.15-.48,1.41-1.29,1.68a41.6,41.6,0,0,1-12.82-5.26,35.4,35.4,0,0,1-7-5.76c0-.41-.33-.63-.53-.94-.81-1.27-1.92-2.36-2.31-3.88C44,78,45.64,76.45,48.15,77Z" transform="translate(-0.25 -0.25)"/><path class="cls-5" d="M65,95.32c.81-.27.33-1.53,1.29-1.68-.38-1,.76-1.5.88-2.38a2,2,0,0,1,2.56-1.87l.06.08.26.18a51.57,51.57,0,0,0,10,0c.38.28,1.59-.57,1.16.84-.81,1.94-1.52,3.93-2.49,5.81-.45.89-1.39,1.45-1.7,2.33-.93,2.6-2.89,4.29-4.94,5.88a15.38,15.38,0,0,1-7.66,2.81l-.43,0c.17-1.39-.22-2.83.27-4.18a2.36,2.36,0,0,0-.11-2.54,19.91,19.91,0,0,0,3.76-.78,15.36,15.36,0,0,0,6.77-3,55,55,0,0,1-9-1.37.57.57,0,0,0-.6-.21Z" transform="translate(-0.25 -0.25)"/><path class="cls-5" d="M48.15,77c-2.51-.53-4.12,1-5.73,2.5A17.93,17.93,0,0,1,40,70.92c-.34-7.71,2.58-14.18,7.73-19.76a3.83,3.83,0,0,1,1.87-1.43c-.84,1.72-2.25,3.06-3.12,4.77a19.58,19.58,0,0,0-2.19,11.75C44.48,70.22,46.12,73.67,48.15,77Z" transform="translate(-0.25 -0.25)"/><path class="cls-2" d="M58,20.59a4.75,4.75,0,0,1-2.8.54A6.25,6.25,0,0,1,58,20.59Z" transform="translate(-0.25 -0.25)"/><path class="cls-3" d="M84,24.78c-.12.22-.32.36-.55.27s-.08-.37,0-.56Z" transform="translate(-0.25 -0.25)"/><path class="cls-6" d="M102.24,44.83a.45.45,0,0,1,0-.26,1.88,1.88,0,0,1,.12.19Z" transform="translate(-0.25 -0.25)"/><path class="cls-4" d="M70.07,89.64l-.26-.18Z" transform="translate(-0.25 -0.25)"/><path class="cls-4" d="M56,100.08c2.71.26,5.38,1,8.13.59a2.36,2.36,0,0,1,.1,2.54c-.49,1.34-.1,2.79-.27,4.18a46.84,46.84,0,0,1-7.76-.35A40,40,0,0,1,45,103.5,17.14,17.14,0,0,1,40.74,101c.38-.22.19-.69.42-1,.95-1.12,0-1-.67-1h0c-.05-.44.39-.55.56-.85a67.4,67.4,0,0,0,10.37,2.38A9.5,9.5,0,0,0,56,100.08Z" transform="translate(-0.25 -0.25)"/><path class="cls-5" d="M41,98.13c-.17.3-.61.41-.56.85-.27,0-.56,0-.64.38,0,0,.11.14.17.15.38,0,.44-.24.47-.52.68,0,1.61-.08.67,1-.22.26,0,.74-.42,1l-.51-.32a.69.69,0,0,0-.63-.47,34.84,34.84,0,0,1-8.36-7.4l.51-.31A38.93,38.93,0,0,0,41,98.13Z" transform="translate(-0.25 -0.25)"/><path class="cls-4" d="M31.76,92.47l-.51.31c-.68-.61-1.48-1.15-1.47-2.22A5.18,5.18,0,0,1,31.76,92.47Z" transform="translate(-0.25 -0.25)"/><path class="cls-4" d="M64.41,107.34a15.38,15.38,0,0,0,7.66-2.81c2.05-1.58,4-3.28,4.94-5.88.31-.88,1.25-1.44,1.7-2.33,1-1.88,1.68-3.87,2.49-5.81h1.12c1.7,0,1.7,0,1,1.53a.75.75,0,0,0,0,.79c1,1.5,1.65,3,.68,4.83,0,.06,0,.18,0,.27a19.91,19.91,0,0,1-6.8,5.9,28.86,28.86,0,0,1-11,3.58A3.3,3.3,0,0,1,64.41,107.34Z" transform="translate(-0.25 -0.25)"/><path class="cls-4" d="M39.6,100.18a.69.69,0,0,1,.63.47A.51.51,0,0,1,39.6,100.18Z" transform="translate(-0.25 -0.25)"/><path class="cls-5" d="M94.71,47.38A5.52,5.52,0,0,0,95.17,44c2.58,2.74,3.8,8,.46,11.11a5.63,5.63,0,0,0-.71,1c-3.23,2-8.56,1.3-11.8-1.51A13.21,13.21,0,0,1,81,52.36a20.6,20.6,0,0,0-13.14-8.44,6.69,6.69,0,0,1-.66-.21c.59-.18,1-.4.73-1.19a2.57,2.57,0,0,1,0-1.39A5.32,5.32,0,0,0,67.7,37a25.81,25.81,0,0,1,11,3.85A27.19,27.19,0,0,1,85.5,46.8,9.56,9.56,0,0,1,86.27,48a4.48,4.48,0,0,0,4.47,2.23A4.12,4.12,0,0,0,94.71,47.38Z" transform="translate(-0.25 -0.25)"/><path class="cls-2" d="M37.1,61.73c.76-6.71,3.23-12.63,8.23-17.29a15.36,15.36,0,0,1,4.74-3.55,2,2,0,0,0,1.71.56h0c.55,1.94-.11,4,.56,5.94h0a.5.5,0,0,0-.58.54l-2.2,1.84a3.82,3.82,0,0,0-1.87,1.43c-5.15,5.57-8.07,12-7.73,19.76a17.93,17.93,0,0,0,2.45,8.56c.39,1.52,1.5,2.61,2.31,3.88.2.3.53.53.53.94a.84.84,0,0,1-.83-.4c-1-1.8-2.46-3.29-3.31-5.24a45.87,45.87,0,0,1-2.78-6.56A32.11,32.11,0,0,1,37.1,61.73Z" transform="translate(-0.25 -0.25)"/><path class="cls-4" d="M52.33,47.37c-.68-1.93,0-4-.56-5.94.21,0,.45,0,.43-.33a.13.13,0,0,0-.09-.09c-.31,0-.3.23-.33.43a2,2,0,0,1-1.71-.56l0,0c1,.15,1.63-.73,2.6-.67.46,0,.49-.58.47-1A25,25,0,0,1,67.7,37a5.32,5.32,0,0,1,.23,4.13,2.57,2.57,0,0,0,0,1.39c.28.79-.14,1-.73,1.19-2.54.11-5.09-.24-7.62.5a29,29,0,0,0-4.84,1.89C53.92,46.51,53.13,46.95,52.33,47.37Z" transform="translate(-0.25 -0.25)"/><path class="cls-4" d="M51.77,47.9a.5.5,0,0,1,.58-.54A1,1,0,0,1,51.77,47.9Z" transform="translate(-0.25 -0.25)"/><path class="cls-4" d="M65.62,95.53c-.25.06-.47.05-.6-.21A.57.57,0,0,1,65.62,95.53Z" transform="translate(-0.25 -0.25)"/><path class="cls-2" d="M53.17,39.19c0,.43,0,1-.47,1-1-.06-1.65.82-2.6.67A5.55,5.55,0,0,1,53.17,39.19Z" transform="translate(-0.25 -0.25)"/><path class="cls-4" d="M40.49,99c0,.29-.1.56-.47.52-.06,0-.18-.11-.17-.15.07-.35.37-.34.64-.38Z" transform="translate(-0.25 -0.25)"/><path class="cls-2" d="M51.78,41.45c0-.21,0-.45.33-.43a.13.13,0,0,1,.09.09c0,.31-.23.3-.43.33Z" transform="translate(-0.25 -0.25)"/></g></g></g></svg>