<?xml version="1.0" encoding="utf-8"?>
<!-- Generator: Adobe Illustrator 21.0.2, SVG Export Plug-In . SVG Version: 6.00 Build 0)  -->
<svg version="1.1" id="Layer_1" xmlns="http://www.w3.org/2000/svg" xmlns:xlink="http://www.w3.org/1999/xlink" x="0px" y="0px"
	 viewBox="0 0 400 400" style="enable-background:new 0 0 400 400;" xml:space="preserve">
<style type="text/css">
	.st0{fill:#E42C84;}
</style>
<g>
	<path class="st0" d="M198.6,85.9c-0.1-0.2-0.3-0.5-0.4-0.7l-58-74.3c-0.1-0.1-0.2-0.3-0.3-0.4C58.8,35.7,0,111.3,0,200.7
		C0,310.8,89.2,400,199.3,400c6.8,0,13.5-0.3,20.2-1c0,0-0.1-0.1-0.1-0.1L143.6,302c-0.6-0.8-2.1-2-0.8-2.8l75.2-58.3
		c1.2-0.9,0.3-1.8-0.4-2.7c0,0-50-63.9-50.9-64.8c-0.6-0.5-1.1-0.6-1.8-0.2l-75.1,58.9c-0.8,0.8-1.1-0.2-1.3-0.9
		c-0.3-1.1-0.5-2.2-0.8-3.3C70.8,148.9,129.9,85.9,198.6,85.9z"/>
	<path class="st0" d="M215,17.6c43.3,3.4,83.5,21.8,114.6,52.8C364,104.8,383,150.6,383,199.3c0,39.6-12.5,77.3-36.2,109
		c-11.4,15.2-25,28.6-40.5,39.6c-12.5,8.9-26,16.2-40.2,21.6L233,327.2c8.6-2.2,17.1-5.2,25.1-9.1c17.3-8.4,32.8-20.7,44.9-35.7
		c12.3-15.2,20.8-32.5,25.4-51.5c4.9-20.1,5-41.1,0.4-62.4c0-0.1,0-0.2-0.1-0.2c-0.3-1.2-0.6-2.4-0.9-3.6
		c-2.4-9.8-10.4-14.2-17.3-14.2c-4.1,0-8.1,1.5-11.3,4.1l-62.5,49c-8.4-10.6-21-26.7-32-40.8l62.5-48.4c3.9-2.8,6.5-7.1,7.2-11.8
		c0.8-5.5-0.8-10.7-4.9-15.4L215,17.6 M200.7,0c-6.8,0-13.5,0.3-20.2,1c0,0,0.1,0.1,0.1,0.1L256.4,98c0.6,0.8,2.1,2,0.8,2.8
		l-75.2,58.3c-1.2,0.9-0.3,1.8,0.4,2.7c0,0,50,63.9,50.9,64.8c0.3,0.3,0.6,0.4,0.9,0.4c0.3,0,0.5-0.1,0.8-0.3l75.1-58.9
		c0.2-0.2,0.4-0.3,0.5-0.3c0.4,0,0.6,0.7,0.8,1.2c0.3,1.1,0.5,2.2,0.8,3.3c16.9,79-42.1,142.1-110.8,142.1c0,0,0,0,0,0
		c0.1,0.2,0.3,0.5,0.4,0.7l58,74.3c0.1,0.1,0.2,0.3,0.3,0.4c81-25.3,139.9-100.9,139.9-190.3C400,89.2,310.8,0,200.7,0L200.7,0z"/>
</g>
</svg>
