<svg viewBox="0 0 1965 2000" xmlns="http://www.w3.org/2000/svg">
  <g fill="#1FC5C9" fill-rule="nonzero">
    <path d="M865 205c207.5-35 420 30 590 147.5-70 72.5-142.5 145-215 217.5-167.5-100-387.5-97.5-545 22.5-207.5 147.5-260 452.5-132.5 670-70 75-142.5 147.5-212.5 220-137.5-200-190-455-125-690C297.5 492.5 557.5 250 865 205M1612.5 517.5c155 215 200 502.5 110 752.5-80 230-270 422.5-505 495-240 82.5-505 25-710-117.5 70-75 142.5-147.5 215-220 115 62.5 255 97.5 382.5 55 222.5-55 382.5-282.5 365-510 0-85-35-162.5-70-237.5 72.5-72.5 142.5-145 212.5-217.5"/>
    <circle cx="197.5" cy="1802.5" r="197.5"/>
    <circle cx="1767.5" cy="197.5" r="197.5"/>
  </g>
</svg>
