<?xml version="1.0" encoding="utf-8"?>
<!-- Generator: Adobe Illustrator 21.0.0, SVG Export Plug-In . SVG Version: 6.00 Build 0)  -->
<svg version="1.1" id="Layer_1" xmlns="http://www.w3.org/2000/svg" xmlns:xlink="http://www.w3.org/1999/xlink" x="0px" y="0px"
	 viewBox="0 0 540 540" style="enable-background:new 0 0 540 540;" xml:space="preserve">
<style type="text/css">
	.st0{fill:#F2F2F2;}
</style>
<circle class="st0" cx="269.8" cy="266.5" r="223.2"/>
<g>
	<g>
		<path d="M269.7,79.3h0.2c0.8,0.6,1.7,1,2.6,1.5c53.2,30.7,106.3,61.4,159.5,92.1v187.2c-18.7,10.8-37.3,21.6-56,32.3
			c-34.4,19.8-68.8,39.7-103.1,59.5c-1,0.6-2,1.1-2.9,1.7h-0.2c-0.8-0.6-1.8-1-2.7-1.6c-53.1-30.7-106.3-61.3-159.4-92V172.9
			c53.1-30.7,106.2-61.3,159.3-92C267.9,80.4,268.8,79.9,269.7,79.3z M153.4,209.9c21.2,12.2,42.3,24.4,63.5,36.7
			c-4,2.3-8,4.6-12,6.9c9.4,5.4,18.8,10.8,28.2,16.1c4-2.3,7.9-4.6,11.9-6.9c6.5,3.8,13.1,7.6,19.7,11.4c-5,2.9-10,5.8-15,8.7
			c0.2,0.1,0.4,0.2,0.6,0.4c9.2,5.3,18.4,10.6,27.5,15.8c5-2.9,10-5.8,15-8.6c10,5.8,20,11.6,30,17.3c3.3,1.9,6.7,3.8,10,5.8
			c-19.9,11.5-39.8,23-59.7,34.4c-41.3-23.6-82.6-47.3-123.9-70.9c-0.2,11.5-0.3,23-0.5,34.5c41.5,23.7,83,47.3,124.4,71
			c20.3-11.7,40.5-23.5,60.8-35.2c19.5-11.3,39.1-22.6,58.6-33.9c-4-2.3-8-4.6-12-6.9c-19.4-11.2-38.7-22.3-58.1-33.5
			c4.7-2.7,9.4-5.5,14.1-8.2c-9.4-5.4-18.8-10.8-28.2-16.1c-4.7,2.7-9.3,5.5-14,8.1c-6.5-3.8-13.1-7.6-19.7-11.4
			c5.7-3.3,11.5-6.6,17.2-9.9c-4.5-2.6-9-5.2-13.5-7.7c-4.9-2.8-9.8-5.6-14.7-8.4c-5.7,3.3-11.4,6.6-17.1,9.9
			c-11.1-6.4-22.3-12.9-33.4-19.3c19.9-11.5,39.8-23,59.7-34.4c27.5,15.8,55.1,31.6,82.6,47.3c10.1-5.9,20.2-11.7,30.3-17.6
			c-37.6-21.5-75.2-42.9-112.8-64.3C233.2,163.9,193.3,186.9,153.4,209.9z"/>
	</g>
</g>
</svg>
