<svg xmlns="http://www.w3.org/2000/svg" viewBox="0 0 100.39 100.39"><defs><style>.cls-1{fill:#fdfdfd;}.cls-2{fill:#4cc0c8;}.cls-3{fill:#06819a;}</style></defs><title>loom</title><g id="Layer_2" data-name="Layer 2"><g id="Layer_1-2" data-name="Layer 1"><path class="cls-1" d="M100.37,34.14q0,32.61,0,65.22c0,.86-.17,1-1,1q-49.17,0-98.33,0c-.86,0-1-.17-1-1C0,89.91,0,80.47,0,71c.36.11.34.45.39.72A17.8,17.8,0,0,0,8,83.06q7.66,5.32,15.26,10.72a1.18,1.18,0,0,0,1.63,0c4.08-2.9,8.2-5.75,12.3-8.62L44.59,80C43,78.88,41.46,77.86,40,76.76a1.3,1.3,0,0,0-1.84,0c-4.39,3.12-8.81,6.19-13.22,9.27-.39.27-.69.67-1.29.23-4.41-3.16-9-6.09-13.25-9.45a11,11,0,0,1-1.25-16c2.63-2.94,6.15-4.81,9.44-6.91a6.52,6.52,0,0,0,.56.49l17,12L75,93.68c.59.42,1,.76,1.85.19,5.3-3.79,10.68-7.47,16-11.26a17.77,17.77,0,0,0,3.83-24.94c-2.44-3.28-5.95-5.2-9.18-7.47a54.87,54.87,0,0,1,5.19-3.84,17.54,17.54,0,0,0,7.2-11.28C100,34.74,99.88,34.29,100.37,34.14Z"/><path class="cls-1" d="M0,29.12Q0,15,0,.93C0,.24.07,0,.88,0Q50.2,0,99.51,0c.81,0,.87.24.87.93q0,14.48,0,29c-.49-.34-.35-.9-.45-1.36a16.49,16.49,0,0,0-6.24-10.4c-5.53-4.1-11.24-8-16.86-11.94a1,1,0,0,0-1.35,0q-9.53,6.69-19.08,13.36c-.56.39-.66.62,0,1,1.36.9,2.68,1.84,4,2.82a1.16,1.16,0,0,0,1.62,0c4.39-3.12,8.83-6.17,13.22-9.28a1.31,1.31,0,0,1,1.83,0c3.9,2.8,7.85,5.53,11.77,8.29a11.35,11.35,0,0,1,0,19c-2,1.45-4.1,2.87-6.17,4.29-.32.22-.6.63-1.09.46a7.11,7.11,0,0,0-.64-.57Q53.1,25.94,25.27,6.38a1.54,1.54,0,0,0-2.1,0c-5.25,3.72-10.56,7.35-15.79,11.09A17.23,17.23,0,0,0,.5,27.89C.4,28.32.48,28.83,0,29.12Z"/><path class="cls-2" d="M0,29.12c.45-.3.38-.81.48-1.23A17.23,17.23,0,0,1,7.38,17.46c5.23-3.74,10.54-7.37,15.79-11.09a1.54,1.54,0,0,1,2.1,0Q53.09,26,80.94,45.49a7.09,7.09,0,0,1,.64.57c-1.5,1.66-3.48,2.67-5.31,3.88L54.21,34.51,25.09,14.07c-.48-.34-.85-.69-1.52-.21-4.28,3.05-8.68,6-12.89,9.11a11.21,11.21,0,0,0-1.4,16.34c2.58,2.72,5.93,4.45,8.93,6.63.09.06.24,0,.37,0l-6,4.21c0-.54-.45-.66-.77-.88-1.39-1-2.81-2-4.2-3A17.58,17.58,0,0,1,.47,35.51c-.09-.39,0-.85-.44-1.12Z"/><path class="cls-3" d="M12.59,50.18l6-4.21q9.91-6.92,19.81-13.85a1.08,1.08,0,0,1,1.52,0c1.23.93,2.49,1.84,3.79,2.66.92.58.75.86,0,1.41-6.55,4.55-13.06,9.15-19.59,13.73-1.81,1.36-3.8,2.47-5.48,4-3.29,2.11-6.81,4-9.44,6.91a11,11,0,0,0,1.25,16c4.25,3.35,8.84,6.29,13.25,9.45.61.43.91,0,1.29-.23,4.41-3.08,8.84-6.15,13.22-9.27a1.3,1.3,0,0,1,1.84,0c1.45,1.1,3,2.12,4.58,3.26l-7.35,5.16C33.14,88,29,90.9,24.94,93.8a1.18,1.18,0,0,1-1.63,0Q15.7,88.4,8,83.06A17.8,17.8,0,0,1,.42,71.74c-.06-.27,0-.61-.39-.72V65.25c.42-.12.37-.51.44-.81a17.24,17.24,0,0,1,5.2-9.17A73,73,0,0,1,12.59,50.18Z"/><path class="cls-3" d="M76.26,49.94c1.83-1.21,3.81-2.21,5.31-3.88.5.17.77-.23,1.09-.46,2.07-1.42,4.13-2.84,6.17-4.29a11.35,11.35,0,0,0,0-19c-3.92-2.77-7.88-5.49-11.77-8.29a1.31,1.31,0,0,0-1.83,0C70.8,17.22,66.37,20.27,62,23.39a1.16,1.16,0,0,1-1.62,0c-1.3-1-2.63-1.92-4-2.82-.64-.43-.54-.66,0-1q9.55-6.66,19.08-13.36a1,1,0,0,1,1.35,0c5.62,4,11.33,7.84,16.86,11.94a16.49,16.49,0,0,1,6.24,10.4c.09.46,0,1,.45,1.36v4.26c-.48.15-.37.6-.44.94a17.54,17.54,0,0,1-7.2,11.28,54.86,54.86,0,0,0-5.19,3.84,50.11,50.11,0,0,0-4.41,2.9c-.37.23-.79.48-.84,1-.5-.28-.77.14-1.09.37q-2.73,1.88-5.45,3.77c-4.58,3.2-9.16,6.39-13.72,9.62a1.23,1.23,0,0,1-1.73,0c-1.48-1.13-3-2.16-4.63-3.27.25-.2.43-.36.63-.5,3.89-2.73,7.8-5.43,11.67-8.18C70.75,53.95,73.63,52.12,76.26,49.94Z"/><path class="cls-1" d="M12.59,50.18a73,73,0,0,0-6.93,5.08,17.24,17.24,0,0,0-5.2,9.17c-.07.31,0,.69-.44.81V34.39c.41.27.36.73.44,1.12A17.58,17.58,0,0,0,7.62,46.33c1.39,1,2.8,2,4.2,3C12.14,49.53,12.62,49.64,12.59,50.18Z"/><path class="cls-2" d="M82.29,54.09c.05-.52.47-.77.84-1a50.11,50.11,0,0,1,4.41-2.9c3.24,2.27,6.75,4.2,9.18,7.47a17.77,17.77,0,0,1-3.83,24.94c-5.31,3.79-10.68,7.47-16,11.26-.81.58-1.25.23-1.85-.19L36.17,66.38l-17-12a6.52,6.52,0,0,1-.56-.49c1.69-1.52,3.68-2.63,5.48-4a60.39,60.39,0,0,0,6.16,4.47Q52.72,70.25,75.23,86A1.26,1.26,0,0,0,77,86c3.95-2.81,7.93-5.57,11.9-8.35A11.35,11.35,0,0,0,89,58.92C86.76,57.3,84.4,55.88,82.29,54.09Z"/><path class="cls-1" d="M82.29,54.09c2.11,1.78,4.47,3.21,6.7,4.82a11.35,11.35,0,0,1-.12,18.75c-4,2.78-8,5.54-11.9,8.35a1.26,1.26,0,0,1-1.74,0q-22.49-15.83-45-31.64a60.39,60.39,0,0,1-6.16-4.47c6.53-4.58,13-9.18,19.59-13.73.8-.55,1-.83,0-1.41-1.31-.82-2.56-1.73-3.79-2.66a1.08,1.08,0,0,0-1.52,0q-9.88,7-19.81,13.85c-.13,0-.28,0-.37,0-3-2.18-6.35-3.91-8.93-6.63A11.21,11.21,0,0,1,10.69,23c4.21-3.15,8.6-6.05,12.89-9.11.68-.48,1-.13,1.52.21L54.21,34.51,76.26,49.94c-2.63,2.17-5.51,4-8.29,6-3.87,2.75-7.78,5.46-11.67,8.18-.2.14-.38.3-.63.5,1.58,1.11,3.14,2.14,4.63,3.27a1.23,1.23,0,0,0,1.73,0c4.56-3.23,9.14-6.42,13.72-9.62q2.72-1.9,5.45-3.77C81.52,54.24,81.79,53.82,82.29,54.09Z"/></g></g></svg>