<svg xmlns="http://www.w3.org/2000/svg" width="1838" height="2000" viewBox="0 0 1838 2000"><path d="M1005.3,0c305.51,417.76,608.2,837.84,913.7,1255.77Q1462,1627.14,1006.29,2000C697.47,1752.25,390,1503.18,81,1255.77Q544.72,629.12,1005.3,0M462.8,1207c134.71,107.33,267.77,216.49,402.82,323.33.33-290.42,1.32-581-.5-871.58C732.56,842.64,596.19,1023.73,462.8,1207m682.51-543.62q-1,432.9,0,866.12c130.41-109,263.47-214.67,394.38-323C1407.95,1025.55,1275.88,845,1145.31,663.36Z" transform="translate(-81)" fill="#303030"/></svg>