<?xml version="1.0" encoding="UTF-8"?>
<!DOCTYPE svg PUBLIC "-//W3C//DTD SVG 1.1//EN" "http://www.w3.org/Graphics/SVG/1.1/DTD/svg11.dtd">
<!-- Creator: CorelDRAW X7 -->
<svg xmlns="http://www.w3.org/2000/svg" xml:space="preserve" width="7.5in" height="7.5in" version="1.1" style="shape-rendering:geometricPrecision; text-rendering:geometricPrecision; image-rendering:optimizeQuality; fill-rule:evenodd; clip-rule:evenodd"
viewBox="0 0 7500 7500"
 xmlns:xlink="http://www.w3.org/1999/xlink">
 <defs>
  <style type="text/css">
   <![CDATA[
    .fil0 {fill:none}
    .fil1 {fill:#35312E;fill-rule:nonzero}
    .fil4 {fill:#BFB5AF;fill-rule:nonzero}
    .fil2 {fill:#D7D1C7;fill-rule:nonzero}
    .fil5 {fill:#D8A780;fill-rule:nonzero}
    .fil3 {fill:#F47E33;fill-rule:nonzero}
   ]]>
  </style>
 </defs>
 <g id="Layer_x0020_1">
  <metadata id="CorelCorpID_0Corel-Layer"/>
  <rect class="fil0" width="7500" height="7500"/>
  <rect class="fil0" width="7500" height="7500"/>
  <g id="index-18.eps">
   <path class="fil1" d="M3550 657c39,-4 79,-2 119,-5 74,-4 148,-1 222,2 184,9 367,33 547,74 407,93 795,270 1133,517 394,287 720,668 942,1103 209,408 324,864 337,1323l0 165c-11,457 -125,911 -332,1318 -12,24 -24,49 -36,73 -45,76 -88,153 -137,226 -113,172 -242,332 -386,479 -56,58 -116,111 -175,167 -72,59 -144,118 -220,173 -343,248 -736,426 -1149,517 -134,29 -271,49 -408,61l-516 0c-424,-36 -840,-159 -1213,-363 -467,-253 -866,-628 -1150,-1077 -202,-321 -346,-680 -419,-1053 -88,-443 -77,-907 31,-1346 71,-288 185,-566 335,-822 201,-343 468,-647 783,-890 253,-197 538,-353 839,-463 274,-100 562,-160 853,-179zm-300 287c-459,81 -897,278 -1263,568 -299,235 -550,532 -735,865 -197,356 -316,755 -346,1161 -4,60 -8,119 -7,179 46,1 91,0 137,-1 9,0 12,-10 16,-16 155,-272 311,-543 465,-816 217,-1 435,-1 652,0 47,149 91,299 137,448 44,142 85,285 131,427 170,-44 339,-88 509,-132 9,-1 20,-6 28,0 84,46 168,92 251,138 8,4 18,11 24,0 111,-139 220,-279 332,-418 5,-9 13,-2 19,1 72,42 144,84 216,126 21,12 44,19 66,27 65,23 130,48 195,70 49,-20 95,-47 143,-71 10,-4 19,-11 23,-22 -214,-61 -407,-193 -544,-369 -95,-123 -165,-267 -198,-419 -36,-153 -34,-314 0,-467 38,-167 119,-325 232,-455 122,-141 283,-249 460,-310 147,-49 304,-67 458,-49 208,22 408,109 568,245 131,112 235,256 299,416 69,174 90,367 62,552 -11,83 -37,164 -66,242 -13,30 -29,59 -41,90 41,2 82,0 123,1 109,153 220,305 329,458 20,24 35,52 56,75 88,-14 176,-32 264,-45 17,13 29,31 43,47 81,90 161,181 241,272 24,26 45,56 73,79 5,-160 -5,-320 -26,-479 -19,-124 -42,-248 -77,-368 -56,-207 -138,-406 -239,-595 -261,-483 -664,-887 -1144,-1150 -374,-205 -794,-325 -1219,-345 -81,-4 -163,-7 -244,-2 -135,3 -270,18 -403,42zm728 930c-133,126 -223,299 -245,482 -9,52 -6,105 -6,157 10,152 63,302 153,425 113,157 284,271 473,314 32,6 64,15 97,14 182,-195 364,-390 546,-585 10,-10 18,-22 31,-29 40,57 83,112 124,169 20,26 38,54 60,78 28,-38 50,-82 68,-125 75,-173 86,-372 29,-551 -53,-175 -168,-330 -319,-432 -152,-105 -341,-154 -524,-137 -181,15 -356,94 -487,220zm881 1318c-70,75 -140,149 -211,224 -11,13 -24,24 -33,39 51,-18 103,-35 151,-61 70,-36 131,-96 155,-172 0,-5 6,-13 8,-4 19,61 63,110 114,146 56,39 120,65 185,84 71,26 137,63 197,109 110,85 194,208 216,348 3,17 -1,37 12,50 35,42 80,76 128,100 52,18 105,37 153,64 132,74 244,191 289,337 16,55 25,112 18,169 -11,67 -56,123 -112,161 -87,58 -190,83 -292,101 -102,18 -185,112 -189,217 0,100 1,200 0,300 0,54 -41,104 -93,118 -34,9 -73,3 -102,-19 -34,-25 -54,-67 -53,-109 0,-76 0,-152 0,-228 -1,-35 3,-72 -7,-106 -17,-66 -63,-125 -126,-154 -41,-21 -89,-23 -133,-33 -27,-6 -53,-18 -81,-21 -1,165 0,330 0,495 -4,72 -50,135 -108,175 -82,57 -181,84 -278,103 -69,10 -137,20 -207,21 -75,5 -152,5 -227,2 -116,-4 -232,-17 -343,-49 -56,-16 -110,-39 -159,-71 -55,-37 -103,-92 -114,-160 -10,-93 14,-187 59,-268 69,-124 186,-218 315,-275 40,-19 84,-30 126,-45 39,-15 77,-34 112,-59 52,-36 93,-89 110,-151 8,18 14,38 25,55 30,54 80,95 133,125 77,45 166,61 242,106 24,11 44,29 68,38 3,-120 1,-240 1,-360 1,-49 -2,-99 -25,-142 -32,-66 -97,-114 -169,-127 -98,-17 -197,-42 -281,-97 -56,-37 -104,-92 -118,-160 -9,-84 11,-170 48,-246 -45,21 -88,46 -132,69 -13,5 -26,17 -41,11 -112,-41 -224,-83 -337,-124 -37,-12 -69,-37 -105,-55 -100,125 -197,251 -297,376 -127,161 -254,322 -381,484 -4,3 -7,11 -13,8 -20,-12 -37,-28 -56,-42 -45,-37 -92,-71 -135,-110 102,-130 205,-260 308,-390 4,-5 7,-12 10,-18 -48,-25 -94,-52 -142,-77 -7,-4 -14,-2 -21,-1 -217,55 -432,113 -649,166 -19,-54 -32,-109 -51,-163 -76,-252 -153,-504 -229,-756 0,-8 -8,-9 -15,-9 -104,0 -209,0 -313,0 -128,226 -257,451 -386,677 -29,49 -55,99 -85,147 -21,6 -43,4 -64,5 -74,0 -147,7 -221,5 3,66 14,131 21,196 19,123 45,246 77,366 48,3 95,3 143,1 39,-135 85,-266 130,-399 67,-197 135,-394 202,-591 1,-3 4,-8 5,-10 11,6 9,20 13,30 35,110 67,221 103,331 61,173 119,346 176,520 9,-17 13,-37 20,-55 58,-168 116,-337 173,-505 9,-23 14,-46 25,-67 92,262 180,526 269,790 2,2 4,7 5,10 58,7 115,8 173,17 41,2 83,9 124,13 228,30 457,64 673,144 77,30 153,66 216,120 49,41 89,96 104,159 14,59 8,121 -17,176 -34,76 -92,139 -154,193 -60,52 -128,93 -192,139 -41,30 -81,60 -120,92 -48,40 -96,81 -132,132 31,18 66,26 100,38 230,61 468,89 699,144 241,52 483,95 723,148 207,45 416,94 609,184 20,-6 38,-18 56,-28 302,-167 572,-390 796,-654 277,-327 480,-718 585,-1134 22,-90 43,-181 54,-274 -9,-17 -26,-30 -38,-46 -112,-126 -223,-253 -335,-380 -16,-15 -27,-37 -47,-48 -29,2 -58,10 -87,14 -60,11 -122,21 -183,32 -8,3 -15,-1 -19,-8 -129,-177 -257,-354 -385,-531 -12,-21 -41,-15 -60,-12 -63,47 -121,100 -185,145 -76,-104 -153,-208 -231,-311 -47,47 -92,97 -138,146zm-47 456c-97,20 -192,60 -264,129 -49,46 -86,109 -90,177 29,19 63,30 97,39 88,25 178,33 269,40 69,2 139,2 209,0 51,-6 103,-7 154,-16 66,-11 131,-23 192,-50 7,-4 14,-8 20,-14 -1,-30 -10,-61 -24,-88 -34,-68 -93,-120 -159,-156 -122,-68 -268,-85 -404,-61zm337 747c-50,48 -90,112 -93,183 118,56 249,68 377,76 138,4 278,2 413,-27 45,-9 90,-21 132,-40 9,-4 23,-9 19,-22 -10,-85 -66,-156 -133,-204 -95,-68 -212,-101 -328,-102 -139,-2 -283,40 -387,136zm-3662 -96c-28,68 -48,140 -72,210 -3,9 -5,18 -6,28 52,-1 104,0 156,1 -1,-11 -3,-21 -6,-31 -17,-52 -34,-104 -52,-155 -6,-18 -11,-37 -20,-53zm514 250c-26,83 -57,165 -82,249 19,8 38,11 58,12 36,2 73,1 107,-12 -16,-59 -39,-116 -57,-174 -9,-25 -15,-51 -26,-75zm-911 232c20,64 50,124 77,186 86,179 188,351 309,509 58,77 120,152 187,222 91,103 194,193 300,281 82,66 167,128 256,183 22,16 44,30 67,43 163,99 337,179 516,244 244,85 500,141 759,156 56,6 113,4 170,7 117,-1 235,-5 351,-20 127,-13 251,-37 375,-67 102,-28 205,-57 303,-97 -245,-69 -496,-118 -746,-169 -123,-27 -248,-50 -371,-78 -104,-25 -209,-45 -314,-64 -137,-26 -275,-49 -408,-94 -60,-22 -122,-49 -167,-96 -40,-39 -63,-94 -62,-150 -2,-80 44,-151 95,-209 94,-106 210,-189 324,-271 65,-44 132,-89 182,-150 12,-17 29,-36 25,-59 -18,-32 -52,-51 -84,-67 -53,-28 -111,-46 -167,-64 -186,-53 -377,-81 -567,-104 -52,-6 -104,-14 -156,-15 -4,67 -49,126 -105,160 -90,57 -200,68 -303,58 -85,-10 -173,-38 -233,-103 -40,-42 -60,-103 -47,-160 -37,-7 -74,0 -110,7 -61,2 -123,5 -182,-11 -12,-3 -25,-6 -38,-5 -79,0 -158,-6 -236,-3zm3186 222c-114,11 -229,52 -315,129 -50,45 -89,106 -98,174 -4,13 10,19 20,24 60,26 124,39 189,49 55,9 110,15 165,18 64,1 128,1 192,0 72,-5 143,-12 213,-26 49,-9 97,-22 142,-42 9,-4 24,-10 19,-23 -7,-62 -40,-118 -84,-161 -65,-65 -151,-106 -240,-127 -66,-17 -135,-19 -203,-15zm-1769 -3570c99,-12 201,-5 296,24 114,35 220,98 304,183 115,115 189,269 206,431 6,74 5,150 -12,223 -36,180 -147,344 -299,447 -62,44 -131,75 -203,98 -192,57 -408,29 -579,-78 -124,-77 -225,-193 -283,-328 -90,-203 -77,-448 35,-641 81,-145 215,-260 370,-318 53,-21 109,-33 165,-41zm10 249c-142,25 -271,117 -337,246 -51,97 -67,211 -44,318 18,81 56,157 112,218 71,78 168,133 272,149 103,17 211,-1 303,-51 147,-80 248,-243 244,-412 5,-172 -98,-339 -248,-418 -92,-50 -199,-66 -302,-50z"/>
   <path class="fil2" d="M3250 944c133,-24 268,-39 403,-42 81,-5 163,-2 244,2 425,20 845,140 1219,345 480,263 883,667 1144,1150 101,189 183,388 239,595 35,120 58,244 77,368 21,159 31,319 26,479 -28,-23 -49,-53 -73,-79 -80,-91 -160,-182 -241,-272 -14,-16 -26,-34 -43,-47 -88,13 -176,31 -264,45 -21,-23 -36,-51 -56,-75 -109,-153 -220,-305 -329,-458 -41,-1 -82,1 -123,-1 12,-31 28,-60 41,-90 29,-78 55,-159 66,-242 28,-185 7,-378 -62,-552 -64,-160 -168,-304 -299,-416 -160,-136 -360,-223 -568,-245 -154,-18 -311,0 -458,49 -177,61 -338,169 -460,310 -113,130 -194,288 -232,455 -34,153 -36,314 0,467 33,152 103,296 198,419 137,176 330,308 544,369 -4,11 -13,18 -23,22 -48,24 -94,51 -143,71 -65,-22 -130,-47 -195,-70 -22,-8 -45,-15 -66,-27 -72,-42 -144,-84 -216,-126 -6,-3 -14,-10 -19,-1 -112,139 -221,279 -332,418 -6,11 -16,4 -24,0 -83,-46 -167,-92 -251,-138 -8,-6 -19,-1 -28,0 -170,44 -339,88 -509,132 -46,-142 -87,-285 -131,-427 -46,-149 -90,-299 -137,-448 -217,-1 -435,-1 -652,0 -154,273 -310,544 -465,816 -4,6 -7,16 -16,16 -46,1 -91,2 -137,1 -1,-60 3,-119 7,-179 30,-406 149,-805 346,-1161 185,-333 436,-630 735,-865 366,-290 804,-487 1263,-568zm-743 489c-56,8 -112,20 -165,41 -155,58 -289,173 -370,318 -112,193 -125,438 -35,641 58,135 159,251 283,328 171,107 387,135 579,78 72,-23 141,-54 203,-98 152,-103 263,-267 299,-447 17,-73 18,-149 12,-223 -17,-162 -91,-316 -206,-431 -84,-85 -190,-148 -304,-183 -95,-29 -197,-36 -296,-24zm-1417 3348c78,-3 157,3 236,3 13,-1 26,2 38,5 59,16 121,13 182,11 36,-7 73,-14 110,-7 -13,57 7,118 47,160 60,65 148,93 233,103 103,10 213,-1 303,-58 56,-34 101,-93 105,-160 52,1 104,9 156,15 190,23 381,51 567,104 56,18 114,36 167,64 32,16 66,35 84,67 4,23 -13,42 -25,59 -50,61 -117,106 -182,150 -114,82 -230,165 -324,271 -51,58 -97,129 -95,209 -1,56 22,111 62,150 45,47 107,74 167,96 133,45 271,68 408,94 105,19 210,39 314,64 123,28 248,51 371,78 250,51 501,100 746,169 -98,40 -201,69 -303,97 -124,30 -248,54 -375,67 -116,15 -234,19 -351,20 -57,-3 -114,-1 -170,-7 -259,-15 -515,-71 -759,-156 -179,-65 -353,-145 -516,-244 -23,-13 -45,-27 -67,-43 -89,-55 -174,-117 -256,-183 -106,-88 -209,-178 -300,-281 -67,-70 -129,-145 -187,-222 -121,-158 -223,-330 -309,-509 -27,-62 -57,-122 -77,-186z"/>
   <path class="fil3" d="M3978 1874c131,-126 306,-205 487,-220 183,-17 372,32 524,137 151,102 266,257 319,432 57,179 46,378 -29,551 -18,43 -40,87 -68,125 -22,-24 -40,-52 -60,-78 -41,-57 -84,-112 -124,-169 -13,7 -21,19 -31,29 -182,195 -364,390 -546,585 -33,1 -65,-8 -97,-14 -189,-43 -360,-157 -473,-314 -90,-123 -143,-273 -153,-425 0,-52 -3,-105 6,-157 22,-183 112,-356 245,-482zm-1461 -192c103,-16 210,0 302,50 150,79 253,246 248,418 4,169 -97,332 -244,412 -92,50 -200,68 -303,51 -104,-16 -201,-71 -272,-149 -56,-61 -94,-137 -112,-218 -23,-107 -7,-221 44,-318 66,-129 195,-221 337,-246zm-1030 2617c9,16 14,35 20,53 18,51 35,103 52,155 3,10 5,20 6,31 -52,-1 -104,-2 -156,-1 1,-10 3,-19 6,-28 24,-70 44,-142 72,-210zm514 250c11,24 17,50 26,75 18,58 41,115 57,174 -34,13 -71,14 -107,12 -20,-1 -39,-4 -58,-12 25,-84 56,-166 82,-249z"/>
   <path class="fil4" d="M4859 3192c46,-49 91,-99 138,-146 78,103 155,207 231,311 64,-45 122,-98 185,-145 19,-3 48,-9 60,12 128,177 256,354 385,531 4,7 11,11 19,8 61,-11 123,-21 183,-32 29,-4 58,-12 87,-14 20,11 31,33 47,48 112,127 223,254 335,380 12,16 29,29 38,46 -11,93 -32,184 -54,274 -105,416 -308,807 -585,1134 -224,264 -494,487 -796,654 -18,10 -36,22 -56,28 -193,-90 -402,-139 -609,-184 -240,-53 -482,-96 -723,-148 -231,-55 -469,-83 -699,-144 -34,-12 -69,-20 -100,-38 36,-51 84,-92 132,-132 39,-32 79,-62 120,-92 64,-46 132,-87 192,-139 62,-54 120,-117 154,-193 25,-55 31,-117 17,-176 -15,-63 -55,-118 -104,-159 -63,-54 -139,-90 -216,-120 -216,-80 -445,-114 -673,-144 -41,-4 -83,-11 -124,-13 -58,-9 -115,-10 -173,-17 -1,-3 -3,-8 -5,-10 -89,-264 -177,-528 -269,-790 -11,21 -16,44 -25,67 -57,168 -115,337 -173,505 -7,18 -11,38 -20,55 -57,-174 -115,-347 -176,-520 -36,-110 -68,-221 -103,-331 -4,-10 -2,-24 -13,-30 -1,2 -4,7 -5,10 -67,197 -135,394 -202,591 -45,133 -91,264 -130,399 -48,2 -95,2 -143,-1 -32,-120 -58,-243 -77,-366 -7,-65 -18,-130 -21,-196 74,2 147,-5 221,-5 21,-1 43,1 64,-5 30,-48 56,-98 85,-147 129,-226 258,-451 386,-677 104,0 209,0 313,0 7,0 15,1 15,9 76,252 153,504 229,756 19,54 32,109 51,163 217,-53 432,-111 649,-166 7,-1 14,-3 21,1 48,25 94,52 142,77 -3,6 -6,13 -10,18 -103,130 -206,260 -308,390 43,39 90,73 135,110 19,14 36,30 56,42 6,3 9,-5 13,-8 127,-162 254,-323 381,-484 100,-125 197,-251 297,-376 36,18 68,43 105,55 113,41 225,83 337,124 15,6 28,-6 41,-11 44,-23 87,-48 132,-69 -37,76 -57,162 -48,246 14,68 62,123 118,160 84,55 183,80 281,97 72,13 137,61 169,127 23,43 26,93 25,142 0,120 2,240 -1,360 -24,-9 -44,-27 -68,-38 -76,-45 -165,-61 -242,-106 -53,-30 -103,-71 -133,-125 -11,-17 -17,-37 -25,-55 -17,62 -58,115 -110,151 -35,25 -73,44 -112,59 -42,15 -86,26 -126,45 -129,57 -246,151 -315,275 -45,81 -69,175 -59,268 11,68 59,123 114,160 49,32 103,55 159,71 111,32 227,45 343,49 75,3 152,3 227,-2 70,-1 138,-11 207,-21 97,-19 196,-46 278,-103 58,-40 104,-103 108,-175 0,-165 -1,-330 0,-495 28,3 54,15 81,21 44,10 92,12 133,33 63,29 109,88 126,154 10,34 6,71 7,106 0,76 0,152 0,228 -1,42 19,84 53,109 29,22 68,28 102,19 52,-14 93,-64 93,-118 1,-100 0,-200 0,-300 4,-105 87,-199 189,-217 102,-18 205,-43 292,-101 56,-38 101,-94 112,-161 7,-57 -2,-114 -18,-169 -45,-146 -157,-263 -289,-337 -48,-27 -101,-46 -153,-64 -48,-24 -93,-58 -128,-100 -13,-13 -9,-33 -12,-50 -22,-140 -106,-263 -216,-348 -60,-46 -126,-83 -197,-109 -65,-19 -129,-45 -185,-84 -51,-36 -95,-85 -114,-146 -2,-9 -8,-1 -8,4 -24,76 -85,136 -155,172 -48,26 -100,43 -151,61 9,-15 22,-26 33,-39 71,-75 141,-149 211,-224zm1486 2261c49,-73 92,-150 137,-226 -13,39 -35,75 -53,113 -133,251 -314,477 -527,664 -39,31 -74,69 -118,95 59,-56 119,-109 175,-167 144,-147 273,-307 386,-479z"/>
   <path class="fil5" d="M4812 3648c136,-24 282,-7 404,61 66,36 125,88 159,156 14,27 23,58 24,88 -6,6 -13,10 -20,14 -61,27 -126,39 -192,50 -51,9 -103,10 -154,16 -70,2 -140,2 -209,0 -91,-7 -181,-15 -269,-40 -34,-9 -68,-20 -97,-39 4,-68 41,-131 90,-177 72,-69 167,-109 264,-129zm337 747c104,-96 248,-138 387,-136 116,1 233,34 328,102 67,48 123,119 133,204 4,13 -10,18 -19,22 -42,19 -87,31 -132,40 -135,29 -275,31 -413,27 -128,-8 -259,-20 -377,-76 3,-71 43,-135 93,-183zm-873 608c68,-4 137,-2 203,15 89,21 175,62 240,127 44,43 77,99 84,161 5,13 -10,19 -19,23 -45,20 -93,33 -142,42 -70,14 -141,21 -213,26 -64,1 -128,1 -192,0 -55,-3 -110,-9 -165,-18 -65,-10 -129,-23 -189,-49 -10,-5 -24,-11 -20,-24 9,-68 48,-129 98,-174 86,-77 201,-118 315,-129z"/>
  </g>
 </g>
</svg>
