<svg viewBox="0 0 2000 2000" xmlns="http://www.w3.org/2000/svg">
  <g fill="none" fill-rule="evenodd">
    <circle fill="#101C38" cx="1000" cy="1000" r="1000"/>
    <g fill="#FFF" fill-rule="nonzero">
      <path d="M1004.615385 150.76923L272.307693 573.846153v846.153845l732.307692 423.07692 732.307697-423.07692V573.846153L1004.615385 150.76923zm669.230767 1232.307688l-667.692305 386.15385-667.692308-386.15385V610.76923l667.692308-386.153846 667.692305 386.153846v772.307688z"/>
      <path d="M1292.307693 516.923076H716.923078L649.23077 810.76923h712.307692zM818.461539 1213.846153v-195.384615L647.692309 910.76923l-192.307693 143.076923 263.076923 458.461534h104.615385l124.615385-116.923072v-56.923077z"/>
      <path d="M1192.307693 853.846153H820.000001l61.538461 164.615385-18.461538 184.615384h141.538461l144.615385-1.538461-18.461538-183.076923z"/>
      <path d="M1363.076924 909.230769l-169.230769 109.230769v195.384615l-129.23077 124.615385v56.923077l124.615385 115.384612h104.615385l261.538462-456.923074z"/>
    </g>
  </g>
</svg>
