<svg id="Layer_1" data-name="Layer 1" xmlns="http://www.w3.org/2000/svg" width="7.5in" height="7.5in" viewBox="0 0 540 540">
  <title>nas</title>
  <circle cx="269.78" cy="266.47" r="223.2" style="fill: #ccc"/>
  <path d="M234.81,203.86c11.59-34.48,23.4-68.88,35-103.36,22.19,44.73,44.15,89.58,66.31,134.33q51.7,17.49,103.36,35.08L305.21,336.12q-17.54,51.69-35.07,103.39Q237,372.38,203.94,305.25q-51.72-17.47-103.4-35.05C145.25,248,190.13,226.11,234.81,203.86Zm37-73.35q-26.94,79.38-53.85,158.78,53.13-26.22,106.29-52.42Q298,183.66,271.8,130.51ZM130.51,268.25q37,12.48,73.91,25.05,12.56-37,25.09-73.94C196.55,235.73,163.47,251.87,130.51,268.25ZM223,299.58c24.48,8.35,49,16.6,73.47,24.95,1.52,0.41,3.18,1.48,4.77.71q54.18-26.67,108.32-53.42c-25.73-8.65-51.42-17.42-77.13-26.12C295.9,263.6,259.5,281.74,223,299.58Zm-3.43,11.09c16.05,33,32.44,65.9,48.66,98.85,8.35-24.62,16.65-49.26,25.07-73.87C268.73,327.21,244.08,319.08,219.54,310.67Z" style="fill: #010101"/>
</svg>
