<?xml version="1.0" encoding="UTF-8"?>
<svg width="130px" height="129px" viewBox="0 0 130 129" version="1.1" xmlns="http://www.w3.org/2000/svg" xmlns:xlink="http://www.w3.org/1999/xlink">
    <!-- Generator: Sketch 52.2 (67145) - http://www.bohemiancoding.com/sketch -->
    <title>Path</title>
    <desc>Created with Sketch.</desc>
    <g id="Page-1" stroke="none" stroke-width="1" fill="none" fill-rule="evenodd">
        <path d="M124.278,51.964 C122.931,50.515 121.494,49.152 120.095,47.752 C106.15,33.804 92.215,19.846 78.256,5.912 C70.4,-1.93 59.33,-1.892 51.469,5.966 C36.4,21.029 21.324,36.085 6.276,51.169 C-1.514,58.978 -1.57,70.022 6.185,77.804 C21.365,93.035 36.572,108.239 51.813,123.408 C59.201,130.761 70.237,130.895 77.782,123.743 C81.802,119.933 85.672,115.963 89.631,112.088 C90.188,111.542 90.459,110.983 90.463,110.189 C90.476,107.815 90.566,105.442 90.624,103.069 C90.64,102.411 90.746,101.673 89.965,101.37 C89.225,101.083 88.939,101.814 88.555,102.197 C83.506,107.223 78.475,112.268 73.44,117.308 C67.872,122.882 61.881,122.905 56.352,117.376 C41.52,102.542 26.687,87.709 11.855,72.876 C6.611,67.632 6.591,61.423 11.822,56.177 C18.622,49.358 25.434,42.55 32.244,35.741 C40.36,27.626 48.49,19.524 56.591,11.394 C58.98,8.997 61.708,7.578 65.194,7.643 C68.705,7.708 71.272,9.507 73.648,11.788 C80.794,18.983 87.922,26.196 95.092,33.367 C102.449,40.724 109.848,48.039 117.228,55.373 C117.228,55.373 117.228,55.373 117.228,55.373 C117.434,55.624 117.622,55.894 117.85,56.123 C123.135,61.442 123.172,67.557 117.922,72.823 C112.146,78.616 106.358,84.396 100.56,90.166 C100.108,90.615 99.285,91.362 99.106,91.443 C98.726,91.678 98.483,91.79 98.312,91.937 C98.127,91.904 97.897,91.867 97.689,91.833 C97.665,91.799 97.639,91.767 97.607,91.741 C94.889,89.567 92.763,86.797 90.244,84.424 L82.091,77.048 L82.065,77.021 C82.091,77.048 78.49,73.501 78.49,73.501 C77.248,72.329 76.072,71.074 74.743,70.01 C73.596,69.092 73.465,68.229 73.887,66.819 C75.071,62.868 73.181,58.56 69.587,56.466 C66,54.376 61.414,54.903 58.418,57.748 C55.391,60.623 54.644,65.092 56.566,68.831 C58.428,72.452 62.59,74.605 66.486,73.698 C67.95,73.357 68.777,73.768 69.747,74.736 C77.591,82.566 85.593,90.234 93.873,97.603 C94.87,98.49 95.185,99.444 95.17,100.717 C95.085,108.105 95.052,115.493 95.01,122.882 C94.998,125.011 96.162,126.589 97.867,126.811 C99.482,127.02 100.838,125.921 101.491,123.875 C101.983,123.161 101.776,122.348 101.78,121.579 C101.816,114.168 101.83,106.756 101.85,99.344 C108.878,92.603 115.744,85.699 122.514,78.7 C122.761,78.457 123.007,78.213 123.254,77.97 C123.254,77.97 123.254,77.97 123.254,77.97 C130.869,71.307 131.342,59.562 124.278,51.964 Z" id="Path" fill="#18B5E0"></path>
    </g>
</svg>