<svg viewBox="0 0 2000 2000" xmlns="http://www.w3.org/2000/svg">
  <path d="M1999.59708 996.204417c-1.55525-7.036417-7.30916-12.216667-14.25375-13.221834l-188.08441-188.56075 74.4875-278.709c2.44391-9.138166-2.9625-18.533333-12.08325-20.9835l-279.64567-75.121666-70.01533-261.946084c-.188-1.165166-.48425-2.29025-.90017-3.375416l-1.93125-7.230584c-1.17358-4.392083-4.03342-8.133-7.95858-10.406166-3.92517-2.273167-8.59667-2.889917-12.97192-1.713334l-273.51583 73.471L1009.65708 4.825417c-6.40333-6.431-17.751663-6.436667-24.166413 0L784.827333 205.996833 520.3015 134.936c-4.369583-1.170833-9.035417-.559667-12.966333 1.713417-3.925167 2.273166-6.79075 6.014166-7.96425 10.406166l-72.846834 272.552084L146.8785 494.729333c-4.381 1.1765-8.1125 4.049334-10.379833 7.984417-2.267417 3.935167-2.877 8.607083-1.709167 12.999167L206.872917 785.415 5.007583 987.791667C1.80025 991.001333 0 995.359167 0 999.905333c-.001248 4.541827 1.79973 8.898577 5.007583 12.113837l207.562334 208.09358-72.083334 269.6965c-1.167916 4.392-.558333 9.06392 1.709 13.00475 2.267417 3.93517 5.998917 6.80225 10.379834 7.97883l267.36875 71.82042 73.72975 275.85333c2.04525 7.65892 8.949916 12.70775 16.498333 12.70775 1.464167 0 2.951083-.19416 4.43225-.594l273.51-73.471 197.376167 197.87025c3.33275 3.34692 7.708 5.02034 12.08325 5.02034 4.369503 0 8.744753-1.67342 12.083163-5.02034l199.78025-200.28616 282.49984 75.88691c1.48116.39984 2.97375.594 4.43791.594 7.54275 0 14.45309-5.04883 16.49267-12.70783l73.72408-275.85333 267.37442-71.82034c9.12083-2.45025 14.52717-11.83966 12.08317-20.98358l-74.4875-278.709 192.21475-192.70725 6.335-2.94708c7.26933-3.3925 11.21158-11.39417 9.48541-19.241587v.000084zm-218.24975 176.675413l-14.305-53.50408 126.43784-58.91275-112.13284 112.41683zm40.9325 285.5455l-175.07258-102.5875.00567-.02858 116.44541-116.72892 58.6215 219.345zm-184.24466-68.27366l167.53558 98.167-208.76433 56.07991 41.22875-154.24691zm-149.74975 427.91275l-104.254-181.03317 164.44216-44.1775-60.18816 225.21067zm-208.6675-93.7235l123.43558 86.89266-165.70683-44.51433 42.27125-42.37833zm-264.95325 217.16333v-199.13258l156.6545 42.08133-156.6545 157.05125zM980.483 1745.433v196.07117l-154.244583-154.63525L980.483 1745.433zm-432.3805 80.673l98.443083-170.92975 113.665334 113.95317L548.1025 1826.106zm-90.034417-233.25217l61.236417 16.45442-14.1455 159.72983-47.090917-176.18425zM200.6575 1488.23867l167.484333-99.43484 41.587667 155.59475-209.072-56.15991zM351.165 1359.059l-166.812167 99.03508 56.12625-210.00691L351.165 1359.059zM61.202167 1019.89517h204.879l-43.29675 161.9915-161.58225-161.9915zm173.261-131.270003l-153.572417 71.552L217.087417 823.6355l17.37575 64.989667zm-55.96675-341.791084l168.771833 97.83-112.486083 112.76525-56.28575-210.59525zm194.8695 71.66625l-1.076667 1.079417L195.541667 517.135l220.76775-59.306833-42.9435 160.672166zm147.6305-419.956833l97.594166 169.467667L464.647917 409.3615l56.3485-210.818zm195.194166 76.258167l-118.917916-83.7115L756.918 233.976833l-40.727417 40.824834zM980.483 58.306667v200.246166l-157.53175-42.3155L980.483 58.306667zm34.18167 203.3075v-203.3075l159.9415 160.346583-159.9415 42.960917zm449.64225-85.305l-103.80959 180.245-119.85791-120.161417 223.6675-60.083583zm25.2375 218.990916l12.09458-136.541666 40.26025 150.608833-52.35483-14.067167zm320.81166 121.657834l-177.528 100.245916-42.596-159.375666 220.124 59.12975zM1650.02717 646.823L1828.216 546.205833l-58.86083 220.236-119.328-119.618833zm286.76675 335.948333H1746.915l40.12917-150.13475 149.74975 150.13475zm-197.10267 34.268167h165.88917l-147.52225 68.73058-18.36692-68.73058zm-25.80717 89.31433l7.14967-26.74058 5.56592 20.81225-12.71559 5.92833zm-11.53058 43.16084l33.22458-15.4835 17.86559 66.82866-88.53617 88.75467 37.446-140.09983zm-103.4735 254.7555l-40.19192 150.36891-149.989 40.28792L1598.88 1404.27017zm-238.884 191.02808l-129.98708-225.71892 431.92483-201.23433-45.36475 169.73042-256.573 257.22283zm-7.332 55.8l80.18442 139.2375-128.69959-90.59375 48.51517-48.64375zm-90.9345 18.7905l32.60917-8.767-18.58334 18.6305-14.02583-9.8635zm-43.05183 11.55975l32.54091 22.90833-51.99591 52.12192-129.92442-34.90217 149.37942-40.12808zm-281.43442 40.12808l-138.914167 37.31234-101.690416-101.94217 240.604583 64.62983zm-379.775-155.6975l24.804417 24.86725-26.376834-7.08208 1.572417-17.78517zm-31.5155-31.60108l-3.57775 40.37942-74.521667-20.01834-36.016-134.75975L525.95275 1534.278zm-180.148667-229.06l-95.110333-95.34558 34.813917-130.24775 60.296416 225.59333zm-85.419916-319.591h-153.014l136.0715-63.396167 16.9425 63.396167zm38.7335-89.337167l-13.61 50.92825-10.59625-39.648333 24.20625-11.279917zM310.654 853.129l-44.726667 20.835-20.930583-78.314167 110.674417-110.95475L310.654 853.129zm111.050417-283.095333l32.728916-122.446L576.57 414.775917l-154.865583 155.25775zM645.303583 345.86825l-76.59525-133.012L691.654 299.400583l-46.350417 46.467667zm96.71125-11.0115L690.9475 348.575417l29.105583-29.185 21.96175 15.466333zm43.0575-11.565583l-40.4825-28.499667 50.452084-50.574167L937.2375 282.414917l-152.165167 40.87625zm284.237337-40.87625l133.20583-35.781667 97.52017 97.761417-230.726-61.97975zm381.34741 164.527416l-36.25533-36.347166 38.55683 10.360416-2.3015 25.98675zm31.51542 31.600917l4.30692-48.586583 65.63441 17.631 36.89334 138.060833-106.83467-107.10525zm172.86225 221.75525l104.10583 104.363833-38.10683 142.561417-65.999-246.92525zm-481.22617 571.70217l132.24309-235.691 83.16958 140.7395c3.12192 5.283 8.75617 8.40141 14.70383 8.40141a17.144872 17.144872 0 0 0 3.78275-.42266c7.23509-1.64484 12.5845-7.78459 13.23967-15.19225l13.53025-152.79617h267.89858l-28.90633 108.139-460.62025 214.61033-39.04117-67.78816zm-65.304 116.40333l45.83192-81.68967 27.39658 47.57567-73.2285 34.114zm-290.532497-30.8985l43.29675-75.19017 269.237337-3.02125-77.79742 138.6605c-3.64033 6.4825-2.68892 14.58117 2.34717 20.04125 3.31558 3.58667 7.88458 5.49434 12.55033 5.49434 2.43258 0 4.888-.51975 7.20092-1.5935l124.085-57.81617 133.26283 231.41317-106.89733 28.711-407.285587-286.69917zm-17.159166 29.79617l381.393003 268.47425-178.93517 48.06683-333.2025-89.5085 130.744667-227.03258zm20.731166-104.54084l-31.657916 54.97767-76.373167-53.76117 108.031083-1.2165zm-215.72025-262.86566h84.536834L825.412333 1248.447l-165.325166 1.86183c-7.423167.08-13.940417 4.9575-16.13375 12.0625-2.199 7.10492.42725 14.82092 6.500166 19.093L772.727 1367.52892 639.213583 1599.3705l-77.803083-77.99442 44.413333-501.48091zm-34.312666 0L529.895 1489.76933l-135.752333-136.09041-89.208334-333.78375h266.576834zm98.596916-34.26817H608.86025l7.981417-90.1425 53.266416 90.1425zM790.8775 667.178333l42.48775 73.779417-130.579583 232.7325-83.568334-141.424917c-3.777083-6.402416-11.234416-9.623583-18.486666-7.97875-7.235 1.644917-12.5845 7.784584-13.245334 15.19225L574.547583 985.627h-263.91625l28.911917-108.167583L790.8775 667.178333zm-17.159167-29.79625L351.07375 834.292917l52.936-198.05875 233.9675-234.554417 135.741083 235.702333zm417.272247 13.513084L1150.75883 720.751l-268.536663 3.02125L960.2475 584.711917c3.640333-6.4825 2.688917-14.581167-2.352917-20.0355-5.04175-5.46-13.0175-7.030667-19.745583-3.900834l-133.314 62.111084L670.46125 389.5545 778.498 360.535l412.49258 290.360167zm17.15917-29.790417l-386.6-272.13525 181.721-48.815 337.49817 90.662167-132.61917 230.288083zm-17.66617 99.200667l28.59292-49.643167 68.96142 48.546667-97.55434 1.0965zm209.6815 296.734163l-8.57391 96.7905-57.19159-96.79058 65.7655.00008zM852.843083 706.244083l-30.848916-53.566916 82.4575-38.414667-51.608584 91.981583zm296.873167 538.810337c-.54117-.05709-1.06533-.21709-1.6065-.2285l-283.229083 3.17558L722.901583 1007.73l139.968084-249.466833 277.207333-3.118334c.15383.308334.2165.639667.39308.936667l145.47134 246.18267-136.22517 242.79025zm328.51967-722.002503l128.466 128.785666 88.445 330.93375h-257.63267l40.72167-459.719416zm-75.03434 459.719416H1314.147L1179.38592 754.705l162.07791-1.821917c7.42309-.085666 13.94042-4.9575 16.13375-12.062416 2.199-7.105-.42733-14.821-6.50025-19.093084L1236.23 640.87175l131.59925-228.506083L1446.7205 491.451l-43.51892 491.320333zM1456.02925 386.299l-63.38417-17.025583 76.6865-133.16625L1456.02925 386.299zm-903.204 1232.01033l65.366667 17.55675L539.107 1773.20167l13.71825-154.89234z" fill="#02BFA8" fill-rule="nonzero"/>
</svg>
