<svg viewBox="0 0 2000 2000" xmlns="http://www.w3.org/2000/svg">
  <g fill="none" fill-rule="evenodd">
    <circle fill="#243851" cx="1000" cy="1000" r="1000"/>
    <path d="M1059.38762 792.126115h112.42585c25.82495 0 46.84088 20.995534 46.84088 46.800934v374.390901c0 25.79988-21.01593 46.79542-46.84088 46.79542h-112.43138V792.126115h.00553zm0 673.900315h112.42585c139.47793 0 252.95403-113.36594 252.95403-252.70848V838.927049c0-139.348055-113.4761-252.713999-252.95403-252.713999H853.268952v1244.8441h206.118668v-365.03072zm-487.180536 0h206.113142V595.573237h-18.738563c-103.487724 0-187.374579 83.805425-187.374579 187.198214v683.266019-.01104zM1115.59778 333.504574c0 87.875311-71.30603 159.112131-159.26673 159.112131-87.966223 0-159.272261-71.23682-159.272261-159.112131 0-87.880833 71.306038-159.117653 159.272261-159.117653 87.9607 0 159.26673 71.23682 159.26673 159.117653z" fill="#FFF"/>
  </g>
</svg>
