<svg viewBox="0 0 2000 2000" xmlns="http://www.w3.org/2000/svg">
  <path d="M1000 2000C447.71525 2000 0 1552.28475 0 1000S447.71525 0 1000 0s1000 447.71525 1000 1000-447.71525 1000-1000 1000zm0-1687.5c-379.6925 0-687.5 307.8075-687.5 687.5s307.8075 687.5 687.5 687.5 687.5-307.80063 687.5-687.5c0-379.699375-307.80063-687.5-687.5-687.5zm652.54062 659.395l-55.6875.543125-.22687-23.30625 55.6875-.53625.22687 23.299375zm-14.30687-120.195625l-55.15813 7.651875-3.20374-23.079375 55.15124-7.651875 3.21063 23.079375zM1590.73438 705.3375l9.625 21.21625-50.6825 23.038125-9.625-21.209375 50.6825-23.045zm-69.4375-105.991875l15.37937 17.510625-41.8275 36.746875-15.37937-17.510625 41.8275-36.746875zm-81.56501-87.016875l17.64126 15.2075-36.33438 42.17125-17.64813-15.2075 36.34125-42.17125zm-97.19874-78.684375l19.5525 12.684375-30.31188 46.701875-19.53875-12.684375 30.29813-46.701875zM1231.99 379.070625l22.52938 5.92625L1240.35 438.835l-22.53625-5.933125 14.17625-53.83125zm-121.6325-29.899375l23.22375 1.93875-4.64062 55.48125-23.21688-1.96625 4.63375-55.45375zM984.469375 334.5h23.299375v55.6875h-23.299375V334.5zM881.1175 349.17125l4.63375 55.48125L862.5 406.598125l-4.63375-55.48125 23.25125-1.945625zM759.485 379.070625l14.169375 53.83125-22.529375 5.94-14.169375-53.838125 22.529375-5.933125zm-110.55 54.57375l30.298125 46.701875-19.545625 12.684375-30.305-46.701875 19.5525-12.684375zM551.75 512.32875L588.09125 554.5l-17.648125 15.2075-36.34125-42.17125L551.75 512.32875zm-81.565 87.01l41.820625 36.75375-15.379375 17.510625-41.81375-36.746875 15.3725-17.5175zm-69.4375 105.991875l50.675625 23.045-9.625 21.209375-50.6825-23.038125 9.631875-21.21625zm-44.295625 123.2825L411.59625 836.265l-3.20375 23.079375-55.144375-7.645 3.20375-23.08625zm-17.290625 119.9825l55.6875.53625-.22 23.30625-55.6875-.543125.22-23.299375zM344.29 1079.37187l55.385-5.62375 2.35125 23.1825-55.385 5.62375-2.35125-23.1825zm25.23125 118.38063l54.21625-12.65688 5.300625 22.6875-54.21625 12.66375-5.300625-22.69437zM430.2 1339.17125l-11.53625-20.24688 48.365625-27.58937 11.53625 20.25375L430.2 1339.17125zm78.835625 99.1925l-16.9125-16.01188 38.29375-40.43187 16.919375 16.0325-38.300625 40.41125zm89.16875 79.2l-18.954375-13.53 32.3125-45.32 18.968125 13.54375-32.32625 45.30625zm103.970625 69.4375L681.55 1576.18l25.911875-49.27313 20.625 10.835-25.911875 49.25938zm115.080625 44.2475l-22.97625-3.84313 9.185-54.90375 22.983125 3.84313-9.191875 54.90375zM917.809375 1650.1l-.45375-55.6875 23.30625-.19938.45375 55.6875-23.30625.19938zM421.2625 1000c0-319.12375 259.61375-578.7375 578.7375-578.7375S1578.7375 680.87625 1578.7375 1000 1319.11688 1578.7375 1000 1578.7375c-319.116875 0-578.7375-259.62062-578.7375-578.7375zm624.1125 655.09125l-.74938.06188-5.08749-55.43313 23.21-2.12437.75624-.06875 5.0875 55.43999-23.21687 2.12438zm124.03875-26.125l-9.68688-54.82813 22.94188-4.05625 9.68688 54.82813-22.94188 4.05625zm118.3875-40.88563l-19.03-52.32562 21.89688-7.96813 19.01625 52.32563-21.88313 7.96812zm105.09813-64.44625l-34.44375-43.73875 18.30125-14.4375 34.4575 43.73875-18.31501 14.4375zm89.595-87.24375l-40.04688-38.665 16.19063-16.76125 40.04 38.67188-16.18375 16.75437zm73.26-94.09812l-45.01063-32.77313 13.71563-18.83062 45.0175 32.77312-13.72251 18.83063zm59.46875-111.89062l-52.58-18.30813 7.66562-22 52.58 18.32188-7.66562 21.98625zm32.84187-126.80938l-55.61188-2.585 1.0725-23.265 55.61876 2.57125-1.07938 23.27875zm-427.08875 192.15625l-17.34562-17.545-33.68751-34.07937c39.0775-37.125 63.80688-74.58688 59.8125-160.875-.31625-6.72375.39188-92.688755.39188-99.508755 0-6.82-.22688-57.853125-.22-64.535625.22-159.369375-38.72-231.639375-146.12812-257.235-12.15501-2.894375-70.8125-4.4-83.53126-4.4h-5.69937c-12.705 0-79.145 1.505625-91.293125 4.4-107.415 25.568125-146.348125 97.845-146.12125 257.200625 0 6.6825-.22 57.75-.22 64.535625 0 6.785625.6875 92.8125.391875 99.50875-7.321875 159.7475 83.545 208.82813 181.919375 205.23938h108.625005c28.82687 1.05187 57.00062-4.44125 82.24562-16.70625l39.53813 40.0125L1187 1329.3125v-.04125c9.93438 9.46 25.1075 9.89313 34.30625.80438 9.19875-9.08875 8.9375-24.26875-.39187-34.30625l.06187-.02063zm-166.14813-57.99062c-1.69125 0-3.3825 0-5.0875-.09625l-.92812-.04125H938.30375l-.928125.04125c-1.69125.06187-3.403125.09625-5.0875.09625-23.375 0-56.91125-5.95375-83.985-34.2925-29.143125-30.50438-43.05125-56.05188-40.211875-117.92.199375-4.30375.213125-4.44813-.226875-82.0325-.061875-10.518755-.103125-18.11563-.103125-19.800005 0-3.01125.04125-22.42625.09625-43.6425.055-26.63375.130625-17.235625.130625-20.96875-.103125-70.60625 7.871875-131.95875 25.073125-159.6925 10.195625-16.445 27.823125-34.973125 81.173125-47.829375 10.51875-1.588125 64.260625-3.224375 80.355-3.224375H1000.33c16.0875 0 62.07438 1.63625 72.58625 3.224375 53.35 12.85625 70.9775 31.384375 81.17313 47.829375 17.1875 27.73375 25.17624 89.079375 25.07312 159.6925 0 3.733125.06188-5.665.13063 20.96875.04812 21.223125.09625 40.63125.09625 43.6425 0 1.69125-.04126 9.28125-.11 19.800005-.44688 77.58437-.42626 77.72875-.22688 82.0325 2.8325 61.87499-11.06875 87.39499-40.205 117.92-1.50563 1.56749-3.0525 3.06625-4.59937 4.51l-31.16438-31.5425-17.3525-17.545c-9.92062-9.43938-25.1075-9.8725-34.30625-.78375-9.19875 9.08875-8.9375 24.26875.39187 34.2925l17.34563 17.55187 22.275 22.53625a127.105034 127.105034 0 0 1-36.60937 5.27313z" fill="#144BDF" fill-rule="nonzero"/>
</svg>
