<svg xmlns="http://www.w3.org/2000/svg" viewBox="0 0 510.8 478.9">
  <g transform="translate(-882.488 -1920.454) scale(4.1251)">
    <linearGradient id="a" gradientUnits="userSpaceOnUse" x1="59.931" y1="500.814" x2="194.216" y2="369.743" gradientTransform="matrix(3.3001 0 0 -3.3001 27.323 2099.434)">
      <stop offset="0" stop-color="#a875cf"/>
      <stop offset="1" stop-color="#18bbfe"/>
    </linearGradient>
    <path d="M267.7 578.1l-4.7-9.4-48.9-98.8s-1.1-3.3 1.1-3.8c7.2-.2 13.8-.2 20.4-.3 0 0 .8 0 1.4 1.5.6 1.5 39.3 78.8 39.3 78.8s8.6 8 15.4-.1c5.4-10.6 25.8-51.5 39.7-79.5 0 0 2.6-1.5 4.8-.6s1.2 2.7 1.2 2.7l-54 108.5c.1 0-6.4 9.6-15.7 1z" fill="url(#a)"/>
    <path d="M215 471.3l34.6 42 15.1 58.5L215 471.3z" fill="#1f231c" fill-opacity=".054983"/>
    <path d="M239.2 471.6l10.3 41.7 25 29-35.3-70.7z" fill="#15191c" fill-opacity=".054983"/>
    <linearGradient id="b" gradientUnits="userSpaceOnUse" x1="68.212" y1="473.109" x2="105.593" y2="439.217" gradientTransform="matrix(3.3001 0 0 -3.3001 27.323 2099.434)">
      <stop offset="0" stop-opacity=".1"/>
      <stop offset="1" stop-color="#fff" stop-opacity="0"/>
    </linearGradient>
    <path d="M264.4 571.2l-14.9-57.9 25 28.9 3.3 13.7-13.4 15.3z" fill="url(#b)"/>
  </g>
</svg>
