<svg viewBox="0 0 1977 601" xmlns="http://www.w3.org/2000/svg">
  <g fill-rule="nonzero" fill="none">
    <path fill="#F78E1E" d="M1656.5303 116.393939l-88.10606 73.651516 90.4697 75.90909 178.54545-149.560606z"/>
    <path fill="#040708" d="M1081.90909.09091l355.83333 299.893938-112.81818 94.666667-233.48485-278.257576H939.363636l-407 483.666667h151.909091l331.121213-393.378788 95.56061 113.89394H986.25758l-63.636368 75.863636h251.999998l73.25758 87.318182h151.78788l-.01515-.015152 128.54545-107.863636 128.57576 107.878788h180.87879L1262.68182.090909z"/>
    <path d="M1911.59633 128.89434h-17.57575v48.10606h-7.31061v-48.10606h-17.61364v-6.174243h42.5v6.174243zm64.50758-6.174243V177.0004h-6.43939v-39.886363c0-.530306.01893-1.098482.05681-1.704546.03788-.606063.08206-1.224744.13258-1.85606l-18.63636 33.939393c-.58082 1.13637-1.46466 1.704546-2.65152 1.704546h-1.06061c-1.18687 0-2.07071-.568176-2.65151-1.704546l-19.01515-34.090909c.15151 1.338391.22727 2.575752.22727 3.712122V177.0004h-6.43939v-54.280303h5.41666c.65656 0 1.16161.063131 1.51515.189394.35353.126264.69444.479795 1.02273 1.060606l18.75 33.409091c.30303.606064.59974 1.237371.89015 1.893939.2904.65657.56187 1.325755.8144 2.007576.25251-.681821.51766-1.35732.79545-2.026515.27777-.669196.5808-1.306815.90909-1.912879l18.40909-33.371212c.30303-.580811.63762-.934342 1.00379-1.060606.36615-.126263.87752-.189394 1.53409-.189394h5.41667z" fill="#FFF"/>
    <path fill="#040708" d="M641.530303 116.393939l-91.409091 251.121213-91.393939-251.121213H306.969697l-91.636364 251.742425-91.621212-251.742425H-.030303l133.69697 367.363637H297l85.848485-235.863637 85.848485 235.863637h162.863636l133.712121-367.363637z"/>
  </g>
</svg>
