<svg viewBox="0 0 2000 2000" xmlns="http://www.w3.org/2000/svg">
  <g fill="none" fill-rule="evenodd">
    <circle fill="#0E2B82" cx="1000" cy="1000" r="1000"/>
    <g transform="translate(160.278746 383.275261)" fill="#FFF">
      <circle cx="296.167247" cy="121.95122" r="45.296167"/>
      <circle cx="853.658537" cy="87.108014" r="45.296167"/>
      <circle cx="1073.17073" cy="243.902439" r="55.749129"/>
      <circle cx="1425.08711" cy="114.982578" r="114.982578"/>
      <circle cx="581.881533" cy="331.010453" r="31.358885"/>
      <path fill-rule="nonzero" d="M588.087802 348.432056L299.651568 130.395271l13.386934-18.012639 273.933673 207.073904L861.007501 76.655052 1078.42811 230.38397l349.9453-119.654452 7.16666 21.318869-360.66066 123.318282-212.320099-150.122564z"/>
      <path d="M258.838986 421.710569l282.167903 761.073571c.383978 1.03568 1.53484 1.56399 2.57052 1.18002.003185-.00119.006368-.00237.009547-.00357l148.064633-55.75476c.536837-.20215.961031-.62508 1.164783-1.16131l145.256586-382.28276c.392337-1.032544 1.547431-1.551533 2.579974-1.159196.538739.204706.962987.631862 1.164006 1.171988l108.309857 291.021318c.353328.94937 1.36067 1.48466 2.345193 1.2462l267.220472-64.722136c.65571-.158817 1.18716-.637522 1.4134-1.273129l144.89426-407.070424c.16355-.459474.48935-.843354.91613-1.079425l129.61501-71.69739c.95732-.529547 1.3115-1.730018.79495-2.694412l-81.62074-152.384729c-.4919-.918357-1.60638-1.305304-2.56154-.889363l-191.61637 83.44273c-.5009.218125-.89077.631666-1.07901 1.144542l-145.16092 395.483483c-.3806 1.036927-1.52973 1.568984-2.56666 1.188384-.53856-.197678-.9663-.617115-1.1745-1.151699l-153.857256-395.04901c-.299207-.768254-1.039184-1.274177-1.863647-1.274177H760.418726c-.82817 0-1.570673.510419-1.867306 1.283642L607.03418 815.25373c-.395634 1.031285-1.552379 1.546582-2.583664 1.150948-.542106-.207969-.967075-.641262-1.164491-1.187301L460.519679 420.33531c-.286408-.792186-1.038479-1.319995-1.880849-1.319995H260.714252c-1.104569 0-2 .895431-2 2 0 .237316.042237.472739.124734.695254z"/>
      <path d="M873.74978 1069.888781c-441.216744 77.798417-811.941814 50.422505-833.594375-72.375272-21.65256-122.797776 317.351938-275.31816 758.568682-353.116577 441.216747-77.798417 811.941811-50.422503 833.594372 72.375273 21.652561 122.797777-317.351932 275.31816-758.568679 353.116576zm-5.174186-29.344267c208.934899-36.84086 400.938244-92.329762 538.824931-154.365897 132.944861-59.81278 203.298093-120.825983 195.642269-164.244322-7.655825-43.41834-94.633982-76.689772-240.018463-87.42558-150.78871-11.134878-350.19116 2.391622-559.126058 39.232482-208.934902 36.84086-400.938245 92.329761-538.824931 154.3659-132.94486 59.81278-203.298088 120.825982-195.642263 164.244321 7.655824 43.41834 94.633977 76.689775 240.018457 87.425582 150.78871 11.134874 350.191156-2.391626 559.126058-39.232486z" fill-rule="nonzero"/>
    </g>
  </g>
</svg>
