<svg viewBox="0 0 1411 1996" xmlns="http://www.w3.org/2000/svg">
  <g fill-rule="nonzero" fill="none">
    <path fill="#49C1BF" d="M1410.06865 824.713959l-287.41419 128.146453L360.183066 1340.9611l762.471394 366.59039v-605.94966l287.41419-129.51945v895.19451l-287.41419 128.14645L0 1458.12357v-285.58352l777.116705-381.235702L0 417.84897V128.146453L291.990847 0 1410.06865 538.215103z"/>
    <path fill="#077A8F" d="M0 128.146453l1122.65446 538.215103 287.41419-128.146453L291.990847 0z"/>
    <path fill="#298E97" d="M1122.65446 665.125858l287.41419-128.146453v286.498856l-287.41419 128.146453"/>
    <path fill="#49C1BF" d="M0 128.421053V418.12357l777.116705 373.638444L0 1172.81465v285.58352l1122.65446 537.29977v-287.41419L360.183066 1341.2357l762.471394-388.100689V666.636156z"/>
    <path fill="#298E97" d="M1122.65446 1993.54691l287.41419-128.14645V970.251716l-287.41419 129.519454z"/>
  </g>
</svg>
