<svg viewBox="0 0 1990 1995" xmlns="http://www.w3.org/2000/svg">
  <path d="M919.696325 4.189555c-266.533849 31.6441-446.827853 114.584139-623.071567 286.638298-67.516441 65.911025-66.820116 64.584139-47.787234 90.862669C321.437137 481.922631 451.17795 651.82205 455.011605 651.686654c1.323018-.05029 8.495165-8.874275 15.941973-19.613153 15.675049-22.603482 13.756287-20.220503 46.421664-57.675048 13.829787-15.852998 31.137331-34.088975 38.464216-40.522244 7.326886-6.433269 17.156674-15.179884 21.84913-19.435203 16.793037-15.237911 27.141199-23.384913 44.212766-34.804642 9.531915-6.379111 18.317215-12.924565 19.520309-14.553192 3.222438-4.348162 78.382979-45.435203 82.916828-45.323017 2.12766.05029 39.531915 34.676982 83.125726 76.947775l79.253385 76.854933 17.005802-12.154739c28.475822-20.344294 562.475826-403.52031 575.825916-413.183753 16.96325-12.274661 17.87621-11.160541-28.90522-35.226305-158.67311-81.632495-379.19149-126.827853-530.947775-108.80851m698.259185 242.294003c-109.63249 79.29207-276.65377 206.878143-276.51064 211.218569.05029 1.419729 8.81238 8.673114 19.47776 16.119922 60.87041 42.495165 107.61702 89.272728 160.10445 160.216635 20.88201 28.232108 53.4352 89.257253 51.75242 97.013539-.68859 3.148937-34.32109 39.907157-74.74662 81.682786-40.42553 41.779497-74.99806 79.063829-76.83172 82.8588-2.61509 5.423598 6.9207 20.382979 44.71567 70.123792 26.42166 34.773698 75.68278 99.787238 109.47775 144.468088 33.79498 44.68085 79.98453 105.60928 102.65378 135.39652 22.66537 29.78723 68.90522 90.77369 102.75048 135.52804 33.84139 44.74662 66.23984 87.36557 71.99613 94.69633l10.46422 13.32688 26.88588-56.01547c147.24178-306.76209 130.11605-680.742748-43.57834-951.558996-52.58027-81.980657-94.46808-133.961315-158.20503-196.324951-52.03481-50.916828-52.91683-51.400387-70.40619-38.750484M104.311412 554.297872c-40.595745 83.72147-62.441006 144.529981-79.918762 222.460349C-19.901354 974.251451-1.096712 1207.853 72.408124 1373.24178c61.497098 138.3675 119.570599 225.47776 215.589942 323.36944 70.20116 71.56673 61.400387 69.05222 112.108317 32.11218 112.441006-81.89942 248.943907-186.61895 248.615087-190.72727-.10058-1.24951-8.901354-8.37137-19.558994-15.81818-37.779497-26.39845-81.141199-64.56093-103.295938-90.90909-8.943907-10.6383-21.056093-24.5648-26.91296-30.94778-27.582205-30.05802-84.974855-124.03868-81.408123-133.30367.649903-1.68666 37.454545-40.57254 81.783365-86.40619 44.32882-45.83366 80.88588-84.12766 81.237911-85.10252.352031-.97485-56.80851-76.98646-127.021276-168.916824-70.212766-91.930367-166.375242-217.918762-213.69826-279.976789-108.649903-142.483559-105.067698-137.976789-109.589942-137.976789-2.092843 0-13.767891 20.545454-25.945841 45.659574M1519.30948 1364.32495c-31.41973 46.61896-77.4855 94.82399-133.46228 139.66731-25.11412 20.11993-56.68859 40.65764-85.79884 55.79884l-35.51258 18.47582-57.33075-56.13539c-73.87621-72.32882-109.35783-106.08898-112.83946-107.34623-1.53191-.55706-130.673114 94.62282-286.990328 211.5087-156.309478 116.88588-289.810445 216.56867-296.665377 221.51258-16.96325 12.23597-17.872341 11.12959 28.905222 35.19922 385.713733 198.44488 841.787233 128.1354 1154.123793-177.92263 70.61509-69.19922 68.23984-62.68472 38.16247-104.40232-71.17988-98.73888-191.96905-256.45261-196.40619-256.441-1.45454 0-8.73887 9.04061-16.18568 20.0851" fill="#000" fill-rule="nonzero"/>
</svg>
