<svg xmlns="http://www.w3.org/2000/svg" width="32" height="32" viewBox="0 0 32 32">
    <g fill="none" fill-rule="nonzero">
        <ellipse cx="15.886" cy="16.027" fill="#8986AA" rx="15.886" ry="15.747"/>
        <g fill="#FFF">
            <path d="M5.53 16.732c-.127-3.348 2.831-6.442 6.212-6.482 1.723-.146 3.4.518 4.704 1.6-.535.583-1.08 1.159-1.66 1.698-1.149-.691-2.531-1.218-3.873-.75-2.164.61-3.475 3.144-2.674 5.242.664 2.192 3.353 3.395 5.46 2.474 1.092-.387 1.812-1.386 2.127-2.458-1.25-.025-2.502-.01-3.752-.044-.003-.737-.007-1.472-.003-2.21 2.085-.003 4.175-.01 6.264.01.128 1.807-.141 3.741-1.327 5.192-1.623 2.07-4.622 2.678-7.061 1.866-2.59-.843-4.472-3.429-4.416-6.138zM22.4 13.942h1.861c.003.617.01 1.237.013 1.854.622.006 1.248.009 1.87.012v1.848l-1.87.009c-.006.62-.01 1.237-.013 1.857-.622-.003-1.245 0-1.864 0-.006-.62-.006-1.237-.012-1.854-.622-.007-1.248-.01-1.87-.013v-1.847c.622-.003 1.244-.006 1.87-.013.003-.616.01-1.236.016-1.853z"/>
        </g>
    </g>
</svg>
